M48
; DRILL file {KiCad (5.1.10)-1} date 08/06/21 13:45:02
; FORMAT={-:-/ absolute / inch / decimal}
; #@! TF.CreationDate,2021-08-06T13:45:02+08:00
; #@! TF.GenerationSoftware,Kicad,Pcbnew,(5.1.10)-1
; #@! TF.FileFunction,Plated,1,2,PTH
FMAT,2
INCH
T1C0.0157
T2C0.1181
%
G90
G05
T1
X-0.28Y0.28
X-0.28Y-0.1531
X-0.28Y-0.5861
X-0.28Y-1.0192
X-0.28Y-1.4523
X-0.28Y-1.8853
X-0.28Y-2.3184
X-0.28Y-2.7515
X-0.28Y-3.1845
X-0.0438Y-0.3499
X-0.0438Y-1.216
X-0.0438Y-1.6491
X-0.0438Y-2.0822
X-0.0044Y0.1225
X0.0349Y-2.4365
X0.0743Y-0.9011
X0.1924Y-0.1137
X0.1924Y-3.3027
X0.2712Y0.28
X0.2712Y-2.6727
X0.2812Y-1.875
X0.3105Y-1.1373
X0.3125Y-0.1562
X0.3377Y-0.8748
X0.3893Y-0.3499
X0.3893Y-2.3578
X0.4125Y-0.9988
X0.46Y-1.215
X0.468Y-0.7042
X0.5Y-1.375
X0.5261Y-0.7188
X0.5312Y-1.4062
X0.5312Y-2.3438
X0.5938Y-3.1562
X0.595Y-1.825
X0.6255Y-1.2554
X0.6255Y-1.8853
X0.6255Y-2.5546
X0.6649Y-0.1924
X0.671Y-0.7188
X0.6875Y-0.7887
X0.7042Y0.28
X0.7042Y-2.909
X0.72Y-1.085
X0.7436Y-0.5468
X0.7436Y-3.3027
X0.783Y-2.279
X0.7954Y-0.8653
X0.935Y-1.465
X0.9405Y0.0832
X0.9405Y-1.3735
X0.9405Y-2.7121
X0.9554Y-0.9403
X0.9651Y-1.1501
X1.0192Y-0.9011
X1.0192Y-2.0822
X1.04Y-0.425
X1.0979Y-0.1924
X1.0979Y-1.7279
X1.0979Y-2.4365
X1.134Y-1.6
X1.1373Y-3.2633
X1.1625Y-1.9525
X1.216Y-1.1373
X1.2554Y0.2406
X1.2948Y-0.4286
X1.3342Y-1.9247
X1.3342Y-2.6334
X1.365Y-0.39
X1.4129Y-0.783
X1.4916Y-0.1531
X1.4916Y-1.4129
X1.51Y-0.225
X1.51Y-0.445
X1.531Y-2.3971
X1.6097Y-0.5468
X1.6097Y-1.0192
X1.6097Y-1.7279
X1.6097Y-2.7908
X1.625Y-0.445
X1.63Y-0.225
X1.64Y-1.12
X1.6885Y0.0832
X1.7279Y-3.1845
X1.8066Y-0.2712
X1.8066Y-2.2003
X1.8853Y-1.2554
X1.8853Y-2.5546
X1.9247Y0.28
X1.9247Y-1.846
X2.0Y-1.12
X2.0034Y-0.7042
X2.0428Y-3.3027
X2.1216Y-0.3893
X2.1609Y-2.0428
X2.1609Y-2.909
X2.2003Y-1.1373
X2.2003Y-2.4365
X2.2397Y0.1225
X2.279Y-1.7279
X2.3578Y-0.1924
X2.3971Y-2.6727
X2.4365Y-1.3342
X2.4759Y-0.5074
X2.5153Y0.28
X2.5546Y-2.2003
X2.594Y-1.0586
X2.594Y-2.909
X2.6334Y-0.0349
X2.6334Y-3.3027
X2.6727Y-2.5153
X2.7121Y-1.6885
X2.7515Y-0.3499
X2.8302Y-2.0034
X2.8696Y-0.6649
X2.909Y0.2406
X2.909Y-1.1767
X2.909Y-2.7908
X2.9877Y-0.1531
X2.9877Y-2.3971
X2.9877Y-3.1452
X3.0664Y-1.7672
X3.1452Y-0.4286
X3.1845Y0.0832
X3.1845Y-1.3342
X3.1845Y-2.6334
X3.2633Y-2.9877
X3.342Y-1.0586
X3.3814Y-0.1924
X3.3814Y-2.1609
X3.3814Y-3.3027
X3.4208Y0.28
X3.4601Y-1.8066
X3.4995Y-0.7042
X3.4995Y-2.4759
X3.5782Y-2.8302
X3.6176Y-0.3893
X3.657Y-1.1767
X3.6964Y-2.0034
X3.6964Y-3.1452
X3.7357Y0.1225
X3.8145Y-1.6885
X3.8145Y-2.594
X3.8538Y-0.1924
X3.9326Y-1.3342
X3.9326Y-2.909
X3.9719Y-0.5074
X3.9719Y-3.3027
X4.0113Y0.28
X4.0507Y-2.3971
X4.0901Y-1.0586
X4.1294Y-0.0349
X4.1688Y-2.7121
X4.2082Y-1.846
X4.2475Y-0.3499
X4.2475Y-0.783
X4.2475Y-3.1452
X4.3263Y-2.1609
X4.405Y0.2406
X4.405Y-1.1767
X4.405Y-2.5153
X4.4444Y-1.6491
X4.4838Y-0.1531
X4.4838Y-0.5861
X4.5231Y-3.3027
X4.5625Y-1.9641
X4.6019Y-2.7515
X4.6806Y0.0832
X4.6806Y-1.3342
X4.72Y-0.3499
X4.72Y-2.3971
X4.7987Y-1.7279
X4.8381Y-1.0586
X4.8775Y-3.1058
X4.9168Y0.28
X4.9168Y-2.6334
X4.9562Y-0.1531
X4.9956Y-0.7042
X5.1137Y-1.846
X5.1137Y-2.8696
X5.1531Y-0.4286
X5.1531Y-1.1767
X5.1531Y-2.3971
X5.2318Y0.1225
X5.2712Y-3.1452
X5.3499Y-0.1924
X5.3499Y-0.783
X5.3499Y-1.531
X5.3499Y-2.6334
X5.4286Y-2.1216
X5.5074Y0.28
X5.5074Y-0.5074
X5.5074Y-2.909
X5.5468Y-1.0192
X5.5468Y-1.7672
X5.5861Y-2.3971
X5.5861Y-3.3027
X5.6255Y-0.0349
X5.7436Y-0.7042
X5.7436Y-1.2554
X5.7436Y-2.6727
X5.783Y-0.3105
X5.8223Y-3.0271
X5.8617Y-1.6491
X5.9011Y0.2406
X5.9011Y-2.279
X5.9798Y-1.0192
X6.0192Y-0.5468
X6.0192Y-3.2633
X6.0586Y-0.1531
X6.0586Y-1.8853
X6.0586Y-2.5546
X6.1373Y-2.909
X6.2948Y-0.3499
X6.2948Y-1.1373
X6.2948Y-1.6491
X6.3342Y-2.3971
X6.3342Y-3.1452
X6.4129Y-1.9641
X6.4129Y-2.7515
X6.4916Y0.28
X6.531Y-0.1531
X6.531Y-0.6649
X6.531Y-1.3342
X6.6097Y-2.9877
X6.6491Y-1.7279
X6.6885Y-0.9798
X6.6885Y-2.5546
X6.7672Y-0.3499
X6.846Y-1.9641
X6.846Y-3.1845
X6.8853Y-1.531
X6.8853Y-2.7908
X6.9247Y0.0832
X6.9641Y-2.3971
X7.0428Y-0.5074
X7.0428Y-1.0586
X7.0822Y-1.7672
X7.1216Y-0.1531
X7.1216Y-2.9877
X7.1609Y0.28
X7.2003Y-2.594
X7.2397Y-1.2948
X7.2397Y-3.3027
X7.3184Y-0.6649
X7.3971Y-1.6491
X7.4365Y-0.2712
X7.4365Y-0.9798
X7.4365Y-2.3971
X7.4759Y0.1619
X7.4759Y-2.0034
X7.5153Y-3.1452
X7.6727Y-0.468
X7.6727Y-2.594
X7.7121Y-1.7672
X7.7908Y0.28
X7.7908Y-0.1531
X7.7908Y-1.0586
X7.7908Y-2.909
X7.8302Y-3.3027
X7.8696Y-2.1609
X7.9877Y-2.4759
X8.0271Y-0.3499
X8.0271Y-1.2554
X8.0271Y-1.8853
X8.1058Y-2.7908
X8.1452Y-0.6649
X8.1452Y-3.1845
X8.1845Y0.2406
X8.1845Y-1.531
X8.2239Y-1.0192
X8.2633Y-0.1531
X8.342Y-2.0034
X8.342Y-2.5546
X8.3814Y-0.468
X8.4601Y0.0832
X8.4601Y-1.6885
X8.5389Y-1.1373
X8.5389Y-3.3027
X8.6176Y-0.2318
X8.6176Y-2.1609
X8.657Y-2.6727
X8.6964Y0.28
X8.7357Y-1.846
X8.7751Y-1.3342
X8.8145Y-0.6649
X8.8145Y-2.3971
X8.8932Y-1.0192
X8.9326Y-0.3499
X8.9719Y0.1225
X8.9719Y-1.6491
X8.9719Y-2.0822
X8.9719Y-2.7908
X9.0113Y-3.3027
X9.1294Y-1.216
X9.1688Y-0.1531
X9.1688Y-2.3184
X9.225Y-0.923
X9.2475Y-0.5074
X9.2869Y-0.9405
X9.2869Y-1.4916
X9.3263Y0.2013
X9.3263Y-2.7121
X9.405Y-2.0822
X9.4838Y-3.2633
X9.5231Y-1.2948
X9.5625Y-0.6649
X9.5625Y-2.5153
X9.6019Y-1.6491
X9.6019Y-2.909
X9.6806Y-0.9798
X9.72Y0.1619
X9.72Y-1.9641
X9.8381Y-2.7121
X9.8775Y-0.3105
X9.8775Y-3.1845
X9.9562Y-1.1373
X9.9562Y-2.3971
X9.9956Y-1.6885
X10.0349Y0.28
X10.1531Y-0.468
X10.1625Y-0.8775
X10.1924Y-1.4129
X10.1924Y-2.594
X10.1924Y-3.3027
X10.2318Y-0.1137
X10.2318Y-0.9011
X10.3105Y-1.8066
X10.3893Y-2.1609
X10.5074Y-0.6649
X10.5074Y-1.531
X10.5074Y-2.909
X10.5861Y-1.0192
X10.5861Y-2.5546
X10.5861Y-3.2633
X10.7042Y0.0832
X10.7042Y-0.4286
X10.7042Y-1.7672
X10.7436Y-1.2948
X10.783Y-2.1216
T2
X-0.15Y0.1
X-0.0563Y-1.4
X-0.0563Y-2.9
X0.0375Y-0.65
X0.0875Y-3.2
X0.1Y0.2
X0.1812Y-1.7
X0.1938Y-1.3
X0.1938Y-2.8
X0.2875Y-0.55
X0.3187Y-2.15
X0.3375Y-3.1
X0.4312Y-1.6
X0.5687Y-2.05
X0.6Y0.1
X0.85Y0.2
X0.8812Y-2.9
X0.975Y-0.65
X1.025Y-3.2
X1.1312Y-2.8
X1.1625Y-1.4
X1.225Y-0.55
X1.275Y-3.1
X1.35Y0.1
X1.4125Y-1.3
X1.5375Y-2.15
X1.6Y0.2
X1.725Y-0.65
X1.7875Y-2.05
X1.8187Y-2.9
X1.9125Y-1.4
X1.9625Y-3.2
X1.975Y-0.55
X2.0688Y-2.8
X2.1Y0.1
X2.1625Y-1.3
X2.2125Y-3.1
X2.2875Y-2.15
X2.35Y0.2
X2.475Y-0.65
X2.5375Y-2.05
X2.6625Y-1.4
X2.725Y-0.55
X2.85Y0.1
X2.9125Y-1.3
X3.0375Y-2.15
X3.1Y0.2
X3.225Y-0.65
X3.2875Y-2.05
X3.4125Y-1.4
X3.475Y-0.55
X3.6Y0.1
X3.6625Y-1.3
X3.7875Y-2.15
X3.85Y0.2
X3.975Y-0.65
X4.0375Y-2.05
X4.1625Y-1.4
X4.225Y-0.55
X4.35Y0.1
X4.4125Y-1.3
X4.5375Y-2.15
X4.6Y0.2
X4.6312Y-2.9
X4.725Y-0.65
X4.7875Y-2.05
X4.8812Y-2.8
X4.9125Y-1.4
X4.975Y-0.55
X5.1Y0.1
X5.15Y-3.2
X5.1625Y-1.3
X5.2875Y-2.15
X5.35Y0.2
X5.4Y-3.1
X5.475Y-0.65
X5.5375Y-2.05
X5.6625Y-1.4
X5.725Y-0.55
X5.85Y0.1
X5.9125Y-1.3
X6.0375Y-2.15
X6.1Y0.2
X6.225Y-0.65
X6.2875Y-2.05
X6.4125Y-1.4
X6.475Y-0.55
X6.6Y0.1
X6.6625Y-1.3
X6.7875Y-2.15
X6.85Y0.2
X6.975Y-0.65
X7.0375Y-2.05
X7.1625Y-1.4
X7.225Y-0.55
X7.35Y0.1
X7.4125Y-1.3
X7.4437Y-2.9
X7.5375Y-2.15
X7.6Y0.2
X7.6937Y-2.8
X7.725Y-0.65
X7.7875Y-2.05
X7.9125Y-1.4
X7.975Y-0.55
X8.1Y0.1
X8.1625Y-1.3
X8.2875Y-2.15
X8.2875Y-2.9
X8.35Y0.2
X8.4313Y-3.2
X8.475Y-0.65
X8.5375Y-2.05
X8.5375Y-2.8
X8.6625Y-1.4
X8.6813Y-3.1
X8.725Y-0.55
X8.85Y0.1
X8.9125Y-1.3
X9.1Y0.2
X9.225Y-0.65
X9.225Y-2.9
X9.3688Y-2.45
X9.3688Y-3.2
X9.475Y-0.55
X9.475Y-2.8
X9.6188Y-2.35
X9.6188Y-3.1
X9.65Y-0.2
X9.6937Y-2.15
X9.8812Y-1.4
X9.9Y-0.1
X9.9437Y-2.05
X9.975Y0.1
X10.1312Y-1.3
X10.1625Y-0.65
X10.1625Y-2.9
X10.225Y0.2
X10.3063Y-3.2
X10.4Y-0.2
X10.4Y-2.45
X10.4125Y-0.55
X10.4125Y-2.8
X10.5563Y-3.1
X10.65Y-0.1
X10.65Y-2.35
T0
M30
