G04 #@! TF.GenerationSoftware,KiCad,Pcbnew,(5.1.10)-1*
G04 #@! TF.CreationDate,2021-08-06T13:45:01+08:00*
G04 #@! TF.ProjectId,Bakeneko60-HS,42616b65-6e65-46b6-9f36-302d48532e6b,rev?*
G04 #@! TF.SameCoordinates,Original*
G04 #@! TF.FileFunction,Paste,Bot*
G04 #@! TF.FilePolarity,Positive*
%FSLAX46Y46*%
G04 Gerber Fmt 4.6, Leading zero omitted, Abs format (unit mm)*
G04 Created by KiCad (PCBNEW (5.1.10)-1) date 2021-08-06 13:45:01*
%MOMM*%
%LPD*%
G01*
G04 APERTURE LIST*
%ADD10R,1.200000X0.900000*%
%ADD11C,1.000000*%
%ADD12R,0.650000X1.060000*%
%ADD13R,1.700000X1.000000*%
G04 APERTURE END LIST*
G36*
G01*
X20608631Y-20783016D02*
X20255077Y-20429462D01*
G75*
G02*
X20255077Y-20111264I159099J159099D01*
G01*
X20573275Y-19793066D01*
G75*
G02*
X20891473Y-19793066I159099J-159099D01*
G01*
X21245027Y-20146620D01*
G75*
G02*
X21245027Y-20464818I-159099J-159099D01*
G01*
X20926829Y-20783016D01*
G75*
G02*
X20608631Y-20783016I-159099J159099D01*
G01*
G37*
G36*
G01*
X19512615Y-21879032D02*
X19159061Y-21525478D01*
G75*
G02*
X19159061Y-21207280I159099J159099D01*
G01*
X19477259Y-20889082D01*
G75*
G02*
X19795457Y-20889082I159099J-159099D01*
G01*
X20149011Y-21242636D01*
G75*
G02*
X20149011Y-21560834I-159099J-159099D01*
G01*
X19830813Y-21879032D01*
G75*
G02*
X19512615Y-21879032I-159099J159099D01*
G01*
G37*
G36*
G01*
X23859457Y-25080082D02*
X24213011Y-25433636D01*
G75*
G02*
X24213011Y-25751834I-159099J-159099D01*
G01*
X23894813Y-26070032D01*
G75*
G02*
X23576615Y-26070032I-159099J159099D01*
G01*
X23223061Y-25716478D01*
G75*
G02*
X23223061Y-25398280I159099J159099D01*
G01*
X23541259Y-25080082D01*
G75*
G02*
X23859457Y-25080082I159099J-159099D01*
G01*
G37*
G36*
G01*
X24955473Y-23984066D02*
X25309027Y-24337620D01*
G75*
G02*
X25309027Y-24655818I-159099J-159099D01*
G01*
X24990829Y-24974016D01*
G75*
G02*
X24672631Y-24974016I-159099J159099D01*
G01*
X24319077Y-24620462D01*
G75*
G02*
X24319077Y-24302264I159099J159099D01*
G01*
X24637275Y-23984066D01*
G75*
G02*
X24955473Y-23984066I159099J-159099D01*
G01*
G37*
G36*
G01*
X21733732Y-25601297D02*
X21380178Y-25954851D01*
G75*
G02*
X21061980Y-25954851I-159099J159099D01*
G01*
X20743782Y-25636653D01*
G75*
G02*
X20743782Y-25318455I159099J159099D01*
G01*
X21097336Y-24964901D01*
G75*
G02*
X21415534Y-24964901I159099J-159099D01*
G01*
X21733732Y-25283099D01*
G75*
G02*
X21733732Y-25601297I-159099J-159099D01*
G01*
G37*
G36*
G01*
X22829748Y-26697313D02*
X22476194Y-27050867D01*
G75*
G02*
X22157996Y-27050867I-159099J159099D01*
G01*
X21839798Y-26732669D01*
G75*
G02*
X21839798Y-26414471I159099J159099D01*
G01*
X22193352Y-26060917D01*
G75*
G02*
X22511550Y-26060917I159099J-159099D01*
G01*
X22829748Y-26379115D01*
G75*
G02*
X22829748Y-26697313I-159099J-159099D01*
G01*
G37*
G36*
G01*
X17615087Y-22902217D02*
X17261533Y-22548663D01*
G75*
G02*
X17261533Y-22230465I159099J159099D01*
G01*
X17579731Y-21912267D01*
G75*
G02*
X17897929Y-21912267I159099J-159099D01*
G01*
X18251483Y-22265821D01*
G75*
G02*
X18251483Y-22584019I-159099J-159099D01*
G01*
X17933285Y-22902217D01*
G75*
G02*
X17615087Y-22902217I-159099J159099D01*
G01*
G37*
G36*
G01*
X16519071Y-23998233D02*
X16165517Y-23644679D01*
G75*
G02*
X16165517Y-23326481I159099J159099D01*
G01*
X16483715Y-23008283D01*
G75*
G02*
X16801913Y-23008283I159099J-159099D01*
G01*
X17155467Y-23361837D01*
G75*
G02*
X17155467Y-23680035I-159099J-159099D01*
G01*
X16837269Y-23998233D01*
G75*
G02*
X16519071Y-23998233I-159099J159099D01*
G01*
G37*
G36*
G01*
X16719573Y-21448928D02*
X16047822Y-20777177D01*
G75*
G02*
X16047822Y-20423623I176777J176777D01*
G01*
X16401375Y-20070070D01*
G75*
G02*
X16754929Y-20070070I176777J-176777D01*
G01*
X17426680Y-20741821D01*
G75*
G02*
X17426680Y-21095375I-176777J-176777D01*
G01*
X17073127Y-21448928D01*
G75*
G02*
X16719573Y-21448928I-176777J176777D01*
G01*
G37*
G36*
G01*
X15376071Y-22792430D02*
X14704320Y-22120679D01*
G75*
G02*
X14704320Y-21767125I176777J176777D01*
G01*
X15057873Y-21413572D01*
G75*
G02*
X15411427Y-21413572I176777J-176777D01*
G01*
X16083178Y-22085323D01*
G75*
G02*
X16083178Y-22438877I-176777J-176777D01*
G01*
X15729625Y-22792430D01*
G75*
G02*
X15376071Y-22792430I-176777J176777D01*
G01*
G37*
D10*
X7937500Y-2443750D03*
X7937500Y856250D03*
X26987500Y-2443750D03*
X26987500Y856250D03*
X46037500Y-2443750D03*
X46037500Y856250D03*
X65087500Y-2443750D03*
X65087500Y856250D03*
X84137500Y-2443750D03*
X84137500Y856250D03*
X103187500Y-2443750D03*
X103187500Y856250D03*
X122237500Y-2443750D03*
X122237500Y856250D03*
X141287500Y-2443750D03*
X141287500Y856250D03*
X160337500Y-2443750D03*
X160337500Y856250D03*
X179387500Y-2443750D03*
X179387500Y856250D03*
X198437500Y-2443750D03*
X198437500Y856250D03*
X217487500Y-2443750D03*
X217487500Y856250D03*
X220662500Y-2443750D03*
X220662500Y856250D03*
X236537500Y-2443750D03*
X236537500Y856250D03*
X-3175000Y-21493750D03*
X-3175000Y-18193750D03*
X36512500Y-21493750D03*
X36512500Y-18193750D03*
X55562500Y-21493750D03*
X55562500Y-18193750D03*
X74612500Y-21493750D03*
X74612500Y-18193750D03*
X93662500Y-21493750D03*
X93662500Y-18193750D03*
X112712500Y-21493750D03*
X112712500Y-18193750D03*
X131762500Y-21493750D03*
X131762500Y-18193750D03*
X150812500Y-21493750D03*
X150812500Y-18193750D03*
X169862500Y-21493750D03*
X169862500Y-18193750D03*
X188912500Y-21493750D03*
X188912500Y-18193750D03*
X227012500Y-21493750D03*
X227012500Y-18193750D03*
X246062500Y-21493750D03*
X246062500Y-18193750D03*
X269875000Y-21493750D03*
X269875000Y-18193750D03*
X15081250Y-45306250D03*
X15081250Y-42006250D03*
X41275000Y-40543750D03*
X41275000Y-37243750D03*
X60325000Y-40543750D03*
X60325000Y-37243750D03*
X79375000Y-40543750D03*
X79375000Y-37243750D03*
X98425000Y-40543750D03*
X98425000Y-37243750D03*
X117475000Y-40543750D03*
X117475000Y-37243750D03*
X136525000Y-40543750D03*
X136525000Y-37243750D03*
X155575000Y-40543750D03*
X155575000Y-37243750D03*
X174625000Y-40543750D03*
X174625000Y-37243750D03*
X193675000Y-40543750D03*
X193675000Y-37243750D03*
X212725000Y-40543750D03*
X212725000Y-37243750D03*
X231775000Y-40543750D03*
X231775000Y-37243750D03*
X262731250Y-40543750D03*
X262731250Y-37243750D03*
X19843750Y-59593750D03*
X19843750Y-56293750D03*
X50800000Y-59593750D03*
X50800000Y-56293750D03*
X69850000Y-59593750D03*
X69850000Y-56293750D03*
X88900000Y-59593750D03*
X88900000Y-56293750D03*
X107950000Y-59593750D03*
X107950000Y-56293750D03*
X127000000Y-59593750D03*
X127000000Y-56293750D03*
X146050000Y-59593750D03*
X146050000Y-56293750D03*
X165100000Y-59593750D03*
X165100000Y-56293750D03*
X184150000Y-59593750D03*
X184150000Y-56293750D03*
X203200000Y-59593750D03*
X203200000Y-56293750D03*
X222250000Y-59593750D03*
X222250000Y-56293750D03*
X230981250Y-59593750D03*
X230981250Y-56293750D03*
X258762500Y-58800000D03*
X258762500Y-55500000D03*
X15081250Y-78643750D03*
X15081250Y-75343750D03*
X38893750Y-78643750D03*
X38893750Y-75343750D03*
X62706250Y-78643750D03*
X62706250Y-75343750D03*
X113506250Y-78643750D03*
X113506250Y-75343750D03*
X200818750Y-78643750D03*
X200818750Y-75343750D03*
X227012500Y-78643750D03*
X227012500Y-75343750D03*
X250825000Y-78643750D03*
X250825000Y-75343750D03*
X274240625Y-78643750D03*
X274240625Y-75343750D03*
G36*
G01*
X31740000Y-7725000D02*
X30490000Y-7725000D01*
G75*
G02*
X30240000Y-7475000I0J250000D01*
G01*
X30240000Y-6725000D01*
G75*
G02*
X30490000Y-6475000I250000J0D01*
G01*
X31740000Y-6475000D01*
G75*
G02*
X31990000Y-6725000I0J-250000D01*
G01*
X31990000Y-7475000D01*
G75*
G02*
X31740000Y-7725000I-250000J0D01*
G01*
G37*
G36*
G01*
X31740000Y-10525000D02*
X30490000Y-10525000D01*
G75*
G02*
X30240000Y-10275000I0J250000D01*
G01*
X30240000Y-9525000D01*
G75*
G02*
X30490000Y-9275000I250000J0D01*
G01*
X31740000Y-9275000D01*
G75*
G02*
X31990000Y-9525000I0J-250000D01*
G01*
X31990000Y-10275000D01*
G75*
G02*
X31740000Y-10525000I-250000J0D01*
G01*
G37*
G36*
G01*
X39224998Y-10700000D02*
X40525000Y-10700000D01*
G75*
G02*
X40774999Y-10949999I0J-249999D01*
G01*
X40774999Y-11650001D01*
G75*
G02*
X40525000Y-11900000I-249999J0D01*
G01*
X39224998Y-11900000D01*
G75*
G02*
X38974999Y-11650001I0J249999D01*
G01*
X38974999Y-10949999D01*
G75*
G02*
X39224998Y-10700000I249999J0D01*
G01*
G37*
G36*
G01*
X39224998Y-5100000D02*
X40525000Y-5100000D01*
G75*
G02*
X40774999Y-5349999I0J-249999D01*
G01*
X40774999Y-6050001D01*
G75*
G02*
X40525000Y-6300000I-249999J0D01*
G01*
X39224998Y-6300000D01*
G75*
G02*
X38974999Y-6050001I0J249999D01*
G01*
X38974999Y-5349999D01*
G75*
G02*
X39224998Y-5100000I249999J0D01*
G01*
G37*
G36*
G01*
X35374999Y-9700000D02*
X36624999Y-9700000D01*
G75*
G02*
X36774999Y-9850000I0J-150000D01*
G01*
X36774999Y-10150000D01*
G75*
G02*
X36624999Y-10300000I-150000J0D01*
G01*
X35374999Y-10300000D01*
G75*
G02*
X35224999Y-10150000I0J150000D01*
G01*
X35224999Y-9850000D01*
G75*
G02*
X35374999Y-9700000I150000J0D01*
G01*
G37*
G36*
G01*
X35374999Y-8700000D02*
X36624999Y-8700000D01*
G75*
G02*
X36774999Y-8850000I0J-150000D01*
G01*
X36774999Y-9150000D01*
G75*
G02*
X36624999Y-9300000I-150000J0D01*
G01*
X35374999Y-9300000D01*
G75*
G02*
X35224999Y-9150000I0J150000D01*
G01*
X35224999Y-8850000D01*
G75*
G02*
X35374999Y-8700000I150000J0D01*
G01*
G37*
G36*
G01*
X35374999Y-7700000D02*
X36624999Y-7700000D01*
G75*
G02*
X36774999Y-7850000I0J-150000D01*
G01*
X36774999Y-8150000D01*
G75*
G02*
X36624999Y-8300000I-150000J0D01*
G01*
X35374999Y-8300000D01*
G75*
G02*
X35224999Y-8150000I0J150000D01*
G01*
X35224999Y-7850000D01*
G75*
G02*
X35374999Y-7700000I150000J0D01*
G01*
G37*
G36*
G01*
X35374999Y-6700000D02*
X36624999Y-6700000D01*
G75*
G02*
X36774999Y-6850000I0J-150000D01*
G01*
X36774999Y-7150000D01*
G75*
G02*
X36624999Y-7300000I-150000J0D01*
G01*
X35374999Y-7300000D01*
G75*
G02*
X35224999Y-7150000I0J150000D01*
G01*
X35224999Y-6850000D01*
G75*
G02*
X35374999Y-6700000I150000J0D01*
G01*
G37*
D11*
G36*
X2597656Y7059779D02*
G01*
X7068056Y6348579D01*
X7077538Y6346098D01*
X7086354Y6341814D01*
X7094165Y6335893D01*
X7099394Y6330000D01*
X7116000Y6330000D01*
X7116000Y3830000D01*
X7099294Y3830000D01*
X7095555Y3825445D01*
X7087979Y3819227D01*
X7079334Y3814606D01*
X7068056Y3811421D01*
X2597656Y3100221D01*
X2587871Y3099637D01*
X2578161Y3100973D01*
X2568898Y3104178D01*
X2560439Y3109129D01*
X2553107Y3115635D01*
X2547186Y3123446D01*
X2542902Y3132262D01*
X2540421Y3141744D01*
X2539800Y3149600D01*
X2539800Y7010400D01*
X2540761Y7020155D01*
X2543606Y7029534D01*
X2548227Y7038179D01*
X2554445Y7045755D01*
X2562021Y7051973D01*
X2570666Y7056594D01*
X2580045Y7059439D01*
X2589800Y7060400D01*
X2597656Y7059779D01*
G37*
G36*
X-3798361Y4519027D02*
G01*
X-3789098Y4515822D01*
X-3780639Y4510871D01*
X-3773307Y4504365D01*
X-3767386Y4496554D01*
X-3763102Y4487738D01*
X-3760621Y4478256D01*
X-3760000Y4470400D01*
X-3760000Y609600D01*
X-3760961Y599845D01*
X-3763806Y590466D01*
X-3768427Y581821D01*
X-3774645Y574245D01*
X-3782221Y568027D01*
X-3790866Y563406D01*
X-3800245Y560561D01*
X-3810000Y559600D01*
X-3817856Y560221D01*
X-8288256Y1271421D01*
X-8297738Y1273902D01*
X-8306554Y1278186D01*
X-8314365Y1284107D01*
X-8319594Y1290000D01*
X-8360000Y1290000D01*
X-8360000Y3790000D01*
X-8319494Y3790000D01*
X-8315755Y3794555D01*
X-8308179Y3800773D01*
X-8299534Y3805394D01*
X-8288256Y3808579D01*
X-3817856Y4519779D01*
X-3808071Y4520363D01*
X-3798361Y4519027D01*
G37*
G36*
X21647656Y7059779D02*
G01*
X26118056Y6348579D01*
X26127538Y6346098D01*
X26136354Y6341814D01*
X26144165Y6335893D01*
X26149394Y6330000D01*
X26166000Y6330000D01*
X26166000Y3830000D01*
X26149294Y3830000D01*
X26145555Y3825445D01*
X26137979Y3819227D01*
X26129334Y3814606D01*
X26118056Y3811421D01*
X21647656Y3100221D01*
X21637871Y3099637D01*
X21628161Y3100973D01*
X21618898Y3104178D01*
X21610439Y3109129D01*
X21603107Y3115635D01*
X21597186Y3123446D01*
X21592902Y3132262D01*
X21590421Y3141744D01*
X21589800Y3149600D01*
X21589800Y7010400D01*
X21590761Y7020155D01*
X21593606Y7029534D01*
X21598227Y7038179D01*
X21604445Y7045755D01*
X21612021Y7051973D01*
X21620666Y7056594D01*
X21630045Y7059439D01*
X21639800Y7060400D01*
X21647656Y7059779D01*
G37*
G36*
X15251639Y4519027D02*
G01*
X15260902Y4515822D01*
X15269361Y4510871D01*
X15276693Y4504365D01*
X15282614Y4496554D01*
X15286898Y4487738D01*
X15289379Y4478256D01*
X15290000Y4470400D01*
X15290000Y609600D01*
X15289039Y599845D01*
X15286194Y590466D01*
X15281573Y581821D01*
X15275355Y574245D01*
X15267779Y568027D01*
X15259134Y563406D01*
X15249755Y560561D01*
X15240000Y559600D01*
X15232144Y560221D01*
X10761744Y1271421D01*
X10752262Y1273902D01*
X10743446Y1278186D01*
X10735635Y1284107D01*
X10730406Y1290000D01*
X10690000Y1290000D01*
X10690000Y3790000D01*
X10730506Y3790000D01*
X10734245Y3794555D01*
X10741821Y3800773D01*
X10750466Y3805394D01*
X10761744Y3808579D01*
X15232144Y4519779D01*
X15241929Y4520363D01*
X15251639Y4519027D01*
G37*
G36*
X40697656Y7059779D02*
G01*
X45168056Y6348579D01*
X45177538Y6346098D01*
X45186354Y6341814D01*
X45194165Y6335893D01*
X45199394Y6330000D01*
X45216000Y6330000D01*
X45216000Y3830000D01*
X45199294Y3830000D01*
X45195555Y3825445D01*
X45187979Y3819227D01*
X45179334Y3814606D01*
X45168056Y3811421D01*
X40697656Y3100221D01*
X40687871Y3099637D01*
X40678161Y3100973D01*
X40668898Y3104178D01*
X40660439Y3109129D01*
X40653107Y3115635D01*
X40647186Y3123446D01*
X40642902Y3132262D01*
X40640421Y3141744D01*
X40639800Y3149600D01*
X40639800Y7010400D01*
X40640761Y7020155D01*
X40643606Y7029534D01*
X40648227Y7038179D01*
X40654445Y7045755D01*
X40662021Y7051973D01*
X40670666Y7056594D01*
X40680045Y7059439D01*
X40689800Y7060400D01*
X40697656Y7059779D01*
G37*
G36*
X34301639Y4519027D02*
G01*
X34310902Y4515822D01*
X34319361Y4510871D01*
X34326693Y4504365D01*
X34332614Y4496554D01*
X34336898Y4487738D01*
X34339379Y4478256D01*
X34340000Y4470400D01*
X34340000Y609600D01*
X34339039Y599845D01*
X34336194Y590466D01*
X34331573Y581821D01*
X34325355Y574245D01*
X34317779Y568027D01*
X34309134Y563406D01*
X34299755Y560561D01*
X34290000Y559600D01*
X34282144Y560221D01*
X29811744Y1271421D01*
X29802262Y1273902D01*
X29793446Y1278186D01*
X29785635Y1284107D01*
X29780406Y1290000D01*
X29740000Y1290000D01*
X29740000Y3790000D01*
X29780506Y3790000D01*
X29784245Y3794555D01*
X29791821Y3800773D01*
X29800466Y3805394D01*
X29811744Y3808579D01*
X34282144Y4519779D01*
X34291929Y4520363D01*
X34301639Y4519027D01*
G37*
G36*
X78797656Y7059779D02*
G01*
X83268056Y6348579D01*
X83277538Y6346098D01*
X83286354Y6341814D01*
X83294165Y6335893D01*
X83299394Y6330000D01*
X83316000Y6330000D01*
X83316000Y3830000D01*
X83299294Y3830000D01*
X83295555Y3825445D01*
X83287979Y3819227D01*
X83279334Y3814606D01*
X83268056Y3811421D01*
X78797656Y3100221D01*
X78787871Y3099637D01*
X78778161Y3100973D01*
X78768898Y3104178D01*
X78760439Y3109129D01*
X78753107Y3115635D01*
X78747186Y3123446D01*
X78742902Y3132262D01*
X78740421Y3141744D01*
X78739800Y3149600D01*
X78739800Y7010400D01*
X78740761Y7020155D01*
X78743606Y7029534D01*
X78748227Y7038179D01*
X78754445Y7045755D01*
X78762021Y7051973D01*
X78770666Y7056594D01*
X78780045Y7059439D01*
X78789800Y7060400D01*
X78797656Y7059779D01*
G37*
G36*
X72401639Y4519027D02*
G01*
X72410902Y4515822D01*
X72419361Y4510871D01*
X72426693Y4504365D01*
X72432614Y4496554D01*
X72436898Y4487738D01*
X72439379Y4478256D01*
X72440000Y4470400D01*
X72440000Y609600D01*
X72439039Y599845D01*
X72436194Y590466D01*
X72431573Y581821D01*
X72425355Y574245D01*
X72417779Y568027D01*
X72409134Y563406D01*
X72399755Y560561D01*
X72390000Y559600D01*
X72382144Y560221D01*
X67911744Y1271421D01*
X67902262Y1273902D01*
X67893446Y1278186D01*
X67885635Y1284107D01*
X67880406Y1290000D01*
X67840000Y1290000D01*
X67840000Y3790000D01*
X67880506Y3790000D01*
X67884245Y3794555D01*
X67891821Y3800773D01*
X67900466Y3805394D01*
X67911744Y3808579D01*
X72382144Y4519779D01*
X72391929Y4520363D01*
X72401639Y4519027D01*
G37*
G36*
X97847656Y7059779D02*
G01*
X102318056Y6348579D01*
X102327538Y6346098D01*
X102336354Y6341814D01*
X102344165Y6335893D01*
X102349394Y6330000D01*
X102366000Y6330000D01*
X102366000Y3830000D01*
X102349294Y3830000D01*
X102345555Y3825445D01*
X102337979Y3819227D01*
X102329334Y3814606D01*
X102318056Y3811421D01*
X97847656Y3100221D01*
X97837871Y3099637D01*
X97828161Y3100973D01*
X97818898Y3104178D01*
X97810439Y3109129D01*
X97803107Y3115635D01*
X97797186Y3123446D01*
X97792902Y3132262D01*
X97790421Y3141744D01*
X97789800Y3149600D01*
X97789800Y7010400D01*
X97790761Y7020155D01*
X97793606Y7029534D01*
X97798227Y7038179D01*
X97804445Y7045755D01*
X97812021Y7051973D01*
X97820666Y7056594D01*
X97830045Y7059439D01*
X97839800Y7060400D01*
X97847656Y7059779D01*
G37*
G36*
X91451639Y4519027D02*
G01*
X91460902Y4515822D01*
X91469361Y4510871D01*
X91476693Y4504365D01*
X91482614Y4496554D01*
X91486898Y4487738D01*
X91489379Y4478256D01*
X91490000Y4470400D01*
X91490000Y609600D01*
X91489039Y599845D01*
X91486194Y590466D01*
X91481573Y581821D01*
X91475355Y574245D01*
X91467779Y568027D01*
X91459134Y563406D01*
X91449755Y560561D01*
X91440000Y559600D01*
X91432144Y560221D01*
X86961744Y1271421D01*
X86952262Y1273902D01*
X86943446Y1278186D01*
X86935635Y1284107D01*
X86930406Y1290000D01*
X86890000Y1290000D01*
X86890000Y3790000D01*
X86930506Y3790000D01*
X86934245Y3794555D01*
X86941821Y3800773D01*
X86950466Y3805394D01*
X86961744Y3808579D01*
X91432144Y4519779D01*
X91441929Y4520363D01*
X91451639Y4519027D01*
G37*
G36*
X116897656Y7059779D02*
G01*
X121368056Y6348579D01*
X121377538Y6346098D01*
X121386354Y6341814D01*
X121394165Y6335893D01*
X121399394Y6330000D01*
X121416000Y6330000D01*
X121416000Y3830000D01*
X121399294Y3830000D01*
X121395555Y3825445D01*
X121387979Y3819227D01*
X121379334Y3814606D01*
X121368056Y3811421D01*
X116897656Y3100221D01*
X116887871Y3099637D01*
X116878161Y3100973D01*
X116868898Y3104178D01*
X116860439Y3109129D01*
X116853107Y3115635D01*
X116847186Y3123446D01*
X116842902Y3132262D01*
X116840421Y3141744D01*
X116839800Y3149600D01*
X116839800Y7010400D01*
X116840761Y7020155D01*
X116843606Y7029534D01*
X116848227Y7038179D01*
X116854445Y7045755D01*
X116862021Y7051973D01*
X116870666Y7056594D01*
X116880045Y7059439D01*
X116889800Y7060400D01*
X116897656Y7059779D01*
G37*
G36*
X110501639Y4519027D02*
G01*
X110510902Y4515822D01*
X110519361Y4510871D01*
X110526693Y4504365D01*
X110532614Y4496554D01*
X110536898Y4487738D01*
X110539379Y4478256D01*
X110540000Y4470400D01*
X110540000Y609600D01*
X110539039Y599845D01*
X110536194Y590466D01*
X110531573Y581821D01*
X110525355Y574245D01*
X110517779Y568027D01*
X110509134Y563406D01*
X110499755Y560561D01*
X110490000Y559600D01*
X110482144Y560221D01*
X106011744Y1271421D01*
X106002262Y1273902D01*
X105993446Y1278186D01*
X105985635Y1284107D01*
X105980406Y1290000D01*
X105940000Y1290000D01*
X105940000Y3790000D01*
X105980506Y3790000D01*
X105984245Y3794555D01*
X105991821Y3800773D01*
X106000466Y3805394D01*
X106011744Y3808579D01*
X110482144Y4519779D01*
X110491929Y4520363D01*
X110501639Y4519027D01*
G37*
G36*
X135947656Y7059779D02*
G01*
X140418056Y6348579D01*
X140427538Y6346098D01*
X140436354Y6341814D01*
X140444165Y6335893D01*
X140449394Y6330000D01*
X140466000Y6330000D01*
X140466000Y3830000D01*
X140449294Y3830000D01*
X140445555Y3825445D01*
X140437979Y3819227D01*
X140429334Y3814606D01*
X140418056Y3811421D01*
X135947656Y3100221D01*
X135937871Y3099637D01*
X135928161Y3100973D01*
X135918898Y3104178D01*
X135910439Y3109129D01*
X135903107Y3115635D01*
X135897186Y3123446D01*
X135892902Y3132262D01*
X135890421Y3141744D01*
X135889800Y3149600D01*
X135889800Y7010400D01*
X135890761Y7020155D01*
X135893606Y7029534D01*
X135898227Y7038179D01*
X135904445Y7045755D01*
X135912021Y7051973D01*
X135920666Y7056594D01*
X135930045Y7059439D01*
X135939800Y7060400D01*
X135947656Y7059779D01*
G37*
G36*
X129551639Y4519027D02*
G01*
X129560902Y4515822D01*
X129569361Y4510871D01*
X129576693Y4504365D01*
X129582614Y4496554D01*
X129586898Y4487738D01*
X129589379Y4478256D01*
X129590000Y4470400D01*
X129590000Y609600D01*
X129589039Y599845D01*
X129586194Y590466D01*
X129581573Y581821D01*
X129575355Y574245D01*
X129567779Y568027D01*
X129559134Y563406D01*
X129549755Y560561D01*
X129540000Y559600D01*
X129532144Y560221D01*
X125061744Y1271421D01*
X125052262Y1273902D01*
X125043446Y1278186D01*
X125035635Y1284107D01*
X125030406Y1290000D01*
X124990000Y1290000D01*
X124990000Y3790000D01*
X125030506Y3790000D01*
X125034245Y3794555D01*
X125041821Y3800773D01*
X125050466Y3805394D01*
X125061744Y3808579D01*
X129532144Y4519779D01*
X129541929Y4520363D01*
X129551639Y4519027D01*
G37*
G36*
X154997656Y7059779D02*
G01*
X159468056Y6348579D01*
X159477538Y6346098D01*
X159486354Y6341814D01*
X159494165Y6335893D01*
X159499394Y6330000D01*
X159516000Y6330000D01*
X159516000Y3830000D01*
X159499294Y3830000D01*
X159495555Y3825445D01*
X159487979Y3819227D01*
X159479334Y3814606D01*
X159468056Y3811421D01*
X154997656Y3100221D01*
X154987871Y3099637D01*
X154978161Y3100973D01*
X154968898Y3104178D01*
X154960439Y3109129D01*
X154953107Y3115635D01*
X154947186Y3123446D01*
X154942902Y3132262D01*
X154940421Y3141744D01*
X154939800Y3149600D01*
X154939800Y7010400D01*
X154940761Y7020155D01*
X154943606Y7029534D01*
X154948227Y7038179D01*
X154954445Y7045755D01*
X154962021Y7051973D01*
X154970666Y7056594D01*
X154980045Y7059439D01*
X154989800Y7060400D01*
X154997656Y7059779D01*
G37*
G36*
X148601639Y4519027D02*
G01*
X148610902Y4515822D01*
X148619361Y4510871D01*
X148626693Y4504365D01*
X148632614Y4496554D01*
X148636898Y4487738D01*
X148639379Y4478256D01*
X148640000Y4470400D01*
X148640000Y609600D01*
X148639039Y599845D01*
X148636194Y590466D01*
X148631573Y581821D01*
X148625355Y574245D01*
X148617779Y568027D01*
X148609134Y563406D01*
X148599755Y560561D01*
X148590000Y559600D01*
X148582144Y560221D01*
X144111744Y1271421D01*
X144102262Y1273902D01*
X144093446Y1278186D01*
X144085635Y1284107D01*
X144080406Y1290000D01*
X144040000Y1290000D01*
X144040000Y3790000D01*
X144080506Y3790000D01*
X144084245Y3794555D01*
X144091821Y3800773D01*
X144100466Y3805394D01*
X144111744Y3808579D01*
X148582144Y4519779D01*
X148591929Y4520363D01*
X148601639Y4519027D01*
G37*
G36*
X174047656Y7059779D02*
G01*
X178518056Y6348579D01*
X178527538Y6346098D01*
X178536354Y6341814D01*
X178544165Y6335893D01*
X178549394Y6330000D01*
X178566000Y6330000D01*
X178566000Y3830000D01*
X178549294Y3830000D01*
X178545555Y3825445D01*
X178537979Y3819227D01*
X178529334Y3814606D01*
X178518056Y3811421D01*
X174047656Y3100221D01*
X174037871Y3099637D01*
X174028161Y3100973D01*
X174018898Y3104178D01*
X174010439Y3109129D01*
X174003107Y3115635D01*
X173997186Y3123446D01*
X173992902Y3132262D01*
X173990421Y3141744D01*
X173989800Y3149600D01*
X173989800Y7010400D01*
X173990761Y7020155D01*
X173993606Y7029534D01*
X173998227Y7038179D01*
X174004445Y7045755D01*
X174012021Y7051973D01*
X174020666Y7056594D01*
X174030045Y7059439D01*
X174039800Y7060400D01*
X174047656Y7059779D01*
G37*
G36*
X167651639Y4519027D02*
G01*
X167660902Y4515822D01*
X167669361Y4510871D01*
X167676693Y4504365D01*
X167682614Y4496554D01*
X167686898Y4487738D01*
X167689379Y4478256D01*
X167690000Y4470400D01*
X167690000Y609600D01*
X167689039Y599845D01*
X167686194Y590466D01*
X167681573Y581821D01*
X167675355Y574245D01*
X167667779Y568027D01*
X167659134Y563406D01*
X167649755Y560561D01*
X167640000Y559600D01*
X167632144Y560221D01*
X163161744Y1271421D01*
X163152262Y1273902D01*
X163143446Y1278186D01*
X163135635Y1284107D01*
X163130406Y1290000D01*
X163090000Y1290000D01*
X163090000Y3790000D01*
X163130506Y3790000D01*
X163134245Y3794555D01*
X163141821Y3800773D01*
X163150466Y3805394D01*
X163161744Y3808579D01*
X167632144Y4519779D01*
X167641929Y4520363D01*
X167651639Y4519027D01*
G37*
G36*
X193097656Y7059779D02*
G01*
X197568056Y6348579D01*
X197577538Y6346098D01*
X197586354Y6341814D01*
X197594165Y6335893D01*
X197599394Y6330000D01*
X197616000Y6330000D01*
X197616000Y3830000D01*
X197599294Y3830000D01*
X197595555Y3825445D01*
X197587979Y3819227D01*
X197579334Y3814606D01*
X197568056Y3811421D01*
X193097656Y3100221D01*
X193087871Y3099637D01*
X193078161Y3100973D01*
X193068898Y3104178D01*
X193060439Y3109129D01*
X193053107Y3115635D01*
X193047186Y3123446D01*
X193042902Y3132262D01*
X193040421Y3141744D01*
X193039800Y3149600D01*
X193039800Y7010400D01*
X193040761Y7020155D01*
X193043606Y7029534D01*
X193048227Y7038179D01*
X193054445Y7045755D01*
X193062021Y7051973D01*
X193070666Y7056594D01*
X193080045Y7059439D01*
X193089800Y7060400D01*
X193097656Y7059779D01*
G37*
G36*
X186701639Y4519027D02*
G01*
X186710902Y4515822D01*
X186719361Y4510871D01*
X186726693Y4504365D01*
X186732614Y4496554D01*
X186736898Y4487738D01*
X186739379Y4478256D01*
X186740000Y4470400D01*
X186740000Y609600D01*
X186739039Y599845D01*
X186736194Y590466D01*
X186731573Y581821D01*
X186725355Y574245D01*
X186717779Y568027D01*
X186709134Y563406D01*
X186699755Y560561D01*
X186690000Y559600D01*
X186682144Y560221D01*
X182211744Y1271421D01*
X182202262Y1273902D01*
X182193446Y1278186D01*
X182185635Y1284107D01*
X182180406Y1290000D01*
X182140000Y1290000D01*
X182140000Y3790000D01*
X182180506Y3790000D01*
X182184245Y3794555D01*
X182191821Y3800773D01*
X182200466Y3805394D01*
X182211744Y3808579D01*
X186682144Y4519779D01*
X186691929Y4520363D01*
X186701639Y4519027D01*
G37*
G36*
X212147656Y7059779D02*
G01*
X216618056Y6348579D01*
X216627538Y6346098D01*
X216636354Y6341814D01*
X216644165Y6335893D01*
X216649394Y6330000D01*
X216666000Y6330000D01*
X216666000Y3830000D01*
X216649294Y3830000D01*
X216645555Y3825445D01*
X216637979Y3819227D01*
X216629334Y3814606D01*
X216618056Y3811421D01*
X212147656Y3100221D01*
X212137871Y3099637D01*
X212128161Y3100973D01*
X212118898Y3104178D01*
X212110439Y3109129D01*
X212103107Y3115635D01*
X212097186Y3123446D01*
X212092902Y3132262D01*
X212090421Y3141744D01*
X212089800Y3149600D01*
X212089800Y7010400D01*
X212090761Y7020155D01*
X212093606Y7029534D01*
X212098227Y7038179D01*
X212104445Y7045755D01*
X212112021Y7051973D01*
X212120666Y7056594D01*
X212130045Y7059439D01*
X212139800Y7060400D01*
X212147656Y7059779D01*
G37*
G36*
X205751639Y4519027D02*
G01*
X205760902Y4515822D01*
X205769361Y4510871D01*
X205776693Y4504365D01*
X205782614Y4496554D01*
X205786898Y4487738D01*
X205789379Y4478256D01*
X205790000Y4470400D01*
X205790000Y609600D01*
X205789039Y599845D01*
X205786194Y590466D01*
X205781573Y581821D01*
X205775355Y574245D01*
X205767779Y568027D01*
X205759134Y563406D01*
X205749755Y560561D01*
X205740000Y559600D01*
X205732144Y560221D01*
X201261744Y1271421D01*
X201252262Y1273902D01*
X201243446Y1278186D01*
X201235635Y1284107D01*
X201230406Y1290000D01*
X201190000Y1290000D01*
X201190000Y3790000D01*
X201230506Y3790000D01*
X201234245Y3794555D01*
X201241821Y3800773D01*
X201250466Y3805394D01*
X201261744Y3808579D01*
X205732144Y4519779D01*
X205741929Y4520363D01*
X205751639Y4519027D01*
G37*
G36*
X231197656Y7059779D02*
G01*
X235668056Y6348579D01*
X235677538Y6346098D01*
X235686354Y6341814D01*
X235694165Y6335893D01*
X235699394Y6330000D01*
X235716000Y6330000D01*
X235716000Y3830000D01*
X235699294Y3830000D01*
X235695555Y3825445D01*
X235687979Y3819227D01*
X235679334Y3814606D01*
X235668056Y3811421D01*
X231197656Y3100221D01*
X231187871Y3099637D01*
X231178161Y3100973D01*
X231168898Y3104178D01*
X231160439Y3109129D01*
X231153107Y3115635D01*
X231147186Y3123446D01*
X231142902Y3132262D01*
X231140421Y3141744D01*
X231139800Y3149600D01*
X231139800Y7010400D01*
X231140761Y7020155D01*
X231143606Y7029534D01*
X231148227Y7038179D01*
X231154445Y7045755D01*
X231162021Y7051973D01*
X231170666Y7056594D01*
X231180045Y7059439D01*
X231189800Y7060400D01*
X231197656Y7059779D01*
G37*
G36*
X224801639Y4519027D02*
G01*
X224810902Y4515822D01*
X224819361Y4510871D01*
X224826693Y4504365D01*
X224832614Y4496554D01*
X224836898Y4487738D01*
X224839379Y4478256D01*
X224840000Y4470400D01*
X224840000Y609600D01*
X224839039Y599845D01*
X224836194Y590466D01*
X224831573Y581821D01*
X224825355Y574245D01*
X224817779Y568027D01*
X224809134Y563406D01*
X224799755Y560561D01*
X224790000Y559600D01*
X224782144Y560221D01*
X220311744Y1271421D01*
X220302262Y1273902D01*
X220293446Y1278186D01*
X220285635Y1284107D01*
X220280406Y1290000D01*
X220240000Y1290000D01*
X220240000Y3790000D01*
X220280506Y3790000D01*
X220284245Y3794555D01*
X220291821Y3800773D01*
X220300466Y3805394D01*
X220311744Y3808579D01*
X224782144Y4519779D01*
X224791929Y4520363D01*
X224801639Y4519027D01*
G37*
G36*
X259772656Y7059779D02*
G01*
X264243056Y6348579D01*
X264252538Y6346098D01*
X264261354Y6341814D01*
X264269165Y6335893D01*
X264274394Y6330000D01*
X264291000Y6330000D01*
X264291000Y3830000D01*
X264274294Y3830000D01*
X264270555Y3825445D01*
X264262979Y3819227D01*
X264254334Y3814606D01*
X264243056Y3811421D01*
X259772656Y3100221D01*
X259762871Y3099637D01*
X259753161Y3100973D01*
X259743898Y3104178D01*
X259735439Y3109129D01*
X259728107Y3115635D01*
X259722186Y3123446D01*
X259717902Y3132262D01*
X259715421Y3141744D01*
X259714800Y3149600D01*
X259714800Y7010400D01*
X259715761Y7020155D01*
X259718606Y7029534D01*
X259723227Y7038179D01*
X259729445Y7045755D01*
X259737021Y7051973D01*
X259745666Y7056594D01*
X259755045Y7059439D01*
X259764800Y7060400D01*
X259772656Y7059779D01*
G37*
G36*
X253376639Y4519027D02*
G01*
X253385902Y4515822D01*
X253394361Y4510871D01*
X253401693Y4504365D01*
X253407614Y4496554D01*
X253411898Y4487738D01*
X253414379Y4478256D01*
X253415000Y4470400D01*
X253415000Y609600D01*
X253414039Y599845D01*
X253411194Y590466D01*
X253406573Y581821D01*
X253400355Y574245D01*
X253392779Y568027D01*
X253384134Y563406D01*
X253374755Y560561D01*
X253365000Y559600D01*
X253357144Y560221D01*
X248886744Y1271421D01*
X248877262Y1273902D01*
X248868446Y1278186D01*
X248860635Y1284107D01*
X248855406Y1290000D01*
X248815000Y1290000D01*
X248815000Y3790000D01*
X248855506Y3790000D01*
X248859245Y3794555D01*
X248866821Y3800773D01*
X248875466Y3805394D01*
X248886744Y3808579D01*
X253357144Y4519779D01*
X253366929Y4520363D01*
X253376639Y4519027D01*
G37*
G36*
X964139Y-14530973D02*
G01*
X973402Y-14534178D01*
X981861Y-14539129D01*
X989193Y-14545635D01*
X995114Y-14553446D01*
X999398Y-14562262D01*
X1001879Y-14571744D01*
X1002500Y-14579600D01*
X1002500Y-18440400D01*
X1001539Y-18450155D01*
X998694Y-18459534D01*
X994073Y-18468179D01*
X987855Y-18475755D01*
X980279Y-18481973D01*
X971634Y-18486594D01*
X962255Y-18489439D01*
X952500Y-18490400D01*
X944644Y-18489779D01*
X-3525756Y-17778579D01*
X-3535238Y-17776098D01*
X-3544054Y-17771814D01*
X-3551865Y-17765893D01*
X-3557094Y-17760000D01*
X-3597500Y-17760000D01*
X-3597500Y-15260000D01*
X-3556994Y-15260000D01*
X-3553255Y-15255445D01*
X-3545679Y-15249227D01*
X-3537034Y-15244606D01*
X-3525756Y-15241421D01*
X944644Y-14530221D01*
X954429Y-14529637D01*
X964139Y-14530973D01*
G37*
G36*
X7360156Y-11990221D02*
G01*
X11830556Y-12701421D01*
X11840038Y-12703902D01*
X11848854Y-12708186D01*
X11856665Y-12714107D01*
X11861894Y-12720000D01*
X11878500Y-12720000D01*
X11878500Y-15220000D01*
X11861794Y-15220000D01*
X11858055Y-15224555D01*
X11850479Y-15230773D01*
X11841834Y-15235394D01*
X11830556Y-15238579D01*
X7360156Y-15949779D01*
X7350371Y-15950363D01*
X7340661Y-15949027D01*
X7331398Y-15945822D01*
X7322939Y-15940871D01*
X7315607Y-15934365D01*
X7309686Y-15926554D01*
X7305402Y-15917738D01*
X7302921Y-15908256D01*
X7302300Y-15900400D01*
X7302300Y-12039600D01*
X7303261Y-12029845D01*
X7306106Y-12020466D01*
X7310727Y-12011821D01*
X7316945Y-12004245D01*
X7324521Y-11998027D01*
X7333166Y-11993406D01*
X7342545Y-11990561D01*
X7352300Y-11989600D01*
X7360156Y-11990221D01*
G37*
G36*
X31172656Y-11990221D02*
G01*
X35643056Y-12701421D01*
X35652538Y-12703902D01*
X35661354Y-12708186D01*
X35669165Y-12714107D01*
X35674394Y-12720000D01*
X35691000Y-12720000D01*
X35691000Y-15220000D01*
X35674294Y-15220000D01*
X35670555Y-15224555D01*
X35662979Y-15230773D01*
X35654334Y-15235394D01*
X35643056Y-15238579D01*
X31172656Y-15949779D01*
X31162871Y-15950363D01*
X31153161Y-15949027D01*
X31143898Y-15945822D01*
X31135439Y-15940871D01*
X31128107Y-15934365D01*
X31122186Y-15926554D01*
X31117902Y-15917738D01*
X31115421Y-15908256D01*
X31114800Y-15900400D01*
X31114800Y-12039600D01*
X31115761Y-12029845D01*
X31118606Y-12020466D01*
X31123227Y-12011821D01*
X31129445Y-12004245D01*
X31137021Y-11998027D01*
X31145666Y-11993406D01*
X31155045Y-11990561D01*
X31164800Y-11989600D01*
X31172656Y-11990221D01*
G37*
G36*
X24776639Y-14530973D02*
G01*
X24785902Y-14534178D01*
X24794361Y-14539129D01*
X24801693Y-14545635D01*
X24807614Y-14553446D01*
X24811898Y-14562262D01*
X24814379Y-14571744D01*
X24815000Y-14579600D01*
X24815000Y-18440400D01*
X24814039Y-18450155D01*
X24811194Y-18459534D01*
X24806573Y-18468179D01*
X24800355Y-18475755D01*
X24792779Y-18481973D01*
X24784134Y-18486594D01*
X24774755Y-18489439D01*
X24765000Y-18490400D01*
X24757144Y-18489779D01*
X20286744Y-17778579D01*
X20277262Y-17776098D01*
X20268446Y-17771814D01*
X20260635Y-17765893D01*
X20255406Y-17760000D01*
X20215000Y-17760000D01*
X20215000Y-15260000D01*
X20255506Y-15260000D01*
X20259245Y-15255445D01*
X20266821Y-15249227D01*
X20275466Y-15244606D01*
X20286744Y-15241421D01*
X24757144Y-14530221D01*
X24766929Y-14529637D01*
X24776639Y-14530973D01*
G37*
G36*
X50222656Y-11990221D02*
G01*
X54693056Y-12701421D01*
X54702538Y-12703902D01*
X54711354Y-12708186D01*
X54719165Y-12714107D01*
X54724394Y-12720000D01*
X54741000Y-12720000D01*
X54741000Y-15220000D01*
X54724294Y-15220000D01*
X54720555Y-15224555D01*
X54712979Y-15230773D01*
X54704334Y-15235394D01*
X54693056Y-15238579D01*
X50222656Y-15949779D01*
X50212871Y-15950363D01*
X50203161Y-15949027D01*
X50193898Y-15945822D01*
X50185439Y-15940871D01*
X50178107Y-15934365D01*
X50172186Y-15926554D01*
X50167902Y-15917738D01*
X50165421Y-15908256D01*
X50164800Y-15900400D01*
X50164800Y-12039600D01*
X50165761Y-12029845D01*
X50168606Y-12020466D01*
X50173227Y-12011821D01*
X50179445Y-12004245D01*
X50187021Y-11998027D01*
X50195666Y-11993406D01*
X50205045Y-11990561D01*
X50214800Y-11989600D01*
X50222656Y-11990221D01*
G37*
G36*
X43826639Y-14530973D02*
G01*
X43835902Y-14534178D01*
X43844361Y-14539129D01*
X43851693Y-14545635D01*
X43857614Y-14553446D01*
X43861898Y-14562262D01*
X43864379Y-14571744D01*
X43865000Y-14579600D01*
X43865000Y-18440400D01*
X43864039Y-18450155D01*
X43861194Y-18459534D01*
X43856573Y-18468179D01*
X43850355Y-18475755D01*
X43842779Y-18481973D01*
X43834134Y-18486594D01*
X43824755Y-18489439D01*
X43815000Y-18490400D01*
X43807144Y-18489779D01*
X39336744Y-17778579D01*
X39327262Y-17776098D01*
X39318446Y-17771814D01*
X39310635Y-17765893D01*
X39305406Y-17760000D01*
X39265000Y-17760000D01*
X39265000Y-15260000D01*
X39305506Y-15260000D01*
X39309245Y-15255445D01*
X39316821Y-15249227D01*
X39325466Y-15244606D01*
X39336744Y-15241421D01*
X43807144Y-14530221D01*
X43816929Y-14529637D01*
X43826639Y-14530973D01*
G37*
G36*
X69272656Y-11990221D02*
G01*
X73743056Y-12701421D01*
X73752538Y-12703902D01*
X73761354Y-12708186D01*
X73769165Y-12714107D01*
X73774394Y-12720000D01*
X73791000Y-12720000D01*
X73791000Y-15220000D01*
X73774294Y-15220000D01*
X73770555Y-15224555D01*
X73762979Y-15230773D01*
X73754334Y-15235394D01*
X73743056Y-15238579D01*
X69272656Y-15949779D01*
X69262871Y-15950363D01*
X69253161Y-15949027D01*
X69243898Y-15945822D01*
X69235439Y-15940871D01*
X69228107Y-15934365D01*
X69222186Y-15926554D01*
X69217902Y-15917738D01*
X69215421Y-15908256D01*
X69214800Y-15900400D01*
X69214800Y-12039600D01*
X69215761Y-12029845D01*
X69218606Y-12020466D01*
X69223227Y-12011821D01*
X69229445Y-12004245D01*
X69237021Y-11998027D01*
X69245666Y-11993406D01*
X69255045Y-11990561D01*
X69264800Y-11989600D01*
X69272656Y-11990221D01*
G37*
G36*
X62876639Y-14530973D02*
G01*
X62885902Y-14534178D01*
X62894361Y-14539129D01*
X62901693Y-14545635D01*
X62907614Y-14553446D01*
X62911898Y-14562262D01*
X62914379Y-14571744D01*
X62915000Y-14579600D01*
X62915000Y-18440400D01*
X62914039Y-18450155D01*
X62911194Y-18459534D01*
X62906573Y-18468179D01*
X62900355Y-18475755D01*
X62892779Y-18481973D01*
X62884134Y-18486594D01*
X62874755Y-18489439D01*
X62865000Y-18490400D01*
X62857144Y-18489779D01*
X58386744Y-17778579D01*
X58377262Y-17776098D01*
X58368446Y-17771814D01*
X58360635Y-17765893D01*
X58355406Y-17760000D01*
X58315000Y-17760000D01*
X58315000Y-15260000D01*
X58355506Y-15260000D01*
X58359245Y-15255445D01*
X58366821Y-15249227D01*
X58375466Y-15244606D01*
X58386744Y-15241421D01*
X62857144Y-14530221D01*
X62866929Y-14529637D01*
X62876639Y-14530973D01*
G37*
G36*
X88322656Y-11990221D02*
G01*
X92793056Y-12701421D01*
X92802538Y-12703902D01*
X92811354Y-12708186D01*
X92819165Y-12714107D01*
X92824394Y-12720000D01*
X92841000Y-12720000D01*
X92841000Y-15220000D01*
X92824294Y-15220000D01*
X92820555Y-15224555D01*
X92812979Y-15230773D01*
X92804334Y-15235394D01*
X92793056Y-15238579D01*
X88322656Y-15949779D01*
X88312871Y-15950363D01*
X88303161Y-15949027D01*
X88293898Y-15945822D01*
X88285439Y-15940871D01*
X88278107Y-15934365D01*
X88272186Y-15926554D01*
X88267902Y-15917738D01*
X88265421Y-15908256D01*
X88264800Y-15900400D01*
X88264800Y-12039600D01*
X88265761Y-12029845D01*
X88268606Y-12020466D01*
X88273227Y-12011821D01*
X88279445Y-12004245D01*
X88287021Y-11998027D01*
X88295666Y-11993406D01*
X88305045Y-11990561D01*
X88314800Y-11989600D01*
X88322656Y-11990221D01*
G37*
G36*
X81926639Y-14530973D02*
G01*
X81935902Y-14534178D01*
X81944361Y-14539129D01*
X81951693Y-14545635D01*
X81957614Y-14553446D01*
X81961898Y-14562262D01*
X81964379Y-14571744D01*
X81965000Y-14579600D01*
X81965000Y-18440400D01*
X81964039Y-18450155D01*
X81961194Y-18459534D01*
X81956573Y-18468179D01*
X81950355Y-18475755D01*
X81942779Y-18481973D01*
X81934134Y-18486594D01*
X81924755Y-18489439D01*
X81915000Y-18490400D01*
X81907144Y-18489779D01*
X77436744Y-17778579D01*
X77427262Y-17776098D01*
X77418446Y-17771814D01*
X77410635Y-17765893D01*
X77405406Y-17760000D01*
X77365000Y-17760000D01*
X77365000Y-15260000D01*
X77405506Y-15260000D01*
X77409245Y-15255445D01*
X77416821Y-15249227D01*
X77425466Y-15244606D01*
X77436744Y-15241421D01*
X81907144Y-14530221D01*
X81916929Y-14529637D01*
X81926639Y-14530973D01*
G37*
G36*
X107372656Y-11990221D02*
G01*
X111843056Y-12701421D01*
X111852538Y-12703902D01*
X111861354Y-12708186D01*
X111869165Y-12714107D01*
X111874394Y-12720000D01*
X111891000Y-12720000D01*
X111891000Y-15220000D01*
X111874294Y-15220000D01*
X111870555Y-15224555D01*
X111862979Y-15230773D01*
X111854334Y-15235394D01*
X111843056Y-15238579D01*
X107372656Y-15949779D01*
X107362871Y-15950363D01*
X107353161Y-15949027D01*
X107343898Y-15945822D01*
X107335439Y-15940871D01*
X107328107Y-15934365D01*
X107322186Y-15926554D01*
X107317902Y-15917738D01*
X107315421Y-15908256D01*
X107314800Y-15900400D01*
X107314800Y-12039600D01*
X107315761Y-12029845D01*
X107318606Y-12020466D01*
X107323227Y-12011821D01*
X107329445Y-12004245D01*
X107337021Y-11998027D01*
X107345666Y-11993406D01*
X107355045Y-11990561D01*
X107364800Y-11989600D01*
X107372656Y-11990221D01*
G37*
G36*
X100976639Y-14530973D02*
G01*
X100985902Y-14534178D01*
X100994361Y-14539129D01*
X101001693Y-14545635D01*
X101007614Y-14553446D01*
X101011898Y-14562262D01*
X101014379Y-14571744D01*
X101015000Y-14579600D01*
X101015000Y-18440400D01*
X101014039Y-18450155D01*
X101011194Y-18459534D01*
X101006573Y-18468179D01*
X101000355Y-18475755D01*
X100992779Y-18481973D01*
X100984134Y-18486594D01*
X100974755Y-18489439D01*
X100965000Y-18490400D01*
X100957144Y-18489779D01*
X96486744Y-17778579D01*
X96477262Y-17776098D01*
X96468446Y-17771814D01*
X96460635Y-17765893D01*
X96455406Y-17760000D01*
X96415000Y-17760000D01*
X96415000Y-15260000D01*
X96455506Y-15260000D01*
X96459245Y-15255445D01*
X96466821Y-15249227D01*
X96475466Y-15244606D01*
X96486744Y-15241421D01*
X100957144Y-14530221D01*
X100966929Y-14529637D01*
X100976639Y-14530973D01*
G37*
G36*
X126422656Y-11990221D02*
G01*
X130893056Y-12701421D01*
X130902538Y-12703902D01*
X130911354Y-12708186D01*
X130919165Y-12714107D01*
X130924394Y-12720000D01*
X130941000Y-12720000D01*
X130941000Y-15220000D01*
X130924294Y-15220000D01*
X130920555Y-15224555D01*
X130912979Y-15230773D01*
X130904334Y-15235394D01*
X130893056Y-15238579D01*
X126422656Y-15949779D01*
X126412871Y-15950363D01*
X126403161Y-15949027D01*
X126393898Y-15945822D01*
X126385439Y-15940871D01*
X126378107Y-15934365D01*
X126372186Y-15926554D01*
X126367902Y-15917738D01*
X126365421Y-15908256D01*
X126364800Y-15900400D01*
X126364800Y-12039600D01*
X126365761Y-12029845D01*
X126368606Y-12020466D01*
X126373227Y-12011821D01*
X126379445Y-12004245D01*
X126387021Y-11998027D01*
X126395666Y-11993406D01*
X126405045Y-11990561D01*
X126414800Y-11989600D01*
X126422656Y-11990221D01*
G37*
G36*
X120026639Y-14530973D02*
G01*
X120035902Y-14534178D01*
X120044361Y-14539129D01*
X120051693Y-14545635D01*
X120057614Y-14553446D01*
X120061898Y-14562262D01*
X120064379Y-14571744D01*
X120065000Y-14579600D01*
X120065000Y-18440400D01*
X120064039Y-18450155D01*
X120061194Y-18459534D01*
X120056573Y-18468179D01*
X120050355Y-18475755D01*
X120042779Y-18481973D01*
X120034134Y-18486594D01*
X120024755Y-18489439D01*
X120015000Y-18490400D01*
X120007144Y-18489779D01*
X115536744Y-17778579D01*
X115527262Y-17776098D01*
X115518446Y-17771814D01*
X115510635Y-17765893D01*
X115505406Y-17760000D01*
X115465000Y-17760000D01*
X115465000Y-15260000D01*
X115505506Y-15260000D01*
X115509245Y-15255445D01*
X115516821Y-15249227D01*
X115525466Y-15244606D01*
X115536744Y-15241421D01*
X120007144Y-14530221D01*
X120016929Y-14529637D01*
X120026639Y-14530973D01*
G37*
G36*
X145472656Y-11990221D02*
G01*
X149943056Y-12701421D01*
X149952538Y-12703902D01*
X149961354Y-12708186D01*
X149969165Y-12714107D01*
X149974394Y-12720000D01*
X149991000Y-12720000D01*
X149991000Y-15220000D01*
X149974294Y-15220000D01*
X149970555Y-15224555D01*
X149962979Y-15230773D01*
X149954334Y-15235394D01*
X149943056Y-15238579D01*
X145472656Y-15949779D01*
X145462871Y-15950363D01*
X145453161Y-15949027D01*
X145443898Y-15945822D01*
X145435439Y-15940871D01*
X145428107Y-15934365D01*
X145422186Y-15926554D01*
X145417902Y-15917738D01*
X145415421Y-15908256D01*
X145414800Y-15900400D01*
X145414800Y-12039600D01*
X145415761Y-12029845D01*
X145418606Y-12020466D01*
X145423227Y-12011821D01*
X145429445Y-12004245D01*
X145437021Y-11998027D01*
X145445666Y-11993406D01*
X145455045Y-11990561D01*
X145464800Y-11989600D01*
X145472656Y-11990221D01*
G37*
G36*
X139076639Y-14530973D02*
G01*
X139085902Y-14534178D01*
X139094361Y-14539129D01*
X139101693Y-14545635D01*
X139107614Y-14553446D01*
X139111898Y-14562262D01*
X139114379Y-14571744D01*
X139115000Y-14579600D01*
X139115000Y-18440400D01*
X139114039Y-18450155D01*
X139111194Y-18459534D01*
X139106573Y-18468179D01*
X139100355Y-18475755D01*
X139092779Y-18481973D01*
X139084134Y-18486594D01*
X139074755Y-18489439D01*
X139065000Y-18490400D01*
X139057144Y-18489779D01*
X134586744Y-17778579D01*
X134577262Y-17776098D01*
X134568446Y-17771814D01*
X134560635Y-17765893D01*
X134555406Y-17760000D01*
X134515000Y-17760000D01*
X134515000Y-15260000D01*
X134555506Y-15260000D01*
X134559245Y-15255445D01*
X134566821Y-15249227D01*
X134575466Y-15244606D01*
X134586744Y-15241421D01*
X139057144Y-14530221D01*
X139066929Y-14529637D01*
X139076639Y-14530973D01*
G37*
G36*
X164522656Y-11990221D02*
G01*
X168993056Y-12701421D01*
X169002538Y-12703902D01*
X169011354Y-12708186D01*
X169019165Y-12714107D01*
X169024394Y-12720000D01*
X169041000Y-12720000D01*
X169041000Y-15220000D01*
X169024294Y-15220000D01*
X169020555Y-15224555D01*
X169012979Y-15230773D01*
X169004334Y-15235394D01*
X168993056Y-15238579D01*
X164522656Y-15949779D01*
X164512871Y-15950363D01*
X164503161Y-15949027D01*
X164493898Y-15945822D01*
X164485439Y-15940871D01*
X164478107Y-15934365D01*
X164472186Y-15926554D01*
X164467902Y-15917738D01*
X164465421Y-15908256D01*
X164464800Y-15900400D01*
X164464800Y-12039600D01*
X164465761Y-12029845D01*
X164468606Y-12020466D01*
X164473227Y-12011821D01*
X164479445Y-12004245D01*
X164487021Y-11998027D01*
X164495666Y-11993406D01*
X164505045Y-11990561D01*
X164514800Y-11989600D01*
X164522656Y-11990221D01*
G37*
G36*
X158126639Y-14530973D02*
G01*
X158135902Y-14534178D01*
X158144361Y-14539129D01*
X158151693Y-14545635D01*
X158157614Y-14553446D01*
X158161898Y-14562262D01*
X158164379Y-14571744D01*
X158165000Y-14579600D01*
X158165000Y-18440400D01*
X158164039Y-18450155D01*
X158161194Y-18459534D01*
X158156573Y-18468179D01*
X158150355Y-18475755D01*
X158142779Y-18481973D01*
X158134134Y-18486594D01*
X158124755Y-18489439D01*
X158115000Y-18490400D01*
X158107144Y-18489779D01*
X153636744Y-17778579D01*
X153627262Y-17776098D01*
X153618446Y-17771814D01*
X153610635Y-17765893D01*
X153605406Y-17760000D01*
X153565000Y-17760000D01*
X153565000Y-15260000D01*
X153605506Y-15260000D01*
X153609245Y-15255445D01*
X153616821Y-15249227D01*
X153625466Y-15244606D01*
X153636744Y-15241421D01*
X158107144Y-14530221D01*
X158116929Y-14529637D01*
X158126639Y-14530973D01*
G37*
G36*
X183572656Y-11990221D02*
G01*
X188043056Y-12701421D01*
X188052538Y-12703902D01*
X188061354Y-12708186D01*
X188069165Y-12714107D01*
X188074394Y-12720000D01*
X188091000Y-12720000D01*
X188091000Y-15220000D01*
X188074294Y-15220000D01*
X188070555Y-15224555D01*
X188062979Y-15230773D01*
X188054334Y-15235394D01*
X188043056Y-15238579D01*
X183572656Y-15949779D01*
X183562871Y-15950363D01*
X183553161Y-15949027D01*
X183543898Y-15945822D01*
X183535439Y-15940871D01*
X183528107Y-15934365D01*
X183522186Y-15926554D01*
X183517902Y-15917738D01*
X183515421Y-15908256D01*
X183514800Y-15900400D01*
X183514800Y-12039600D01*
X183515761Y-12029845D01*
X183518606Y-12020466D01*
X183523227Y-12011821D01*
X183529445Y-12004245D01*
X183537021Y-11998027D01*
X183545666Y-11993406D01*
X183555045Y-11990561D01*
X183564800Y-11989600D01*
X183572656Y-11990221D01*
G37*
G36*
X177176639Y-14530973D02*
G01*
X177185902Y-14534178D01*
X177194361Y-14539129D01*
X177201693Y-14545635D01*
X177207614Y-14553446D01*
X177211898Y-14562262D01*
X177214379Y-14571744D01*
X177215000Y-14579600D01*
X177215000Y-18440400D01*
X177214039Y-18450155D01*
X177211194Y-18459534D01*
X177206573Y-18468179D01*
X177200355Y-18475755D01*
X177192779Y-18481973D01*
X177184134Y-18486594D01*
X177174755Y-18489439D01*
X177165000Y-18490400D01*
X177157144Y-18489779D01*
X172686744Y-17778579D01*
X172677262Y-17776098D01*
X172668446Y-17771814D01*
X172660635Y-17765893D01*
X172655406Y-17760000D01*
X172615000Y-17760000D01*
X172615000Y-15260000D01*
X172655506Y-15260000D01*
X172659245Y-15255445D01*
X172666821Y-15249227D01*
X172675466Y-15244606D01*
X172686744Y-15241421D01*
X177157144Y-14530221D01*
X177166929Y-14529637D01*
X177176639Y-14530973D01*
G37*
G36*
X202622656Y-11990221D02*
G01*
X207093056Y-12701421D01*
X207102538Y-12703902D01*
X207111354Y-12708186D01*
X207119165Y-12714107D01*
X207124394Y-12720000D01*
X207141000Y-12720000D01*
X207141000Y-15220000D01*
X207124294Y-15220000D01*
X207120555Y-15224555D01*
X207112979Y-15230773D01*
X207104334Y-15235394D01*
X207093056Y-15238579D01*
X202622656Y-15949779D01*
X202612871Y-15950363D01*
X202603161Y-15949027D01*
X202593898Y-15945822D01*
X202585439Y-15940871D01*
X202578107Y-15934365D01*
X202572186Y-15926554D01*
X202567902Y-15917738D01*
X202565421Y-15908256D01*
X202564800Y-15900400D01*
X202564800Y-12039600D01*
X202565761Y-12029845D01*
X202568606Y-12020466D01*
X202573227Y-12011821D01*
X202579445Y-12004245D01*
X202587021Y-11998027D01*
X202595666Y-11993406D01*
X202605045Y-11990561D01*
X202614800Y-11989600D01*
X202622656Y-11990221D01*
G37*
G36*
X196226639Y-14530973D02*
G01*
X196235902Y-14534178D01*
X196244361Y-14539129D01*
X196251693Y-14545635D01*
X196257614Y-14553446D01*
X196261898Y-14562262D01*
X196264379Y-14571744D01*
X196265000Y-14579600D01*
X196265000Y-18440400D01*
X196264039Y-18450155D01*
X196261194Y-18459534D01*
X196256573Y-18468179D01*
X196250355Y-18475755D01*
X196242779Y-18481973D01*
X196234134Y-18486594D01*
X196224755Y-18489439D01*
X196215000Y-18490400D01*
X196207144Y-18489779D01*
X191736744Y-17778579D01*
X191727262Y-17776098D01*
X191718446Y-17771814D01*
X191710635Y-17765893D01*
X191705406Y-17760000D01*
X191665000Y-17760000D01*
X191665000Y-15260000D01*
X191705506Y-15260000D01*
X191709245Y-15255445D01*
X191716821Y-15249227D01*
X191725466Y-15244606D01*
X191736744Y-15241421D01*
X196207144Y-14530221D01*
X196216929Y-14529637D01*
X196226639Y-14530973D01*
G37*
G36*
X221672656Y-11990221D02*
G01*
X226143056Y-12701421D01*
X226152538Y-12703902D01*
X226161354Y-12708186D01*
X226169165Y-12714107D01*
X226174394Y-12720000D01*
X226191000Y-12720000D01*
X226191000Y-15220000D01*
X226174294Y-15220000D01*
X226170555Y-15224555D01*
X226162979Y-15230773D01*
X226154334Y-15235394D01*
X226143056Y-15238579D01*
X221672656Y-15949779D01*
X221662871Y-15950363D01*
X221653161Y-15949027D01*
X221643898Y-15945822D01*
X221635439Y-15940871D01*
X221628107Y-15934365D01*
X221622186Y-15926554D01*
X221617902Y-15917738D01*
X221615421Y-15908256D01*
X221614800Y-15900400D01*
X221614800Y-12039600D01*
X221615761Y-12029845D01*
X221618606Y-12020466D01*
X221623227Y-12011821D01*
X221629445Y-12004245D01*
X221637021Y-11998027D01*
X221645666Y-11993406D01*
X221655045Y-11990561D01*
X221664800Y-11989600D01*
X221672656Y-11990221D01*
G37*
G36*
X215276639Y-14530973D02*
G01*
X215285902Y-14534178D01*
X215294361Y-14539129D01*
X215301693Y-14545635D01*
X215307614Y-14553446D01*
X215311898Y-14562262D01*
X215314379Y-14571744D01*
X215315000Y-14579600D01*
X215315000Y-18440400D01*
X215314039Y-18450155D01*
X215311194Y-18459534D01*
X215306573Y-18468179D01*
X215300355Y-18475755D01*
X215292779Y-18481973D01*
X215284134Y-18486594D01*
X215274755Y-18489439D01*
X215265000Y-18490400D01*
X215257144Y-18489779D01*
X210786744Y-17778579D01*
X210777262Y-17776098D01*
X210768446Y-17771814D01*
X210760635Y-17765893D01*
X210755406Y-17760000D01*
X210715000Y-17760000D01*
X210715000Y-15260000D01*
X210755506Y-15260000D01*
X210759245Y-15255445D01*
X210766821Y-15249227D01*
X210775466Y-15244606D01*
X210786744Y-15241421D01*
X215257144Y-14530221D01*
X215266929Y-14529637D01*
X215276639Y-14530973D01*
G37*
G36*
X240722656Y-11990221D02*
G01*
X245193056Y-12701421D01*
X245202538Y-12703902D01*
X245211354Y-12708186D01*
X245219165Y-12714107D01*
X245224394Y-12720000D01*
X245241000Y-12720000D01*
X245241000Y-15220000D01*
X245224294Y-15220000D01*
X245220555Y-15224555D01*
X245212979Y-15230773D01*
X245204334Y-15235394D01*
X245193056Y-15238579D01*
X240722656Y-15949779D01*
X240712871Y-15950363D01*
X240703161Y-15949027D01*
X240693898Y-15945822D01*
X240685439Y-15940871D01*
X240678107Y-15934365D01*
X240672186Y-15926554D01*
X240667902Y-15917738D01*
X240665421Y-15908256D01*
X240664800Y-15900400D01*
X240664800Y-12039600D01*
X240665761Y-12029845D01*
X240668606Y-12020466D01*
X240673227Y-12011821D01*
X240679445Y-12004245D01*
X240687021Y-11998027D01*
X240695666Y-11993406D01*
X240705045Y-11990561D01*
X240714800Y-11989600D01*
X240722656Y-11990221D01*
G37*
G36*
X234326639Y-14530973D02*
G01*
X234335902Y-14534178D01*
X234344361Y-14539129D01*
X234351693Y-14545635D01*
X234357614Y-14553446D01*
X234361898Y-14562262D01*
X234364379Y-14571744D01*
X234365000Y-14579600D01*
X234365000Y-18440400D01*
X234364039Y-18450155D01*
X234361194Y-18459534D01*
X234356573Y-18468179D01*
X234350355Y-18475755D01*
X234342779Y-18481973D01*
X234334134Y-18486594D01*
X234324755Y-18489439D01*
X234315000Y-18490400D01*
X234307144Y-18489779D01*
X229836744Y-17778579D01*
X229827262Y-17776098D01*
X229818446Y-17771814D01*
X229810635Y-17765893D01*
X229805406Y-17760000D01*
X229765000Y-17760000D01*
X229765000Y-15260000D01*
X229805506Y-15260000D01*
X229809245Y-15255445D01*
X229816821Y-15249227D01*
X229825466Y-15244606D01*
X229836744Y-15241421D01*
X234307144Y-14530221D01*
X234316929Y-14529637D01*
X234326639Y-14530973D01*
G37*
G36*
X258139139Y-14530973D02*
G01*
X258148402Y-14534178D01*
X258156861Y-14539129D01*
X258164193Y-14545635D01*
X258170114Y-14553446D01*
X258174398Y-14562262D01*
X258176879Y-14571744D01*
X258177500Y-14579600D01*
X258177500Y-18440400D01*
X258176539Y-18450155D01*
X258173694Y-18459534D01*
X258169073Y-18468179D01*
X258162855Y-18475755D01*
X258155279Y-18481973D01*
X258146634Y-18486594D01*
X258137255Y-18489439D01*
X258127500Y-18490400D01*
X258119644Y-18489779D01*
X253649244Y-17778579D01*
X253639762Y-17776098D01*
X253630946Y-17771814D01*
X253623135Y-17765893D01*
X253617906Y-17760000D01*
X253577500Y-17760000D01*
X253577500Y-15260000D01*
X253618006Y-15260000D01*
X253621745Y-15255445D01*
X253629321Y-15249227D01*
X253637966Y-15244606D01*
X253649244Y-15241421D01*
X258119644Y-14530221D01*
X258129429Y-14529637D01*
X258139139Y-14530973D01*
G37*
G36*
X264535156Y-11990221D02*
G01*
X269005556Y-12701421D01*
X269015038Y-12703902D01*
X269023854Y-12708186D01*
X269031665Y-12714107D01*
X269036894Y-12720000D01*
X269053500Y-12720000D01*
X269053500Y-15220000D01*
X269036794Y-15220000D01*
X269033055Y-15224555D01*
X269025479Y-15230773D01*
X269016834Y-15235394D01*
X269005556Y-15238579D01*
X264535156Y-15949779D01*
X264525371Y-15950363D01*
X264515661Y-15949027D01*
X264506398Y-15945822D01*
X264497939Y-15940871D01*
X264490607Y-15934365D01*
X264484686Y-15926554D01*
X264480402Y-15917738D01*
X264477921Y-15908256D01*
X264477300Y-15900400D01*
X264477300Y-12039600D01*
X264478261Y-12029845D01*
X264481106Y-12020466D01*
X264485727Y-12011821D01*
X264491945Y-12004245D01*
X264499521Y-11998027D01*
X264508166Y-11993406D01*
X264517545Y-11990561D01*
X264527300Y-11989600D01*
X264535156Y-11990221D01*
G37*
G36*
X4546094Y-45159779D02*
G01*
X75694Y-44448579D01*
X66212Y-44446098D01*
X57396Y-44441814D01*
X49585Y-44435893D01*
X44356Y-44430000D01*
X27750Y-44430000D01*
X27750Y-41930000D01*
X44456Y-41930000D01*
X48195Y-41925445D01*
X55771Y-41919227D01*
X64416Y-41914606D01*
X75694Y-41911421D01*
X4546094Y-41200221D01*
X4555879Y-41199637D01*
X4565589Y-41200973D01*
X4574852Y-41204178D01*
X4583311Y-41209129D01*
X4590643Y-41215635D01*
X4596564Y-41223446D01*
X4600848Y-41232262D01*
X4603329Y-41241744D01*
X4603950Y-41249600D01*
X4603950Y-45110400D01*
X4602989Y-45120155D01*
X4600144Y-45129534D01*
X4595523Y-45138179D01*
X4589305Y-45145755D01*
X4581729Y-45151973D01*
X4573084Y-45156594D01*
X4563705Y-45159439D01*
X4553950Y-45160400D01*
X4546094Y-45159779D01*
G37*
G36*
X10942111Y-42619027D02*
G01*
X10932848Y-42615822D01*
X10924389Y-42610871D01*
X10917057Y-42604365D01*
X10911136Y-42596554D01*
X10906852Y-42587738D01*
X10904371Y-42578256D01*
X10903750Y-42570400D01*
X10903750Y-38709600D01*
X10904711Y-38699845D01*
X10907556Y-38690466D01*
X10912177Y-38681821D01*
X10918395Y-38674245D01*
X10925971Y-38668027D01*
X10934616Y-38663406D01*
X10943995Y-38660561D01*
X10953750Y-38659600D01*
X10961606Y-38660221D01*
X15432006Y-39371421D01*
X15441488Y-39373902D01*
X15450304Y-39378186D01*
X15458115Y-39384107D01*
X15463344Y-39390000D01*
X15503750Y-39390000D01*
X15503750Y-41890000D01*
X15463244Y-41890000D01*
X15459505Y-41894555D01*
X15451929Y-41900773D01*
X15443284Y-41905394D01*
X15432006Y-41908579D01*
X10961606Y-42619779D01*
X10951821Y-42620363D01*
X10942111Y-42619027D01*
G37*
G36*
X35935156Y-31040221D02*
G01*
X40405556Y-31751421D01*
X40415038Y-31753902D01*
X40423854Y-31758186D01*
X40431665Y-31764107D01*
X40436894Y-31770000D01*
X40453500Y-31770000D01*
X40453500Y-34270000D01*
X40436794Y-34270000D01*
X40433055Y-34274555D01*
X40425479Y-34280773D01*
X40416834Y-34285394D01*
X40405556Y-34288579D01*
X35935156Y-34999779D01*
X35925371Y-35000363D01*
X35915661Y-34999027D01*
X35906398Y-34995822D01*
X35897939Y-34990871D01*
X35890607Y-34984365D01*
X35884686Y-34976554D01*
X35880402Y-34967738D01*
X35877921Y-34958256D01*
X35877300Y-34950400D01*
X35877300Y-31089600D01*
X35878261Y-31079845D01*
X35881106Y-31070466D01*
X35885727Y-31061821D01*
X35891945Y-31054245D01*
X35899521Y-31048027D01*
X35908166Y-31043406D01*
X35917545Y-31040561D01*
X35927300Y-31039600D01*
X35935156Y-31040221D01*
G37*
G36*
X29539139Y-33580973D02*
G01*
X29548402Y-33584178D01*
X29556861Y-33589129D01*
X29564193Y-33595635D01*
X29570114Y-33603446D01*
X29574398Y-33612262D01*
X29576879Y-33621744D01*
X29577500Y-33629600D01*
X29577500Y-37490400D01*
X29576539Y-37500155D01*
X29573694Y-37509534D01*
X29569073Y-37518179D01*
X29562855Y-37525755D01*
X29555279Y-37531973D01*
X29546634Y-37536594D01*
X29537255Y-37539439D01*
X29527500Y-37540400D01*
X29519644Y-37539779D01*
X25049244Y-36828579D01*
X25039762Y-36826098D01*
X25030946Y-36821814D01*
X25023135Y-36815893D01*
X25017906Y-36810000D01*
X24977500Y-36810000D01*
X24977500Y-34310000D01*
X25018006Y-34310000D01*
X25021745Y-34305445D01*
X25029321Y-34299227D01*
X25037966Y-34294606D01*
X25049244Y-34291421D01*
X29519644Y-33580221D01*
X29529429Y-33579637D01*
X29539139Y-33580973D01*
G37*
G36*
X54985156Y-31040221D02*
G01*
X59455556Y-31751421D01*
X59465038Y-31753902D01*
X59473854Y-31758186D01*
X59481665Y-31764107D01*
X59486894Y-31770000D01*
X59503500Y-31770000D01*
X59503500Y-34270000D01*
X59486794Y-34270000D01*
X59483055Y-34274555D01*
X59475479Y-34280773D01*
X59466834Y-34285394D01*
X59455556Y-34288579D01*
X54985156Y-34999779D01*
X54975371Y-35000363D01*
X54965661Y-34999027D01*
X54956398Y-34995822D01*
X54947939Y-34990871D01*
X54940607Y-34984365D01*
X54934686Y-34976554D01*
X54930402Y-34967738D01*
X54927921Y-34958256D01*
X54927300Y-34950400D01*
X54927300Y-31089600D01*
X54928261Y-31079845D01*
X54931106Y-31070466D01*
X54935727Y-31061821D01*
X54941945Y-31054245D01*
X54949521Y-31048027D01*
X54958166Y-31043406D01*
X54967545Y-31040561D01*
X54977300Y-31039600D01*
X54985156Y-31040221D01*
G37*
G36*
X48589139Y-33580973D02*
G01*
X48598402Y-33584178D01*
X48606861Y-33589129D01*
X48614193Y-33595635D01*
X48620114Y-33603446D01*
X48624398Y-33612262D01*
X48626879Y-33621744D01*
X48627500Y-33629600D01*
X48627500Y-37490400D01*
X48626539Y-37500155D01*
X48623694Y-37509534D01*
X48619073Y-37518179D01*
X48612855Y-37525755D01*
X48605279Y-37531973D01*
X48596634Y-37536594D01*
X48587255Y-37539439D01*
X48577500Y-37540400D01*
X48569644Y-37539779D01*
X44099244Y-36828579D01*
X44089762Y-36826098D01*
X44080946Y-36821814D01*
X44073135Y-36815893D01*
X44067906Y-36810000D01*
X44027500Y-36810000D01*
X44027500Y-34310000D01*
X44068006Y-34310000D01*
X44071745Y-34305445D01*
X44079321Y-34299227D01*
X44087966Y-34294606D01*
X44099244Y-34291421D01*
X48569644Y-33580221D01*
X48579429Y-33579637D01*
X48589139Y-33580973D01*
G37*
G36*
X74035156Y-31040221D02*
G01*
X78505556Y-31751421D01*
X78515038Y-31753902D01*
X78523854Y-31758186D01*
X78531665Y-31764107D01*
X78536894Y-31770000D01*
X78553500Y-31770000D01*
X78553500Y-34270000D01*
X78536794Y-34270000D01*
X78533055Y-34274555D01*
X78525479Y-34280773D01*
X78516834Y-34285394D01*
X78505556Y-34288579D01*
X74035156Y-34999779D01*
X74025371Y-35000363D01*
X74015661Y-34999027D01*
X74006398Y-34995822D01*
X73997939Y-34990871D01*
X73990607Y-34984365D01*
X73984686Y-34976554D01*
X73980402Y-34967738D01*
X73977921Y-34958256D01*
X73977300Y-34950400D01*
X73977300Y-31089600D01*
X73978261Y-31079845D01*
X73981106Y-31070466D01*
X73985727Y-31061821D01*
X73991945Y-31054245D01*
X73999521Y-31048027D01*
X74008166Y-31043406D01*
X74017545Y-31040561D01*
X74027300Y-31039600D01*
X74035156Y-31040221D01*
G37*
G36*
X67639139Y-33580973D02*
G01*
X67648402Y-33584178D01*
X67656861Y-33589129D01*
X67664193Y-33595635D01*
X67670114Y-33603446D01*
X67674398Y-33612262D01*
X67676879Y-33621744D01*
X67677500Y-33629600D01*
X67677500Y-37490400D01*
X67676539Y-37500155D01*
X67673694Y-37509534D01*
X67669073Y-37518179D01*
X67662855Y-37525755D01*
X67655279Y-37531973D01*
X67646634Y-37536594D01*
X67637255Y-37539439D01*
X67627500Y-37540400D01*
X67619644Y-37539779D01*
X63149244Y-36828579D01*
X63139762Y-36826098D01*
X63130946Y-36821814D01*
X63123135Y-36815893D01*
X63117906Y-36810000D01*
X63077500Y-36810000D01*
X63077500Y-34310000D01*
X63118006Y-34310000D01*
X63121745Y-34305445D01*
X63129321Y-34299227D01*
X63137966Y-34294606D01*
X63149244Y-34291421D01*
X67619644Y-33580221D01*
X67629429Y-33579637D01*
X67639139Y-33580973D01*
G37*
G36*
X93085156Y-31040221D02*
G01*
X97555556Y-31751421D01*
X97565038Y-31753902D01*
X97573854Y-31758186D01*
X97581665Y-31764107D01*
X97586894Y-31770000D01*
X97603500Y-31770000D01*
X97603500Y-34270000D01*
X97586794Y-34270000D01*
X97583055Y-34274555D01*
X97575479Y-34280773D01*
X97566834Y-34285394D01*
X97555556Y-34288579D01*
X93085156Y-34999779D01*
X93075371Y-35000363D01*
X93065661Y-34999027D01*
X93056398Y-34995822D01*
X93047939Y-34990871D01*
X93040607Y-34984365D01*
X93034686Y-34976554D01*
X93030402Y-34967738D01*
X93027921Y-34958256D01*
X93027300Y-34950400D01*
X93027300Y-31089600D01*
X93028261Y-31079845D01*
X93031106Y-31070466D01*
X93035727Y-31061821D01*
X93041945Y-31054245D01*
X93049521Y-31048027D01*
X93058166Y-31043406D01*
X93067545Y-31040561D01*
X93077300Y-31039600D01*
X93085156Y-31040221D01*
G37*
G36*
X86689139Y-33580973D02*
G01*
X86698402Y-33584178D01*
X86706861Y-33589129D01*
X86714193Y-33595635D01*
X86720114Y-33603446D01*
X86724398Y-33612262D01*
X86726879Y-33621744D01*
X86727500Y-33629600D01*
X86727500Y-37490400D01*
X86726539Y-37500155D01*
X86723694Y-37509534D01*
X86719073Y-37518179D01*
X86712855Y-37525755D01*
X86705279Y-37531973D01*
X86696634Y-37536594D01*
X86687255Y-37539439D01*
X86677500Y-37540400D01*
X86669644Y-37539779D01*
X82199244Y-36828579D01*
X82189762Y-36826098D01*
X82180946Y-36821814D01*
X82173135Y-36815893D01*
X82167906Y-36810000D01*
X82127500Y-36810000D01*
X82127500Y-34310000D01*
X82168006Y-34310000D01*
X82171745Y-34305445D01*
X82179321Y-34299227D01*
X82187966Y-34294606D01*
X82199244Y-34291421D01*
X86669644Y-33580221D01*
X86679429Y-33579637D01*
X86689139Y-33580973D01*
G37*
G36*
X112135156Y-31040221D02*
G01*
X116605556Y-31751421D01*
X116615038Y-31753902D01*
X116623854Y-31758186D01*
X116631665Y-31764107D01*
X116636894Y-31770000D01*
X116653500Y-31770000D01*
X116653500Y-34270000D01*
X116636794Y-34270000D01*
X116633055Y-34274555D01*
X116625479Y-34280773D01*
X116616834Y-34285394D01*
X116605556Y-34288579D01*
X112135156Y-34999779D01*
X112125371Y-35000363D01*
X112115661Y-34999027D01*
X112106398Y-34995822D01*
X112097939Y-34990871D01*
X112090607Y-34984365D01*
X112084686Y-34976554D01*
X112080402Y-34967738D01*
X112077921Y-34958256D01*
X112077300Y-34950400D01*
X112077300Y-31089600D01*
X112078261Y-31079845D01*
X112081106Y-31070466D01*
X112085727Y-31061821D01*
X112091945Y-31054245D01*
X112099521Y-31048027D01*
X112108166Y-31043406D01*
X112117545Y-31040561D01*
X112127300Y-31039600D01*
X112135156Y-31040221D01*
G37*
G36*
X105739139Y-33580973D02*
G01*
X105748402Y-33584178D01*
X105756861Y-33589129D01*
X105764193Y-33595635D01*
X105770114Y-33603446D01*
X105774398Y-33612262D01*
X105776879Y-33621744D01*
X105777500Y-33629600D01*
X105777500Y-37490400D01*
X105776539Y-37500155D01*
X105773694Y-37509534D01*
X105769073Y-37518179D01*
X105762855Y-37525755D01*
X105755279Y-37531973D01*
X105746634Y-37536594D01*
X105737255Y-37539439D01*
X105727500Y-37540400D01*
X105719644Y-37539779D01*
X101249244Y-36828579D01*
X101239762Y-36826098D01*
X101230946Y-36821814D01*
X101223135Y-36815893D01*
X101217906Y-36810000D01*
X101177500Y-36810000D01*
X101177500Y-34310000D01*
X101218006Y-34310000D01*
X101221745Y-34305445D01*
X101229321Y-34299227D01*
X101237966Y-34294606D01*
X101249244Y-34291421D01*
X105719644Y-33580221D01*
X105729429Y-33579637D01*
X105739139Y-33580973D01*
G37*
G36*
X131185156Y-31040221D02*
G01*
X135655556Y-31751421D01*
X135665038Y-31753902D01*
X135673854Y-31758186D01*
X135681665Y-31764107D01*
X135686894Y-31770000D01*
X135703500Y-31770000D01*
X135703500Y-34270000D01*
X135686794Y-34270000D01*
X135683055Y-34274555D01*
X135675479Y-34280773D01*
X135666834Y-34285394D01*
X135655556Y-34288579D01*
X131185156Y-34999779D01*
X131175371Y-35000363D01*
X131165661Y-34999027D01*
X131156398Y-34995822D01*
X131147939Y-34990871D01*
X131140607Y-34984365D01*
X131134686Y-34976554D01*
X131130402Y-34967738D01*
X131127921Y-34958256D01*
X131127300Y-34950400D01*
X131127300Y-31089600D01*
X131128261Y-31079845D01*
X131131106Y-31070466D01*
X131135727Y-31061821D01*
X131141945Y-31054245D01*
X131149521Y-31048027D01*
X131158166Y-31043406D01*
X131167545Y-31040561D01*
X131177300Y-31039600D01*
X131185156Y-31040221D01*
G37*
G36*
X124789139Y-33580973D02*
G01*
X124798402Y-33584178D01*
X124806861Y-33589129D01*
X124814193Y-33595635D01*
X124820114Y-33603446D01*
X124824398Y-33612262D01*
X124826879Y-33621744D01*
X124827500Y-33629600D01*
X124827500Y-37490400D01*
X124826539Y-37500155D01*
X124823694Y-37509534D01*
X124819073Y-37518179D01*
X124812855Y-37525755D01*
X124805279Y-37531973D01*
X124796634Y-37536594D01*
X124787255Y-37539439D01*
X124777500Y-37540400D01*
X124769644Y-37539779D01*
X120299244Y-36828579D01*
X120289762Y-36826098D01*
X120280946Y-36821814D01*
X120273135Y-36815893D01*
X120267906Y-36810000D01*
X120227500Y-36810000D01*
X120227500Y-34310000D01*
X120268006Y-34310000D01*
X120271745Y-34305445D01*
X120279321Y-34299227D01*
X120287966Y-34294606D01*
X120299244Y-34291421D01*
X124769644Y-33580221D01*
X124779429Y-33579637D01*
X124789139Y-33580973D01*
G37*
G36*
X150235156Y-31040221D02*
G01*
X154705556Y-31751421D01*
X154715038Y-31753902D01*
X154723854Y-31758186D01*
X154731665Y-31764107D01*
X154736894Y-31770000D01*
X154753500Y-31770000D01*
X154753500Y-34270000D01*
X154736794Y-34270000D01*
X154733055Y-34274555D01*
X154725479Y-34280773D01*
X154716834Y-34285394D01*
X154705556Y-34288579D01*
X150235156Y-34999779D01*
X150225371Y-35000363D01*
X150215661Y-34999027D01*
X150206398Y-34995822D01*
X150197939Y-34990871D01*
X150190607Y-34984365D01*
X150184686Y-34976554D01*
X150180402Y-34967738D01*
X150177921Y-34958256D01*
X150177300Y-34950400D01*
X150177300Y-31089600D01*
X150178261Y-31079845D01*
X150181106Y-31070466D01*
X150185727Y-31061821D01*
X150191945Y-31054245D01*
X150199521Y-31048027D01*
X150208166Y-31043406D01*
X150217545Y-31040561D01*
X150227300Y-31039600D01*
X150235156Y-31040221D01*
G37*
G36*
X143839139Y-33580973D02*
G01*
X143848402Y-33584178D01*
X143856861Y-33589129D01*
X143864193Y-33595635D01*
X143870114Y-33603446D01*
X143874398Y-33612262D01*
X143876879Y-33621744D01*
X143877500Y-33629600D01*
X143877500Y-37490400D01*
X143876539Y-37500155D01*
X143873694Y-37509534D01*
X143869073Y-37518179D01*
X143862855Y-37525755D01*
X143855279Y-37531973D01*
X143846634Y-37536594D01*
X143837255Y-37539439D01*
X143827500Y-37540400D01*
X143819644Y-37539779D01*
X139349244Y-36828579D01*
X139339762Y-36826098D01*
X139330946Y-36821814D01*
X139323135Y-36815893D01*
X139317906Y-36810000D01*
X139277500Y-36810000D01*
X139277500Y-34310000D01*
X139318006Y-34310000D01*
X139321745Y-34305445D01*
X139329321Y-34299227D01*
X139337966Y-34294606D01*
X139349244Y-34291421D01*
X143819644Y-33580221D01*
X143829429Y-33579637D01*
X143839139Y-33580973D01*
G37*
G36*
X169285156Y-31040221D02*
G01*
X173755556Y-31751421D01*
X173765038Y-31753902D01*
X173773854Y-31758186D01*
X173781665Y-31764107D01*
X173786894Y-31770000D01*
X173803500Y-31770000D01*
X173803500Y-34270000D01*
X173786794Y-34270000D01*
X173783055Y-34274555D01*
X173775479Y-34280773D01*
X173766834Y-34285394D01*
X173755556Y-34288579D01*
X169285156Y-34999779D01*
X169275371Y-35000363D01*
X169265661Y-34999027D01*
X169256398Y-34995822D01*
X169247939Y-34990871D01*
X169240607Y-34984365D01*
X169234686Y-34976554D01*
X169230402Y-34967738D01*
X169227921Y-34958256D01*
X169227300Y-34950400D01*
X169227300Y-31089600D01*
X169228261Y-31079845D01*
X169231106Y-31070466D01*
X169235727Y-31061821D01*
X169241945Y-31054245D01*
X169249521Y-31048027D01*
X169258166Y-31043406D01*
X169267545Y-31040561D01*
X169277300Y-31039600D01*
X169285156Y-31040221D01*
G37*
G36*
X162889139Y-33580973D02*
G01*
X162898402Y-33584178D01*
X162906861Y-33589129D01*
X162914193Y-33595635D01*
X162920114Y-33603446D01*
X162924398Y-33612262D01*
X162926879Y-33621744D01*
X162927500Y-33629600D01*
X162927500Y-37490400D01*
X162926539Y-37500155D01*
X162923694Y-37509534D01*
X162919073Y-37518179D01*
X162912855Y-37525755D01*
X162905279Y-37531973D01*
X162896634Y-37536594D01*
X162887255Y-37539439D01*
X162877500Y-37540400D01*
X162869644Y-37539779D01*
X158399244Y-36828579D01*
X158389762Y-36826098D01*
X158380946Y-36821814D01*
X158373135Y-36815893D01*
X158367906Y-36810000D01*
X158327500Y-36810000D01*
X158327500Y-34310000D01*
X158368006Y-34310000D01*
X158371745Y-34305445D01*
X158379321Y-34299227D01*
X158387966Y-34294606D01*
X158399244Y-34291421D01*
X162869644Y-33580221D01*
X162879429Y-33579637D01*
X162889139Y-33580973D01*
G37*
G36*
X188335156Y-31040221D02*
G01*
X192805556Y-31751421D01*
X192815038Y-31753902D01*
X192823854Y-31758186D01*
X192831665Y-31764107D01*
X192836894Y-31770000D01*
X192853500Y-31770000D01*
X192853500Y-34270000D01*
X192836794Y-34270000D01*
X192833055Y-34274555D01*
X192825479Y-34280773D01*
X192816834Y-34285394D01*
X192805556Y-34288579D01*
X188335156Y-34999779D01*
X188325371Y-35000363D01*
X188315661Y-34999027D01*
X188306398Y-34995822D01*
X188297939Y-34990871D01*
X188290607Y-34984365D01*
X188284686Y-34976554D01*
X188280402Y-34967738D01*
X188277921Y-34958256D01*
X188277300Y-34950400D01*
X188277300Y-31089600D01*
X188278261Y-31079845D01*
X188281106Y-31070466D01*
X188285727Y-31061821D01*
X188291945Y-31054245D01*
X188299521Y-31048027D01*
X188308166Y-31043406D01*
X188317545Y-31040561D01*
X188327300Y-31039600D01*
X188335156Y-31040221D01*
G37*
G36*
X181939139Y-33580973D02*
G01*
X181948402Y-33584178D01*
X181956861Y-33589129D01*
X181964193Y-33595635D01*
X181970114Y-33603446D01*
X181974398Y-33612262D01*
X181976879Y-33621744D01*
X181977500Y-33629600D01*
X181977500Y-37490400D01*
X181976539Y-37500155D01*
X181973694Y-37509534D01*
X181969073Y-37518179D01*
X181962855Y-37525755D01*
X181955279Y-37531973D01*
X181946634Y-37536594D01*
X181937255Y-37539439D01*
X181927500Y-37540400D01*
X181919644Y-37539779D01*
X177449244Y-36828579D01*
X177439762Y-36826098D01*
X177430946Y-36821814D01*
X177423135Y-36815893D01*
X177417906Y-36810000D01*
X177377500Y-36810000D01*
X177377500Y-34310000D01*
X177418006Y-34310000D01*
X177421745Y-34305445D01*
X177429321Y-34299227D01*
X177437966Y-34294606D01*
X177449244Y-34291421D01*
X181919644Y-33580221D01*
X181929429Y-33579637D01*
X181939139Y-33580973D01*
G37*
G36*
X207385156Y-31040221D02*
G01*
X211855556Y-31751421D01*
X211865038Y-31753902D01*
X211873854Y-31758186D01*
X211881665Y-31764107D01*
X211886894Y-31770000D01*
X211903500Y-31770000D01*
X211903500Y-34270000D01*
X211886794Y-34270000D01*
X211883055Y-34274555D01*
X211875479Y-34280773D01*
X211866834Y-34285394D01*
X211855556Y-34288579D01*
X207385156Y-34999779D01*
X207375371Y-35000363D01*
X207365661Y-34999027D01*
X207356398Y-34995822D01*
X207347939Y-34990871D01*
X207340607Y-34984365D01*
X207334686Y-34976554D01*
X207330402Y-34967738D01*
X207327921Y-34958256D01*
X207327300Y-34950400D01*
X207327300Y-31089600D01*
X207328261Y-31079845D01*
X207331106Y-31070466D01*
X207335727Y-31061821D01*
X207341945Y-31054245D01*
X207349521Y-31048027D01*
X207358166Y-31043406D01*
X207367545Y-31040561D01*
X207377300Y-31039600D01*
X207385156Y-31040221D01*
G37*
G36*
X200989139Y-33580973D02*
G01*
X200998402Y-33584178D01*
X201006861Y-33589129D01*
X201014193Y-33595635D01*
X201020114Y-33603446D01*
X201024398Y-33612262D01*
X201026879Y-33621744D01*
X201027500Y-33629600D01*
X201027500Y-37490400D01*
X201026539Y-37500155D01*
X201023694Y-37509534D01*
X201019073Y-37518179D01*
X201012855Y-37525755D01*
X201005279Y-37531973D01*
X200996634Y-37536594D01*
X200987255Y-37539439D01*
X200977500Y-37540400D01*
X200969644Y-37539779D01*
X196499244Y-36828579D01*
X196489762Y-36826098D01*
X196480946Y-36821814D01*
X196473135Y-36815893D01*
X196467906Y-36810000D01*
X196427500Y-36810000D01*
X196427500Y-34310000D01*
X196468006Y-34310000D01*
X196471745Y-34305445D01*
X196479321Y-34299227D01*
X196487966Y-34294606D01*
X196499244Y-34291421D01*
X200969644Y-33580221D01*
X200979429Y-33579637D01*
X200989139Y-33580973D01*
G37*
G36*
X226435156Y-31040221D02*
G01*
X230905556Y-31751421D01*
X230915038Y-31753902D01*
X230923854Y-31758186D01*
X230931665Y-31764107D01*
X230936894Y-31770000D01*
X230953500Y-31770000D01*
X230953500Y-34270000D01*
X230936794Y-34270000D01*
X230933055Y-34274555D01*
X230925479Y-34280773D01*
X230916834Y-34285394D01*
X230905556Y-34288579D01*
X226435156Y-34999779D01*
X226425371Y-35000363D01*
X226415661Y-34999027D01*
X226406398Y-34995822D01*
X226397939Y-34990871D01*
X226390607Y-34984365D01*
X226384686Y-34976554D01*
X226380402Y-34967738D01*
X226377921Y-34958256D01*
X226377300Y-34950400D01*
X226377300Y-31089600D01*
X226378261Y-31079845D01*
X226381106Y-31070466D01*
X226385727Y-31061821D01*
X226391945Y-31054245D01*
X226399521Y-31048027D01*
X226408166Y-31043406D01*
X226417545Y-31040561D01*
X226427300Y-31039600D01*
X226435156Y-31040221D01*
G37*
G36*
X220039139Y-33580973D02*
G01*
X220048402Y-33584178D01*
X220056861Y-33589129D01*
X220064193Y-33595635D01*
X220070114Y-33603446D01*
X220074398Y-33612262D01*
X220076879Y-33621744D01*
X220077500Y-33629600D01*
X220077500Y-37490400D01*
X220076539Y-37500155D01*
X220073694Y-37509534D01*
X220069073Y-37518179D01*
X220062855Y-37525755D01*
X220055279Y-37531973D01*
X220046634Y-37536594D01*
X220037255Y-37539439D01*
X220027500Y-37540400D01*
X220019644Y-37539779D01*
X215549244Y-36828579D01*
X215539762Y-36826098D01*
X215530946Y-36821814D01*
X215523135Y-36815893D01*
X215517906Y-36810000D01*
X215477500Y-36810000D01*
X215477500Y-34310000D01*
X215518006Y-34310000D01*
X215521745Y-34305445D01*
X215529321Y-34299227D01*
X215537966Y-34294606D01*
X215549244Y-34291421D01*
X220019644Y-33580221D01*
X220029429Y-33579637D01*
X220039139Y-33580973D01*
G37*
G36*
X257391406Y-31040221D02*
G01*
X261861806Y-31751421D01*
X261871288Y-31753902D01*
X261880104Y-31758186D01*
X261887915Y-31764107D01*
X261893144Y-31770000D01*
X261909750Y-31770000D01*
X261909750Y-34270000D01*
X261893044Y-34270000D01*
X261889305Y-34274555D01*
X261881729Y-34280773D01*
X261873084Y-34285394D01*
X261861806Y-34288579D01*
X257391406Y-34999779D01*
X257381621Y-35000363D01*
X257371911Y-34999027D01*
X257362648Y-34995822D01*
X257354189Y-34990871D01*
X257346857Y-34984365D01*
X257340936Y-34976554D01*
X257336652Y-34967738D01*
X257334171Y-34958256D01*
X257333550Y-34950400D01*
X257333550Y-31089600D01*
X257334511Y-31079845D01*
X257337356Y-31070466D01*
X257341977Y-31061821D01*
X257348195Y-31054245D01*
X257355771Y-31048027D01*
X257364416Y-31043406D01*
X257373795Y-31040561D01*
X257383550Y-31039600D01*
X257391406Y-31040221D01*
G37*
G36*
X250995389Y-33580973D02*
G01*
X251004652Y-33584178D01*
X251013111Y-33589129D01*
X251020443Y-33595635D01*
X251026364Y-33603446D01*
X251030648Y-33612262D01*
X251033129Y-33621744D01*
X251033750Y-33629600D01*
X251033750Y-37490400D01*
X251032789Y-37500155D01*
X251029944Y-37509534D01*
X251025323Y-37518179D01*
X251019105Y-37525755D01*
X251011529Y-37531973D01*
X251002884Y-37536594D01*
X250993505Y-37539439D01*
X250983750Y-37540400D01*
X250975894Y-37539779D01*
X246505494Y-36828579D01*
X246496012Y-36826098D01*
X246487196Y-36821814D01*
X246479385Y-36815893D01*
X246474156Y-36810000D01*
X246433750Y-36810000D01*
X246433750Y-34310000D01*
X246474256Y-34310000D01*
X246477995Y-34305445D01*
X246485571Y-34299227D01*
X246494216Y-34294606D01*
X246505494Y-34291421D01*
X250975894Y-33580221D01*
X250985679Y-33579637D01*
X250995389Y-33580973D01*
G37*
G36*
X45460156Y-50090221D02*
G01*
X49930556Y-50801421D01*
X49940038Y-50803902D01*
X49948854Y-50808186D01*
X49956665Y-50814107D01*
X49961894Y-50820000D01*
X49978500Y-50820000D01*
X49978500Y-53320000D01*
X49961794Y-53320000D01*
X49958055Y-53324555D01*
X49950479Y-53330773D01*
X49941834Y-53335394D01*
X49930556Y-53338579D01*
X45460156Y-54049779D01*
X45450371Y-54050363D01*
X45440661Y-54049027D01*
X45431398Y-54045822D01*
X45422939Y-54040871D01*
X45415607Y-54034365D01*
X45409686Y-54026554D01*
X45405402Y-54017738D01*
X45402921Y-54008256D01*
X45402300Y-54000400D01*
X45402300Y-50139600D01*
X45403261Y-50129845D01*
X45406106Y-50120466D01*
X45410727Y-50111821D01*
X45416945Y-50104245D01*
X45424521Y-50098027D01*
X45433166Y-50093406D01*
X45442545Y-50090561D01*
X45452300Y-50089600D01*
X45460156Y-50090221D01*
G37*
G36*
X39064139Y-52630973D02*
G01*
X39073402Y-52634178D01*
X39081861Y-52639129D01*
X39089193Y-52645635D01*
X39095114Y-52653446D01*
X39099398Y-52662262D01*
X39101879Y-52671744D01*
X39102500Y-52679600D01*
X39102500Y-56540400D01*
X39101539Y-56550155D01*
X39098694Y-56559534D01*
X39094073Y-56568179D01*
X39087855Y-56575755D01*
X39080279Y-56581973D01*
X39071634Y-56586594D01*
X39062255Y-56589439D01*
X39052500Y-56590400D01*
X39044644Y-56589779D01*
X34574244Y-55878579D01*
X34564762Y-55876098D01*
X34555946Y-55871814D01*
X34548135Y-55865893D01*
X34542906Y-55860000D01*
X34502500Y-55860000D01*
X34502500Y-53360000D01*
X34543006Y-53360000D01*
X34546745Y-53355445D01*
X34554321Y-53349227D01*
X34562966Y-53344606D01*
X34574244Y-53341421D01*
X39044644Y-52630221D01*
X39054429Y-52629637D01*
X39064139Y-52630973D01*
G37*
G36*
X64510156Y-50090221D02*
G01*
X68980556Y-50801421D01*
X68990038Y-50803902D01*
X68998854Y-50808186D01*
X69006665Y-50814107D01*
X69011894Y-50820000D01*
X69028500Y-50820000D01*
X69028500Y-53320000D01*
X69011794Y-53320000D01*
X69008055Y-53324555D01*
X69000479Y-53330773D01*
X68991834Y-53335394D01*
X68980556Y-53338579D01*
X64510156Y-54049779D01*
X64500371Y-54050363D01*
X64490661Y-54049027D01*
X64481398Y-54045822D01*
X64472939Y-54040871D01*
X64465607Y-54034365D01*
X64459686Y-54026554D01*
X64455402Y-54017738D01*
X64452921Y-54008256D01*
X64452300Y-54000400D01*
X64452300Y-50139600D01*
X64453261Y-50129845D01*
X64456106Y-50120466D01*
X64460727Y-50111821D01*
X64466945Y-50104245D01*
X64474521Y-50098027D01*
X64483166Y-50093406D01*
X64492545Y-50090561D01*
X64502300Y-50089600D01*
X64510156Y-50090221D01*
G37*
G36*
X58114139Y-52630973D02*
G01*
X58123402Y-52634178D01*
X58131861Y-52639129D01*
X58139193Y-52645635D01*
X58145114Y-52653446D01*
X58149398Y-52662262D01*
X58151879Y-52671744D01*
X58152500Y-52679600D01*
X58152500Y-56540400D01*
X58151539Y-56550155D01*
X58148694Y-56559534D01*
X58144073Y-56568179D01*
X58137855Y-56575755D01*
X58130279Y-56581973D01*
X58121634Y-56586594D01*
X58112255Y-56589439D01*
X58102500Y-56590400D01*
X58094644Y-56589779D01*
X53624244Y-55878579D01*
X53614762Y-55876098D01*
X53605946Y-55871814D01*
X53598135Y-55865893D01*
X53592906Y-55860000D01*
X53552500Y-55860000D01*
X53552500Y-53360000D01*
X53593006Y-53360000D01*
X53596745Y-53355445D01*
X53604321Y-53349227D01*
X53612966Y-53344606D01*
X53624244Y-53341421D01*
X58094644Y-52630221D01*
X58104429Y-52629637D01*
X58114139Y-52630973D01*
G37*
G36*
X83560156Y-50090221D02*
G01*
X88030556Y-50801421D01*
X88040038Y-50803902D01*
X88048854Y-50808186D01*
X88056665Y-50814107D01*
X88061894Y-50820000D01*
X88078500Y-50820000D01*
X88078500Y-53320000D01*
X88061794Y-53320000D01*
X88058055Y-53324555D01*
X88050479Y-53330773D01*
X88041834Y-53335394D01*
X88030556Y-53338579D01*
X83560156Y-54049779D01*
X83550371Y-54050363D01*
X83540661Y-54049027D01*
X83531398Y-54045822D01*
X83522939Y-54040871D01*
X83515607Y-54034365D01*
X83509686Y-54026554D01*
X83505402Y-54017738D01*
X83502921Y-54008256D01*
X83502300Y-54000400D01*
X83502300Y-50139600D01*
X83503261Y-50129845D01*
X83506106Y-50120466D01*
X83510727Y-50111821D01*
X83516945Y-50104245D01*
X83524521Y-50098027D01*
X83533166Y-50093406D01*
X83542545Y-50090561D01*
X83552300Y-50089600D01*
X83560156Y-50090221D01*
G37*
G36*
X77164139Y-52630973D02*
G01*
X77173402Y-52634178D01*
X77181861Y-52639129D01*
X77189193Y-52645635D01*
X77195114Y-52653446D01*
X77199398Y-52662262D01*
X77201879Y-52671744D01*
X77202500Y-52679600D01*
X77202500Y-56540400D01*
X77201539Y-56550155D01*
X77198694Y-56559534D01*
X77194073Y-56568179D01*
X77187855Y-56575755D01*
X77180279Y-56581973D01*
X77171634Y-56586594D01*
X77162255Y-56589439D01*
X77152500Y-56590400D01*
X77144644Y-56589779D01*
X72674244Y-55878579D01*
X72664762Y-55876098D01*
X72655946Y-55871814D01*
X72648135Y-55865893D01*
X72642906Y-55860000D01*
X72602500Y-55860000D01*
X72602500Y-53360000D01*
X72643006Y-53360000D01*
X72646745Y-53355445D01*
X72654321Y-53349227D01*
X72662966Y-53344606D01*
X72674244Y-53341421D01*
X77144644Y-52630221D01*
X77154429Y-52629637D01*
X77164139Y-52630973D01*
G37*
G36*
X102610156Y-50090221D02*
G01*
X107080556Y-50801421D01*
X107090038Y-50803902D01*
X107098854Y-50808186D01*
X107106665Y-50814107D01*
X107111894Y-50820000D01*
X107128500Y-50820000D01*
X107128500Y-53320000D01*
X107111794Y-53320000D01*
X107108055Y-53324555D01*
X107100479Y-53330773D01*
X107091834Y-53335394D01*
X107080556Y-53338579D01*
X102610156Y-54049779D01*
X102600371Y-54050363D01*
X102590661Y-54049027D01*
X102581398Y-54045822D01*
X102572939Y-54040871D01*
X102565607Y-54034365D01*
X102559686Y-54026554D01*
X102555402Y-54017738D01*
X102552921Y-54008256D01*
X102552300Y-54000400D01*
X102552300Y-50139600D01*
X102553261Y-50129845D01*
X102556106Y-50120466D01*
X102560727Y-50111821D01*
X102566945Y-50104245D01*
X102574521Y-50098027D01*
X102583166Y-50093406D01*
X102592545Y-50090561D01*
X102602300Y-50089600D01*
X102610156Y-50090221D01*
G37*
G36*
X96214139Y-52630973D02*
G01*
X96223402Y-52634178D01*
X96231861Y-52639129D01*
X96239193Y-52645635D01*
X96245114Y-52653446D01*
X96249398Y-52662262D01*
X96251879Y-52671744D01*
X96252500Y-52679600D01*
X96252500Y-56540400D01*
X96251539Y-56550155D01*
X96248694Y-56559534D01*
X96244073Y-56568179D01*
X96237855Y-56575755D01*
X96230279Y-56581973D01*
X96221634Y-56586594D01*
X96212255Y-56589439D01*
X96202500Y-56590400D01*
X96194644Y-56589779D01*
X91724244Y-55878579D01*
X91714762Y-55876098D01*
X91705946Y-55871814D01*
X91698135Y-55865893D01*
X91692906Y-55860000D01*
X91652500Y-55860000D01*
X91652500Y-53360000D01*
X91693006Y-53360000D01*
X91696745Y-53355445D01*
X91704321Y-53349227D01*
X91712966Y-53344606D01*
X91724244Y-53341421D01*
X96194644Y-52630221D01*
X96204429Y-52629637D01*
X96214139Y-52630973D01*
G37*
G36*
X121660156Y-50090221D02*
G01*
X126130556Y-50801421D01*
X126140038Y-50803902D01*
X126148854Y-50808186D01*
X126156665Y-50814107D01*
X126161894Y-50820000D01*
X126178500Y-50820000D01*
X126178500Y-53320000D01*
X126161794Y-53320000D01*
X126158055Y-53324555D01*
X126150479Y-53330773D01*
X126141834Y-53335394D01*
X126130556Y-53338579D01*
X121660156Y-54049779D01*
X121650371Y-54050363D01*
X121640661Y-54049027D01*
X121631398Y-54045822D01*
X121622939Y-54040871D01*
X121615607Y-54034365D01*
X121609686Y-54026554D01*
X121605402Y-54017738D01*
X121602921Y-54008256D01*
X121602300Y-54000400D01*
X121602300Y-50139600D01*
X121603261Y-50129845D01*
X121606106Y-50120466D01*
X121610727Y-50111821D01*
X121616945Y-50104245D01*
X121624521Y-50098027D01*
X121633166Y-50093406D01*
X121642545Y-50090561D01*
X121652300Y-50089600D01*
X121660156Y-50090221D01*
G37*
G36*
X115264139Y-52630973D02*
G01*
X115273402Y-52634178D01*
X115281861Y-52639129D01*
X115289193Y-52645635D01*
X115295114Y-52653446D01*
X115299398Y-52662262D01*
X115301879Y-52671744D01*
X115302500Y-52679600D01*
X115302500Y-56540400D01*
X115301539Y-56550155D01*
X115298694Y-56559534D01*
X115294073Y-56568179D01*
X115287855Y-56575755D01*
X115280279Y-56581973D01*
X115271634Y-56586594D01*
X115262255Y-56589439D01*
X115252500Y-56590400D01*
X115244644Y-56589779D01*
X110774244Y-55878579D01*
X110764762Y-55876098D01*
X110755946Y-55871814D01*
X110748135Y-55865893D01*
X110742906Y-55860000D01*
X110702500Y-55860000D01*
X110702500Y-53360000D01*
X110743006Y-53360000D01*
X110746745Y-53355445D01*
X110754321Y-53349227D01*
X110762966Y-53344606D01*
X110774244Y-53341421D01*
X115244644Y-52630221D01*
X115254429Y-52629637D01*
X115264139Y-52630973D01*
G37*
G36*
X140710156Y-50090221D02*
G01*
X145180556Y-50801421D01*
X145190038Y-50803902D01*
X145198854Y-50808186D01*
X145206665Y-50814107D01*
X145211894Y-50820000D01*
X145228500Y-50820000D01*
X145228500Y-53320000D01*
X145211794Y-53320000D01*
X145208055Y-53324555D01*
X145200479Y-53330773D01*
X145191834Y-53335394D01*
X145180556Y-53338579D01*
X140710156Y-54049779D01*
X140700371Y-54050363D01*
X140690661Y-54049027D01*
X140681398Y-54045822D01*
X140672939Y-54040871D01*
X140665607Y-54034365D01*
X140659686Y-54026554D01*
X140655402Y-54017738D01*
X140652921Y-54008256D01*
X140652300Y-54000400D01*
X140652300Y-50139600D01*
X140653261Y-50129845D01*
X140656106Y-50120466D01*
X140660727Y-50111821D01*
X140666945Y-50104245D01*
X140674521Y-50098027D01*
X140683166Y-50093406D01*
X140692545Y-50090561D01*
X140702300Y-50089600D01*
X140710156Y-50090221D01*
G37*
G36*
X134314139Y-52630973D02*
G01*
X134323402Y-52634178D01*
X134331861Y-52639129D01*
X134339193Y-52645635D01*
X134345114Y-52653446D01*
X134349398Y-52662262D01*
X134351879Y-52671744D01*
X134352500Y-52679600D01*
X134352500Y-56540400D01*
X134351539Y-56550155D01*
X134348694Y-56559534D01*
X134344073Y-56568179D01*
X134337855Y-56575755D01*
X134330279Y-56581973D01*
X134321634Y-56586594D01*
X134312255Y-56589439D01*
X134302500Y-56590400D01*
X134294644Y-56589779D01*
X129824244Y-55878579D01*
X129814762Y-55876098D01*
X129805946Y-55871814D01*
X129798135Y-55865893D01*
X129792906Y-55860000D01*
X129752500Y-55860000D01*
X129752500Y-53360000D01*
X129793006Y-53360000D01*
X129796745Y-53355445D01*
X129804321Y-53349227D01*
X129812966Y-53344606D01*
X129824244Y-53341421D01*
X134294644Y-52630221D01*
X134304429Y-52629637D01*
X134314139Y-52630973D01*
G37*
G36*
X159760156Y-50090221D02*
G01*
X164230556Y-50801421D01*
X164240038Y-50803902D01*
X164248854Y-50808186D01*
X164256665Y-50814107D01*
X164261894Y-50820000D01*
X164278500Y-50820000D01*
X164278500Y-53320000D01*
X164261794Y-53320000D01*
X164258055Y-53324555D01*
X164250479Y-53330773D01*
X164241834Y-53335394D01*
X164230556Y-53338579D01*
X159760156Y-54049779D01*
X159750371Y-54050363D01*
X159740661Y-54049027D01*
X159731398Y-54045822D01*
X159722939Y-54040871D01*
X159715607Y-54034365D01*
X159709686Y-54026554D01*
X159705402Y-54017738D01*
X159702921Y-54008256D01*
X159702300Y-54000400D01*
X159702300Y-50139600D01*
X159703261Y-50129845D01*
X159706106Y-50120466D01*
X159710727Y-50111821D01*
X159716945Y-50104245D01*
X159724521Y-50098027D01*
X159733166Y-50093406D01*
X159742545Y-50090561D01*
X159752300Y-50089600D01*
X159760156Y-50090221D01*
G37*
G36*
X153364139Y-52630973D02*
G01*
X153373402Y-52634178D01*
X153381861Y-52639129D01*
X153389193Y-52645635D01*
X153395114Y-52653446D01*
X153399398Y-52662262D01*
X153401879Y-52671744D01*
X153402500Y-52679600D01*
X153402500Y-56540400D01*
X153401539Y-56550155D01*
X153398694Y-56559534D01*
X153394073Y-56568179D01*
X153387855Y-56575755D01*
X153380279Y-56581973D01*
X153371634Y-56586594D01*
X153362255Y-56589439D01*
X153352500Y-56590400D01*
X153344644Y-56589779D01*
X148874244Y-55878579D01*
X148864762Y-55876098D01*
X148855946Y-55871814D01*
X148848135Y-55865893D01*
X148842906Y-55860000D01*
X148802500Y-55860000D01*
X148802500Y-53360000D01*
X148843006Y-53360000D01*
X148846745Y-53355445D01*
X148854321Y-53349227D01*
X148862966Y-53344606D01*
X148874244Y-53341421D01*
X153344644Y-52630221D01*
X153354429Y-52629637D01*
X153364139Y-52630973D01*
G37*
G36*
X178810156Y-50090221D02*
G01*
X183280556Y-50801421D01*
X183290038Y-50803902D01*
X183298854Y-50808186D01*
X183306665Y-50814107D01*
X183311894Y-50820000D01*
X183328500Y-50820000D01*
X183328500Y-53320000D01*
X183311794Y-53320000D01*
X183308055Y-53324555D01*
X183300479Y-53330773D01*
X183291834Y-53335394D01*
X183280556Y-53338579D01*
X178810156Y-54049779D01*
X178800371Y-54050363D01*
X178790661Y-54049027D01*
X178781398Y-54045822D01*
X178772939Y-54040871D01*
X178765607Y-54034365D01*
X178759686Y-54026554D01*
X178755402Y-54017738D01*
X178752921Y-54008256D01*
X178752300Y-54000400D01*
X178752300Y-50139600D01*
X178753261Y-50129845D01*
X178756106Y-50120466D01*
X178760727Y-50111821D01*
X178766945Y-50104245D01*
X178774521Y-50098027D01*
X178783166Y-50093406D01*
X178792545Y-50090561D01*
X178802300Y-50089600D01*
X178810156Y-50090221D01*
G37*
G36*
X172414139Y-52630973D02*
G01*
X172423402Y-52634178D01*
X172431861Y-52639129D01*
X172439193Y-52645635D01*
X172445114Y-52653446D01*
X172449398Y-52662262D01*
X172451879Y-52671744D01*
X172452500Y-52679600D01*
X172452500Y-56540400D01*
X172451539Y-56550155D01*
X172448694Y-56559534D01*
X172444073Y-56568179D01*
X172437855Y-56575755D01*
X172430279Y-56581973D01*
X172421634Y-56586594D01*
X172412255Y-56589439D01*
X172402500Y-56590400D01*
X172394644Y-56589779D01*
X167924244Y-55878579D01*
X167914762Y-55876098D01*
X167905946Y-55871814D01*
X167898135Y-55865893D01*
X167892906Y-55860000D01*
X167852500Y-55860000D01*
X167852500Y-53360000D01*
X167893006Y-53360000D01*
X167896745Y-53355445D01*
X167904321Y-53349227D01*
X167912966Y-53344606D01*
X167924244Y-53341421D01*
X172394644Y-52630221D01*
X172404429Y-52629637D01*
X172414139Y-52630973D01*
G37*
G36*
X197860156Y-50090221D02*
G01*
X202330556Y-50801421D01*
X202340038Y-50803902D01*
X202348854Y-50808186D01*
X202356665Y-50814107D01*
X202361894Y-50820000D01*
X202378500Y-50820000D01*
X202378500Y-53320000D01*
X202361794Y-53320000D01*
X202358055Y-53324555D01*
X202350479Y-53330773D01*
X202341834Y-53335394D01*
X202330556Y-53338579D01*
X197860156Y-54049779D01*
X197850371Y-54050363D01*
X197840661Y-54049027D01*
X197831398Y-54045822D01*
X197822939Y-54040871D01*
X197815607Y-54034365D01*
X197809686Y-54026554D01*
X197805402Y-54017738D01*
X197802921Y-54008256D01*
X197802300Y-54000400D01*
X197802300Y-50139600D01*
X197803261Y-50129845D01*
X197806106Y-50120466D01*
X197810727Y-50111821D01*
X197816945Y-50104245D01*
X197824521Y-50098027D01*
X197833166Y-50093406D01*
X197842545Y-50090561D01*
X197852300Y-50089600D01*
X197860156Y-50090221D01*
G37*
G36*
X191464139Y-52630973D02*
G01*
X191473402Y-52634178D01*
X191481861Y-52639129D01*
X191489193Y-52645635D01*
X191495114Y-52653446D01*
X191499398Y-52662262D01*
X191501879Y-52671744D01*
X191502500Y-52679600D01*
X191502500Y-56540400D01*
X191501539Y-56550155D01*
X191498694Y-56559534D01*
X191494073Y-56568179D01*
X191487855Y-56575755D01*
X191480279Y-56581973D01*
X191471634Y-56586594D01*
X191462255Y-56589439D01*
X191452500Y-56590400D01*
X191444644Y-56589779D01*
X186974244Y-55878579D01*
X186964762Y-55876098D01*
X186955946Y-55871814D01*
X186948135Y-55865893D01*
X186942906Y-55860000D01*
X186902500Y-55860000D01*
X186902500Y-53360000D01*
X186943006Y-53360000D01*
X186946745Y-53355445D01*
X186954321Y-53349227D01*
X186962966Y-53344606D01*
X186974244Y-53341421D01*
X191444644Y-52630221D01*
X191454429Y-52629637D01*
X191464139Y-52630973D01*
G37*
G36*
X216910156Y-50090221D02*
G01*
X221380556Y-50801421D01*
X221390038Y-50803902D01*
X221398854Y-50808186D01*
X221406665Y-50814107D01*
X221411894Y-50820000D01*
X221428500Y-50820000D01*
X221428500Y-53320000D01*
X221411794Y-53320000D01*
X221408055Y-53324555D01*
X221400479Y-53330773D01*
X221391834Y-53335394D01*
X221380556Y-53338579D01*
X216910156Y-54049779D01*
X216900371Y-54050363D01*
X216890661Y-54049027D01*
X216881398Y-54045822D01*
X216872939Y-54040871D01*
X216865607Y-54034365D01*
X216859686Y-54026554D01*
X216855402Y-54017738D01*
X216852921Y-54008256D01*
X216852300Y-54000400D01*
X216852300Y-50139600D01*
X216853261Y-50129845D01*
X216856106Y-50120466D01*
X216860727Y-50111821D01*
X216866945Y-50104245D01*
X216874521Y-50098027D01*
X216883166Y-50093406D01*
X216892545Y-50090561D01*
X216902300Y-50089600D01*
X216910156Y-50090221D01*
G37*
G36*
X210514139Y-52630973D02*
G01*
X210523402Y-52634178D01*
X210531861Y-52639129D01*
X210539193Y-52645635D01*
X210545114Y-52653446D01*
X210549398Y-52662262D01*
X210551879Y-52671744D01*
X210552500Y-52679600D01*
X210552500Y-56540400D01*
X210551539Y-56550155D01*
X210548694Y-56559534D01*
X210544073Y-56568179D01*
X210537855Y-56575755D01*
X210530279Y-56581973D01*
X210521634Y-56586594D01*
X210512255Y-56589439D01*
X210502500Y-56590400D01*
X210494644Y-56589779D01*
X206024244Y-55878579D01*
X206014762Y-55876098D01*
X206005946Y-55871814D01*
X205998135Y-55865893D01*
X205992906Y-55860000D01*
X205952500Y-55860000D01*
X205952500Y-53360000D01*
X205993006Y-53360000D01*
X205996745Y-53355445D01*
X206004321Y-53349227D01*
X206012966Y-53344606D01*
X206024244Y-53341421D01*
X210494644Y-52630221D01*
X210504429Y-52629637D01*
X210514139Y-52630973D01*
G37*
G36*
X237908594Y-64209779D02*
G01*
X233438194Y-63498579D01*
X233428712Y-63496098D01*
X233419896Y-63491814D01*
X233412085Y-63485893D01*
X233406856Y-63480000D01*
X233390250Y-63480000D01*
X233390250Y-60980000D01*
X233406956Y-60980000D01*
X233410695Y-60975445D01*
X233418271Y-60969227D01*
X233426916Y-60964606D01*
X233438194Y-60961421D01*
X237908594Y-60250221D01*
X237918379Y-60249637D01*
X237928089Y-60250973D01*
X237937352Y-60254178D01*
X237945811Y-60259129D01*
X237953143Y-60265635D01*
X237959064Y-60273446D01*
X237963348Y-60282262D01*
X237965829Y-60291744D01*
X237966450Y-60299600D01*
X237966450Y-64160400D01*
X237965489Y-64170155D01*
X237962644Y-64179534D01*
X237958023Y-64188179D01*
X237951805Y-64195755D01*
X237944229Y-64201973D01*
X237935584Y-64206594D01*
X237926205Y-64209439D01*
X237916450Y-64210400D01*
X237908594Y-64209779D01*
G37*
G36*
X244304611Y-61669027D02*
G01*
X244295348Y-61665822D01*
X244286889Y-61660871D01*
X244279557Y-61654365D01*
X244273636Y-61646554D01*
X244269352Y-61637738D01*
X244266871Y-61628256D01*
X244266250Y-61620400D01*
X244266250Y-57759600D01*
X244267211Y-57749845D01*
X244270056Y-57740466D01*
X244274677Y-57731821D01*
X244280895Y-57724245D01*
X244288471Y-57718027D01*
X244297116Y-57713406D01*
X244306495Y-57710561D01*
X244316250Y-57709600D01*
X244324106Y-57710221D01*
X248794506Y-58421421D01*
X248803988Y-58423902D01*
X248812804Y-58428186D01*
X248820615Y-58434107D01*
X248825844Y-58440000D01*
X248866250Y-58440000D01*
X248866250Y-60940000D01*
X248825744Y-60940000D01*
X248822005Y-60944555D01*
X248814429Y-60950773D01*
X248805784Y-60955394D01*
X248794506Y-60958579D01*
X244324106Y-61669779D01*
X244314321Y-61670363D01*
X244304611Y-61669027D01*
G37*
G36*
X264102344Y-64209779D02*
G01*
X259631944Y-63498579D01*
X259622462Y-63496098D01*
X259613646Y-63491814D01*
X259605835Y-63485893D01*
X259600606Y-63480000D01*
X259584000Y-63480000D01*
X259584000Y-60980000D01*
X259600706Y-60980000D01*
X259604445Y-60975445D01*
X259612021Y-60969227D01*
X259620666Y-60964606D01*
X259631944Y-60961421D01*
X264102344Y-60250221D01*
X264112129Y-60249637D01*
X264121839Y-60250973D01*
X264131102Y-60254178D01*
X264139561Y-60259129D01*
X264146893Y-60265635D01*
X264152814Y-60273446D01*
X264157098Y-60282262D01*
X264159579Y-60291744D01*
X264160200Y-60299600D01*
X264160200Y-64160400D01*
X264159239Y-64170155D01*
X264156394Y-64179534D01*
X264151773Y-64188179D01*
X264145555Y-64195755D01*
X264137979Y-64201973D01*
X264129334Y-64206594D01*
X264119955Y-64209439D01*
X264110200Y-64210400D01*
X264102344Y-64209779D01*
G37*
G36*
X270498361Y-61669027D02*
G01*
X270489098Y-61665822D01*
X270480639Y-61660871D01*
X270473307Y-61654365D01*
X270467386Y-61646554D01*
X270463102Y-61637738D01*
X270460621Y-61628256D01*
X270460000Y-61620400D01*
X270460000Y-57759600D01*
X270460961Y-57749845D01*
X270463806Y-57740466D01*
X270468427Y-57731821D01*
X270474645Y-57724245D01*
X270482221Y-57718027D01*
X270490866Y-57713406D01*
X270500245Y-57710561D01*
X270510000Y-57709600D01*
X270517856Y-57710221D01*
X274988256Y-58421421D01*
X274997738Y-58423902D01*
X275006554Y-58428186D01*
X275014365Y-58434107D01*
X275019594Y-58440000D01*
X275060000Y-58440000D01*
X275060000Y-60940000D01*
X275019494Y-60940000D01*
X275015755Y-60944555D01*
X275008179Y-60950773D01*
X274999534Y-60955394D01*
X274988256Y-60958579D01*
X270517856Y-61669779D01*
X270508071Y-61670363D01*
X270498361Y-61669027D01*
G37*
G36*
X252628906Y-50090221D02*
G01*
X257099306Y-50801421D01*
X257108788Y-50803902D01*
X257117604Y-50808186D01*
X257125415Y-50814107D01*
X257130644Y-50820000D01*
X257147250Y-50820000D01*
X257147250Y-53320000D01*
X257130544Y-53320000D01*
X257126805Y-53324555D01*
X257119229Y-53330773D01*
X257110584Y-53335394D01*
X257099306Y-53338579D01*
X252628906Y-54049779D01*
X252619121Y-54050363D01*
X252609411Y-54049027D01*
X252600148Y-54045822D01*
X252591689Y-54040871D01*
X252584357Y-54034365D01*
X252578436Y-54026554D01*
X252574152Y-54017738D01*
X252571671Y-54008256D01*
X252571050Y-54000400D01*
X252571050Y-50139600D01*
X252572011Y-50129845D01*
X252574856Y-50120466D01*
X252579477Y-50111821D01*
X252585695Y-50104245D01*
X252593271Y-50098027D01*
X252601916Y-50093406D01*
X252611295Y-50090561D01*
X252621050Y-50089600D01*
X252628906Y-50090221D01*
G37*
G36*
X246232889Y-52630973D02*
G01*
X246242152Y-52634178D01*
X246250611Y-52639129D01*
X246257943Y-52645635D01*
X246263864Y-52653446D01*
X246268148Y-52662262D01*
X246270629Y-52671744D01*
X246271250Y-52679600D01*
X246271250Y-56540400D01*
X246270289Y-56550155D01*
X246267444Y-56559534D01*
X246262823Y-56568179D01*
X246256605Y-56575755D01*
X246249029Y-56581973D01*
X246240384Y-56586594D01*
X246231005Y-56589439D01*
X246221250Y-56590400D01*
X246213394Y-56589779D01*
X241742994Y-55878579D01*
X241733512Y-55876098D01*
X241724696Y-55871814D01*
X241716885Y-55865893D01*
X241711656Y-55860000D01*
X241671250Y-55860000D01*
X241671250Y-53360000D01*
X241711756Y-53360000D01*
X241715495Y-53355445D01*
X241723071Y-53349227D01*
X241731716Y-53344606D01*
X241742994Y-53341421D01*
X246213394Y-52630221D01*
X246223179Y-52629637D01*
X246232889Y-52630973D01*
G37*
G36*
X4978906Y-69140221D02*
G01*
X9449306Y-69851421D01*
X9458788Y-69853902D01*
X9467604Y-69858186D01*
X9475415Y-69864107D01*
X9480644Y-69870000D01*
X9497250Y-69870000D01*
X9497250Y-72370000D01*
X9480544Y-72370000D01*
X9476805Y-72374555D01*
X9469229Y-72380773D01*
X9460584Y-72385394D01*
X9449306Y-72388579D01*
X4978906Y-73099779D01*
X4969121Y-73100363D01*
X4959411Y-73099027D01*
X4950148Y-73095822D01*
X4941689Y-73090871D01*
X4934357Y-73084365D01*
X4928436Y-73076554D01*
X4924152Y-73067738D01*
X4921671Y-73058256D01*
X4921050Y-73050400D01*
X4921050Y-69189600D01*
X4922011Y-69179845D01*
X4924856Y-69170466D01*
X4929477Y-69161821D01*
X4935695Y-69154245D01*
X4943271Y-69148027D01*
X4951916Y-69143406D01*
X4961295Y-69140561D01*
X4971050Y-69139600D01*
X4978906Y-69140221D01*
G37*
G36*
X-1417111Y-71680973D02*
G01*
X-1407848Y-71684178D01*
X-1399389Y-71689129D01*
X-1392057Y-71695635D01*
X-1386136Y-71703446D01*
X-1381852Y-71712262D01*
X-1379371Y-71721744D01*
X-1378750Y-71729600D01*
X-1378750Y-75590400D01*
X-1379711Y-75600155D01*
X-1382556Y-75609534D01*
X-1387177Y-75618179D01*
X-1393395Y-75625755D01*
X-1400971Y-75631973D01*
X-1409616Y-75636594D01*
X-1418995Y-75639439D01*
X-1428750Y-75640400D01*
X-1436606Y-75639779D01*
X-5907006Y-74928579D01*
X-5916488Y-74926098D01*
X-5925304Y-74921814D01*
X-5933115Y-74915893D01*
X-5938344Y-74910000D01*
X-5978750Y-74910000D01*
X-5978750Y-72410000D01*
X-5938244Y-72410000D01*
X-5934505Y-72405445D01*
X-5926929Y-72399227D01*
X-5918284Y-72394606D01*
X-5907006Y-72391421D01*
X-1436606Y-71680221D01*
X-1426821Y-71679637D01*
X-1417111Y-71680973D01*
G37*
G36*
X28791406Y-69140221D02*
G01*
X33261806Y-69851421D01*
X33271288Y-69853902D01*
X33280104Y-69858186D01*
X33287915Y-69864107D01*
X33293144Y-69870000D01*
X33309750Y-69870000D01*
X33309750Y-72370000D01*
X33293044Y-72370000D01*
X33289305Y-72374555D01*
X33281729Y-72380773D01*
X33273084Y-72385394D01*
X33261806Y-72388579D01*
X28791406Y-73099779D01*
X28781621Y-73100363D01*
X28771911Y-73099027D01*
X28762648Y-73095822D01*
X28754189Y-73090871D01*
X28746857Y-73084365D01*
X28740936Y-73076554D01*
X28736652Y-73067738D01*
X28734171Y-73058256D01*
X28733550Y-73050400D01*
X28733550Y-69189600D01*
X28734511Y-69179845D01*
X28737356Y-69170466D01*
X28741977Y-69161821D01*
X28748195Y-69154245D01*
X28755771Y-69148027D01*
X28764416Y-69143406D01*
X28773795Y-69140561D01*
X28783550Y-69139600D01*
X28791406Y-69140221D01*
G37*
G36*
X22395389Y-71680973D02*
G01*
X22404652Y-71684178D01*
X22413111Y-71689129D01*
X22420443Y-71695635D01*
X22426364Y-71703446D01*
X22430648Y-71712262D01*
X22433129Y-71721744D01*
X22433750Y-71729600D01*
X22433750Y-75590400D01*
X22432789Y-75600155D01*
X22429944Y-75609534D01*
X22425323Y-75618179D01*
X22419105Y-75625755D01*
X22411529Y-75631973D01*
X22402884Y-75636594D01*
X22393505Y-75639439D01*
X22383750Y-75640400D01*
X22375894Y-75639779D01*
X17905494Y-74928579D01*
X17896012Y-74926098D01*
X17887196Y-74921814D01*
X17879385Y-74915893D01*
X17874156Y-74910000D01*
X17833750Y-74910000D01*
X17833750Y-72410000D01*
X17874256Y-72410000D01*
X17877995Y-72405445D01*
X17885571Y-72399227D01*
X17894216Y-72394606D01*
X17905494Y-72391421D01*
X22375894Y-71680221D01*
X22385679Y-71679637D01*
X22395389Y-71680973D01*
G37*
G36*
X52603906Y-69140221D02*
G01*
X57074306Y-69851421D01*
X57083788Y-69853902D01*
X57092604Y-69858186D01*
X57100415Y-69864107D01*
X57105644Y-69870000D01*
X57122250Y-69870000D01*
X57122250Y-72370000D01*
X57105544Y-72370000D01*
X57101805Y-72374555D01*
X57094229Y-72380773D01*
X57085584Y-72385394D01*
X57074306Y-72388579D01*
X52603906Y-73099779D01*
X52594121Y-73100363D01*
X52584411Y-73099027D01*
X52575148Y-73095822D01*
X52566689Y-73090871D01*
X52559357Y-73084365D01*
X52553436Y-73076554D01*
X52549152Y-73067738D01*
X52546671Y-73058256D01*
X52546050Y-73050400D01*
X52546050Y-69189600D01*
X52547011Y-69179845D01*
X52549856Y-69170466D01*
X52554477Y-69161821D01*
X52560695Y-69154245D01*
X52568271Y-69148027D01*
X52576916Y-69143406D01*
X52586295Y-69140561D01*
X52596050Y-69139600D01*
X52603906Y-69140221D01*
G37*
G36*
X46207889Y-71680973D02*
G01*
X46217152Y-71684178D01*
X46225611Y-71689129D01*
X46232943Y-71695635D01*
X46238864Y-71703446D01*
X46243148Y-71712262D01*
X46245629Y-71721744D01*
X46246250Y-71729600D01*
X46246250Y-75590400D01*
X46245289Y-75600155D01*
X46242444Y-75609534D01*
X46237823Y-75618179D01*
X46231605Y-75625755D01*
X46224029Y-75631973D01*
X46215384Y-75636594D01*
X46206005Y-75639439D01*
X46196250Y-75640400D01*
X46188394Y-75639779D01*
X41717994Y-74928579D01*
X41708512Y-74926098D01*
X41699696Y-74921814D01*
X41691885Y-74915893D01*
X41686656Y-74910000D01*
X41646250Y-74910000D01*
X41646250Y-72410000D01*
X41686756Y-72410000D01*
X41690495Y-72405445D01*
X41698071Y-72399227D01*
X41706716Y-72394606D01*
X41717994Y-72391421D01*
X46188394Y-71680221D01*
X46198179Y-71679637D01*
X46207889Y-71680973D01*
G37*
G36*
X124041406Y-69140221D02*
G01*
X128511806Y-69851421D01*
X128521288Y-69853902D01*
X128530104Y-69858186D01*
X128537915Y-69864107D01*
X128543144Y-69870000D01*
X128559750Y-69870000D01*
X128559750Y-72370000D01*
X128543044Y-72370000D01*
X128539305Y-72374555D01*
X128531729Y-72380773D01*
X128523084Y-72385394D01*
X128511806Y-72388579D01*
X124041406Y-73099779D01*
X124031621Y-73100363D01*
X124021911Y-73099027D01*
X124012648Y-73095822D01*
X124004189Y-73090871D01*
X123996857Y-73084365D01*
X123990936Y-73076554D01*
X123986652Y-73067738D01*
X123984171Y-73058256D01*
X123983550Y-73050400D01*
X123983550Y-69189600D01*
X123984511Y-69179845D01*
X123987356Y-69170466D01*
X123991977Y-69161821D01*
X123998195Y-69154245D01*
X124005771Y-69148027D01*
X124014416Y-69143406D01*
X124023795Y-69140561D01*
X124033550Y-69139600D01*
X124041406Y-69140221D01*
G37*
G36*
X117645389Y-71680973D02*
G01*
X117654652Y-71684178D01*
X117663111Y-71689129D01*
X117670443Y-71695635D01*
X117676364Y-71703446D01*
X117680648Y-71712262D01*
X117683129Y-71721744D01*
X117683750Y-71729600D01*
X117683750Y-75590400D01*
X117682789Y-75600155D01*
X117679944Y-75609534D01*
X117675323Y-75618179D01*
X117669105Y-75625755D01*
X117661529Y-75631973D01*
X117652884Y-75636594D01*
X117643505Y-75639439D01*
X117633750Y-75640400D01*
X117625894Y-75639779D01*
X113155494Y-74928579D01*
X113146012Y-74926098D01*
X113137196Y-74921814D01*
X113129385Y-74915893D01*
X113124156Y-74910000D01*
X113083750Y-74910000D01*
X113083750Y-72410000D01*
X113124256Y-72410000D01*
X113127995Y-72405445D01*
X113135571Y-72399227D01*
X113144216Y-72394606D01*
X113155494Y-72391421D01*
X117625894Y-71680221D01*
X117635679Y-71679637D01*
X117645389Y-71680973D01*
G37*
G36*
X195478906Y-69140221D02*
G01*
X199949306Y-69851421D01*
X199958788Y-69853902D01*
X199967604Y-69858186D01*
X199975415Y-69864107D01*
X199980644Y-69870000D01*
X199997250Y-69870000D01*
X199997250Y-72370000D01*
X199980544Y-72370000D01*
X199976805Y-72374555D01*
X199969229Y-72380773D01*
X199960584Y-72385394D01*
X199949306Y-72388579D01*
X195478906Y-73099779D01*
X195469121Y-73100363D01*
X195459411Y-73099027D01*
X195450148Y-73095822D01*
X195441689Y-73090871D01*
X195434357Y-73084365D01*
X195428436Y-73076554D01*
X195424152Y-73067738D01*
X195421671Y-73058256D01*
X195421050Y-73050400D01*
X195421050Y-69189600D01*
X195422011Y-69179845D01*
X195424856Y-69170466D01*
X195429477Y-69161821D01*
X195435695Y-69154245D01*
X195443271Y-69148027D01*
X195451916Y-69143406D01*
X195461295Y-69140561D01*
X195471050Y-69139600D01*
X195478906Y-69140221D01*
G37*
G36*
X189082889Y-71680973D02*
G01*
X189092152Y-71684178D01*
X189100611Y-71689129D01*
X189107943Y-71695635D01*
X189113864Y-71703446D01*
X189118148Y-71712262D01*
X189120629Y-71721744D01*
X189121250Y-71729600D01*
X189121250Y-75590400D01*
X189120289Y-75600155D01*
X189117444Y-75609534D01*
X189112823Y-75618179D01*
X189106605Y-75625755D01*
X189099029Y-75631973D01*
X189090384Y-75636594D01*
X189081005Y-75639439D01*
X189071250Y-75640400D01*
X189063394Y-75639779D01*
X184592994Y-74928579D01*
X184583512Y-74926098D01*
X184574696Y-74921814D01*
X184566885Y-74915893D01*
X184561656Y-74910000D01*
X184521250Y-74910000D01*
X184521250Y-72410000D01*
X184561756Y-72410000D01*
X184565495Y-72405445D01*
X184573071Y-72399227D01*
X184581716Y-72394606D01*
X184592994Y-72391421D01*
X189063394Y-71680221D01*
X189073179Y-71679637D01*
X189082889Y-71680973D01*
G37*
G36*
X214096094Y-83259779D02*
G01*
X209625694Y-82548579D01*
X209616212Y-82546098D01*
X209607396Y-82541814D01*
X209599585Y-82535893D01*
X209594356Y-82530000D01*
X209577750Y-82530000D01*
X209577750Y-80030000D01*
X209594456Y-80030000D01*
X209598195Y-80025445D01*
X209605771Y-80019227D01*
X209614416Y-80014606D01*
X209625694Y-80011421D01*
X214096094Y-79300221D01*
X214105879Y-79299637D01*
X214115589Y-79300973D01*
X214124852Y-79304178D01*
X214133311Y-79309129D01*
X214140643Y-79315635D01*
X214146564Y-79323446D01*
X214150848Y-79332262D01*
X214153329Y-79341744D01*
X214153950Y-79349600D01*
X214153950Y-83210400D01*
X214152989Y-83220155D01*
X214150144Y-83229534D01*
X214145523Y-83238179D01*
X214139305Y-83245755D01*
X214131729Y-83251973D01*
X214123084Y-83256594D01*
X214113705Y-83259439D01*
X214103950Y-83260400D01*
X214096094Y-83259779D01*
G37*
G36*
X220492111Y-80719027D02*
G01*
X220482848Y-80715822D01*
X220474389Y-80710871D01*
X220467057Y-80704365D01*
X220461136Y-80696554D01*
X220456852Y-80687738D01*
X220454371Y-80678256D01*
X220453750Y-80670400D01*
X220453750Y-76809600D01*
X220454711Y-76799845D01*
X220457556Y-76790466D01*
X220462177Y-76781821D01*
X220468395Y-76774245D01*
X220475971Y-76768027D01*
X220484616Y-76763406D01*
X220493995Y-76760561D01*
X220503750Y-76759600D01*
X220511606Y-76760221D01*
X224982006Y-77471421D01*
X224991488Y-77473902D01*
X225000304Y-77478186D01*
X225008115Y-77484107D01*
X225013344Y-77490000D01*
X225053750Y-77490000D01*
X225053750Y-79990000D01*
X225013244Y-79990000D01*
X225009505Y-79994555D01*
X225001929Y-80000773D01*
X224993284Y-80005394D01*
X224982006Y-80008579D01*
X220511606Y-80719779D01*
X220501821Y-80720363D01*
X220492111Y-80719027D01*
G37*
G36*
X237908594Y-83259779D02*
G01*
X233438194Y-82548579D01*
X233428712Y-82546098D01*
X233419896Y-82541814D01*
X233412085Y-82535893D01*
X233406856Y-82530000D01*
X233390250Y-82530000D01*
X233390250Y-80030000D01*
X233406956Y-80030000D01*
X233410695Y-80025445D01*
X233418271Y-80019227D01*
X233426916Y-80014606D01*
X233438194Y-80011421D01*
X237908594Y-79300221D01*
X237918379Y-79299637D01*
X237928089Y-79300973D01*
X237937352Y-79304178D01*
X237945811Y-79309129D01*
X237953143Y-79315635D01*
X237959064Y-79323446D01*
X237963348Y-79332262D01*
X237965829Y-79341744D01*
X237966450Y-79349600D01*
X237966450Y-83210400D01*
X237965489Y-83220155D01*
X237962644Y-83229534D01*
X237958023Y-83238179D01*
X237951805Y-83245755D01*
X237944229Y-83251973D01*
X237935584Y-83256594D01*
X237926205Y-83259439D01*
X237916450Y-83260400D01*
X237908594Y-83259779D01*
G37*
G36*
X244304611Y-80719027D02*
G01*
X244295348Y-80715822D01*
X244286889Y-80710871D01*
X244279557Y-80704365D01*
X244273636Y-80696554D01*
X244269352Y-80687738D01*
X244266871Y-80678256D01*
X244266250Y-80670400D01*
X244266250Y-76809600D01*
X244267211Y-76799845D01*
X244270056Y-76790466D01*
X244274677Y-76781821D01*
X244280895Y-76774245D01*
X244288471Y-76768027D01*
X244297116Y-76763406D01*
X244306495Y-76760561D01*
X244316250Y-76759600D01*
X244324106Y-76760221D01*
X248794506Y-77471421D01*
X248803988Y-77473902D01*
X248812804Y-77478186D01*
X248820615Y-77484107D01*
X248825844Y-77490000D01*
X248866250Y-77490000D01*
X248866250Y-79990000D01*
X248825744Y-79990000D01*
X248822005Y-79994555D01*
X248814429Y-80000773D01*
X248805784Y-80005394D01*
X248794506Y-80008579D01*
X244324106Y-80719779D01*
X244314321Y-80720363D01*
X244304611Y-80719027D01*
G37*
G36*
X261721094Y-83259779D02*
G01*
X257250694Y-82548579D01*
X257241212Y-82546098D01*
X257232396Y-82541814D01*
X257224585Y-82535893D01*
X257219356Y-82530000D01*
X257202750Y-82530000D01*
X257202750Y-80030000D01*
X257219456Y-80030000D01*
X257223195Y-80025445D01*
X257230771Y-80019227D01*
X257239416Y-80014606D01*
X257250694Y-80011421D01*
X261721094Y-79300221D01*
X261730879Y-79299637D01*
X261740589Y-79300973D01*
X261749852Y-79304178D01*
X261758311Y-79309129D01*
X261765643Y-79315635D01*
X261771564Y-79323446D01*
X261775848Y-79332262D01*
X261778329Y-79341744D01*
X261778950Y-79349600D01*
X261778950Y-83210400D01*
X261777989Y-83220155D01*
X261775144Y-83229534D01*
X261770523Y-83238179D01*
X261764305Y-83245755D01*
X261756729Y-83251973D01*
X261748084Y-83256594D01*
X261738705Y-83259439D01*
X261728950Y-83260400D01*
X261721094Y-83259779D01*
G37*
G36*
X268117111Y-80719027D02*
G01*
X268107848Y-80715822D01*
X268099389Y-80710871D01*
X268092057Y-80704365D01*
X268086136Y-80696554D01*
X268081852Y-80687738D01*
X268079371Y-80678256D01*
X268078750Y-80670400D01*
X268078750Y-76809600D01*
X268079711Y-76799845D01*
X268082556Y-76790466D01*
X268087177Y-76781821D01*
X268093395Y-76774245D01*
X268100971Y-76768027D01*
X268109616Y-76763406D01*
X268118995Y-76760561D01*
X268128750Y-76759600D01*
X268136606Y-76760221D01*
X272607006Y-77471421D01*
X272616488Y-77473902D01*
X272625304Y-77478186D01*
X272633115Y-77484107D01*
X272638344Y-77490000D01*
X272678750Y-77490000D01*
X272678750Y-79990000D01*
X272638244Y-79990000D01*
X272634505Y-79994555D01*
X272626929Y-80000773D01*
X272618284Y-80005394D01*
X272607006Y-80008579D01*
X268136606Y-80719779D01*
X268126821Y-80720363D01*
X268117111Y-80719027D01*
G37*
G36*
X8560861Y-80719027D02*
G01*
X8551598Y-80715822D01*
X8543139Y-80710871D01*
X8535807Y-80704365D01*
X8529886Y-80696554D01*
X8525602Y-80687738D01*
X8523121Y-80678256D01*
X8522500Y-80670400D01*
X8522500Y-76809600D01*
X8523461Y-76799845D01*
X8526306Y-76790466D01*
X8530927Y-76781821D01*
X8537145Y-76774245D01*
X8544721Y-76768027D01*
X8553366Y-76763406D01*
X8562745Y-76760561D01*
X8572500Y-76759600D01*
X8580356Y-76760221D01*
X13050756Y-77471421D01*
X13060238Y-77473902D01*
X13069054Y-77478186D01*
X13076865Y-77484107D01*
X13082094Y-77490000D01*
X13122500Y-77490000D01*
X13122500Y-79990000D01*
X13081994Y-79990000D01*
X13078255Y-79994555D01*
X13070679Y-80000773D01*
X13062034Y-80005394D01*
X13050756Y-80008579D01*
X8580356Y-80719779D01*
X8570571Y-80720363D01*
X8560861Y-80719027D01*
G37*
G36*
X2164844Y-83259779D02*
G01*
X-2305556Y-82548579D01*
X-2315038Y-82546098D01*
X-2323854Y-82541814D01*
X-2331665Y-82535893D01*
X-2336894Y-82530000D01*
X-2353500Y-82530000D01*
X-2353500Y-80030000D01*
X-2336794Y-80030000D01*
X-2333055Y-80025445D01*
X-2325479Y-80019227D01*
X-2316834Y-80014606D01*
X-2305556Y-80011421D01*
X2164844Y-79300221D01*
X2174629Y-79299637D01*
X2184339Y-79300973D01*
X2193602Y-79304178D01*
X2202061Y-79309129D01*
X2209393Y-79315635D01*
X2215314Y-79323446D01*
X2219598Y-79332262D01*
X2222079Y-79341744D01*
X2222700Y-79349600D01*
X2222700Y-83210400D01*
X2221739Y-83220155D01*
X2218894Y-83229534D01*
X2214273Y-83238179D01*
X2208055Y-83245755D01*
X2200479Y-83251973D01*
X2191834Y-83256594D01*
X2182455Y-83259439D01*
X2172700Y-83260400D01*
X2164844Y-83259779D01*
G37*
G36*
X25977344Y-83259779D02*
G01*
X21506944Y-82548579D01*
X21497462Y-82546098D01*
X21488646Y-82541814D01*
X21480835Y-82535893D01*
X21475606Y-82530000D01*
X21459000Y-82530000D01*
X21459000Y-80030000D01*
X21475706Y-80030000D01*
X21479445Y-80025445D01*
X21487021Y-80019227D01*
X21495666Y-80014606D01*
X21506944Y-80011421D01*
X25977344Y-79300221D01*
X25987129Y-79299637D01*
X25996839Y-79300973D01*
X26006102Y-79304178D01*
X26014561Y-79309129D01*
X26021893Y-79315635D01*
X26027814Y-79323446D01*
X26032098Y-79332262D01*
X26034579Y-79341744D01*
X26035200Y-79349600D01*
X26035200Y-83210400D01*
X26034239Y-83220155D01*
X26031394Y-83229534D01*
X26026773Y-83238179D01*
X26020555Y-83245755D01*
X26012979Y-83251973D01*
X26004334Y-83256594D01*
X25994955Y-83259439D01*
X25985200Y-83260400D01*
X25977344Y-83259779D01*
G37*
G36*
X32373361Y-80719027D02*
G01*
X32364098Y-80715822D01*
X32355639Y-80710871D01*
X32348307Y-80704365D01*
X32342386Y-80696554D01*
X32338102Y-80687738D01*
X32335621Y-80678256D01*
X32335000Y-80670400D01*
X32335000Y-76809600D01*
X32335961Y-76799845D01*
X32338806Y-76790466D01*
X32343427Y-76781821D01*
X32349645Y-76774245D01*
X32357221Y-76768027D01*
X32365866Y-76763406D01*
X32375245Y-76760561D01*
X32385000Y-76759600D01*
X32392856Y-76760221D01*
X36863256Y-77471421D01*
X36872738Y-77473902D01*
X36881554Y-77478186D01*
X36889365Y-77484107D01*
X36894594Y-77490000D01*
X36935000Y-77490000D01*
X36935000Y-79990000D01*
X36894494Y-79990000D01*
X36890755Y-79994555D01*
X36883179Y-80000773D01*
X36874534Y-80005394D01*
X36863256Y-80008579D01*
X32392856Y-80719779D01*
X32383071Y-80720363D01*
X32373361Y-80719027D01*
G37*
G36*
X56185861Y-80719027D02*
G01*
X56176598Y-80715822D01*
X56168139Y-80710871D01*
X56160807Y-80704365D01*
X56154886Y-80696554D01*
X56150602Y-80687738D01*
X56148121Y-80678256D01*
X56147500Y-80670400D01*
X56147500Y-76809600D01*
X56148461Y-76799845D01*
X56151306Y-76790466D01*
X56155927Y-76781821D01*
X56162145Y-76774245D01*
X56169721Y-76768027D01*
X56178366Y-76763406D01*
X56187745Y-76760561D01*
X56197500Y-76759600D01*
X56205356Y-76760221D01*
X60675756Y-77471421D01*
X60685238Y-77473902D01*
X60694054Y-77478186D01*
X60701865Y-77484107D01*
X60707094Y-77490000D01*
X60747500Y-77490000D01*
X60747500Y-79990000D01*
X60706994Y-79990000D01*
X60703255Y-79994555D01*
X60695679Y-80000773D01*
X60687034Y-80005394D01*
X60675756Y-80008579D01*
X56205356Y-80719779D01*
X56195571Y-80720363D01*
X56185861Y-80719027D01*
G37*
G36*
X49789844Y-83259779D02*
G01*
X45319444Y-82548579D01*
X45309962Y-82546098D01*
X45301146Y-82541814D01*
X45293335Y-82535893D01*
X45288106Y-82530000D01*
X45271500Y-82530000D01*
X45271500Y-80030000D01*
X45288206Y-80030000D01*
X45291945Y-80025445D01*
X45299521Y-80019227D01*
X45308166Y-80014606D01*
X45319444Y-80011421D01*
X49789844Y-79300221D01*
X49799629Y-79299637D01*
X49809339Y-79300973D01*
X49818602Y-79304178D01*
X49827061Y-79309129D01*
X49834393Y-79315635D01*
X49840314Y-79323446D01*
X49844598Y-79332262D01*
X49847079Y-79341744D01*
X49847700Y-79349600D01*
X49847700Y-83210400D01*
X49846739Y-83220155D01*
X49843894Y-83229534D01*
X49839273Y-83238179D01*
X49833055Y-83245755D01*
X49825479Y-83251973D01*
X49816834Y-83256594D01*
X49807455Y-83259439D01*
X49797700Y-83260400D01*
X49789844Y-83259779D01*
G37*
G36*
X130752344Y-83259779D02*
G01*
X126281944Y-82548579D01*
X126272462Y-82546098D01*
X126263646Y-82541814D01*
X126255835Y-82535893D01*
X126250606Y-82530000D01*
X126234000Y-82530000D01*
X126234000Y-80030000D01*
X126250706Y-80030000D01*
X126254445Y-80025445D01*
X126262021Y-80019227D01*
X126270666Y-80014606D01*
X126281944Y-80011421D01*
X130752344Y-79300221D01*
X130762129Y-79299637D01*
X130771839Y-79300973D01*
X130781102Y-79304178D01*
X130789561Y-79309129D01*
X130796893Y-79315635D01*
X130802814Y-79323446D01*
X130807098Y-79332262D01*
X130809579Y-79341744D01*
X130810200Y-79349600D01*
X130810200Y-83210400D01*
X130809239Y-83220155D01*
X130806394Y-83229534D01*
X130801773Y-83238179D01*
X130795555Y-83245755D01*
X130787979Y-83251973D01*
X130779334Y-83256594D01*
X130769955Y-83259439D01*
X130760200Y-83260400D01*
X130752344Y-83259779D01*
G37*
G36*
X137148361Y-80719027D02*
G01*
X137139098Y-80715822D01*
X137130639Y-80710871D01*
X137123307Y-80704365D01*
X137117386Y-80696554D01*
X137113102Y-80687738D01*
X137110621Y-80678256D01*
X137110000Y-80670400D01*
X137110000Y-76809600D01*
X137110961Y-76799845D01*
X137113806Y-76790466D01*
X137118427Y-76781821D01*
X137124645Y-76774245D01*
X137132221Y-76768027D01*
X137140866Y-76763406D01*
X137150245Y-76760561D01*
X137160000Y-76759600D01*
X137167856Y-76760221D01*
X141638256Y-77471421D01*
X141647738Y-77473902D01*
X141656554Y-77478186D01*
X141664365Y-77484107D01*
X141669594Y-77490000D01*
X141710000Y-77490000D01*
X141710000Y-79990000D01*
X141669494Y-79990000D01*
X141665755Y-79994555D01*
X141658179Y-80000773D01*
X141649534Y-80005394D01*
X141638256Y-80008579D01*
X137167856Y-80719779D01*
X137158071Y-80720363D01*
X137148361Y-80719027D01*
G37*
G36*
X210514139Y-71680973D02*
G01*
X210523402Y-71684178D01*
X210531861Y-71689129D01*
X210539193Y-71695635D01*
X210545114Y-71703446D01*
X210549398Y-71712262D01*
X210551879Y-71721744D01*
X210552500Y-71729600D01*
X210552500Y-75590400D01*
X210551539Y-75600155D01*
X210548694Y-75609534D01*
X210544073Y-75618179D01*
X210537855Y-75625755D01*
X210530279Y-75631973D01*
X210521634Y-75636594D01*
X210512255Y-75639439D01*
X210502500Y-75640400D01*
X210494644Y-75639779D01*
X206024244Y-74928579D01*
X206014762Y-74926098D01*
X206005946Y-74921814D01*
X205998135Y-74915893D01*
X205992906Y-74910000D01*
X205952500Y-74910000D01*
X205952500Y-72410000D01*
X205993006Y-72410000D01*
X205996745Y-72405445D01*
X206004321Y-72399227D01*
X206012966Y-72394606D01*
X206024244Y-72391421D01*
X210494644Y-71680221D01*
X210504429Y-71679637D01*
X210514139Y-71680973D01*
G37*
G36*
X216910156Y-69140221D02*
G01*
X221380556Y-69851421D01*
X221390038Y-69853902D01*
X221398854Y-69858186D01*
X221406665Y-69864107D01*
X221411894Y-69870000D01*
X221428500Y-69870000D01*
X221428500Y-72370000D01*
X221411794Y-72370000D01*
X221408055Y-72374555D01*
X221400479Y-72380773D01*
X221391834Y-72385394D01*
X221380556Y-72388579D01*
X216910156Y-73099779D01*
X216900371Y-73100363D01*
X216890661Y-73099027D01*
X216881398Y-73095822D01*
X216872939Y-73090871D01*
X216865607Y-73084365D01*
X216859686Y-73076554D01*
X216855402Y-73067738D01*
X216852921Y-73058256D01*
X216852300Y-73050400D01*
X216852300Y-69189600D01*
X216853261Y-69179845D01*
X216856106Y-69170466D01*
X216860727Y-69161821D01*
X216866945Y-69154245D01*
X216874521Y-69148027D01*
X216883166Y-69143406D01*
X216892545Y-69140561D01*
X216902300Y-69139600D01*
X216910156Y-69140221D01*
G37*
G36*
X240722656Y-69140221D02*
G01*
X245193056Y-69851421D01*
X245202538Y-69853902D01*
X245211354Y-69858186D01*
X245219165Y-69864107D01*
X245224394Y-69870000D01*
X245241000Y-69870000D01*
X245241000Y-72370000D01*
X245224294Y-72370000D01*
X245220555Y-72374555D01*
X245212979Y-72380773D01*
X245204334Y-72385394D01*
X245193056Y-72388579D01*
X240722656Y-73099779D01*
X240712871Y-73100363D01*
X240703161Y-73099027D01*
X240693898Y-73095822D01*
X240685439Y-73090871D01*
X240678107Y-73084365D01*
X240672186Y-73076554D01*
X240667902Y-73067738D01*
X240665421Y-73058256D01*
X240664800Y-73050400D01*
X240664800Y-69189600D01*
X240665761Y-69179845D01*
X240668606Y-69170466D01*
X240673227Y-69161821D01*
X240679445Y-69154245D01*
X240687021Y-69148027D01*
X240695666Y-69143406D01*
X240705045Y-69140561D01*
X240714800Y-69139600D01*
X240722656Y-69140221D01*
G37*
G36*
X234326639Y-71680973D02*
G01*
X234335902Y-71684178D01*
X234344361Y-71689129D01*
X234351693Y-71695635D01*
X234357614Y-71703446D01*
X234361898Y-71712262D01*
X234364379Y-71721744D01*
X234365000Y-71729600D01*
X234365000Y-75590400D01*
X234364039Y-75600155D01*
X234361194Y-75609534D01*
X234356573Y-75618179D01*
X234350355Y-75625755D01*
X234342779Y-75631973D01*
X234334134Y-75636594D01*
X234324755Y-75639439D01*
X234315000Y-75640400D01*
X234307144Y-75639779D01*
X229836744Y-74928579D01*
X229827262Y-74926098D01*
X229818446Y-74921814D01*
X229810635Y-74915893D01*
X229805406Y-74910000D01*
X229765000Y-74910000D01*
X229765000Y-72410000D01*
X229805506Y-72410000D01*
X229809245Y-72405445D01*
X229816821Y-72399227D01*
X229825466Y-72394606D01*
X229836744Y-72391421D01*
X234307144Y-71680221D01*
X234316929Y-71679637D01*
X234326639Y-71680973D01*
G37*
G36*
X258139139Y-71680973D02*
G01*
X258148402Y-71684178D01*
X258156861Y-71689129D01*
X258164193Y-71695635D01*
X258170114Y-71703446D01*
X258174398Y-71712262D01*
X258176879Y-71721744D01*
X258177500Y-71729600D01*
X258177500Y-75590400D01*
X258176539Y-75600155D01*
X258173694Y-75609534D01*
X258169073Y-75618179D01*
X258162855Y-75625755D01*
X258155279Y-75631973D01*
X258146634Y-75636594D01*
X258137255Y-75639439D01*
X258127500Y-75640400D01*
X258119644Y-75639779D01*
X253649244Y-74928579D01*
X253639762Y-74926098D01*
X253630946Y-74921814D01*
X253623135Y-74915893D01*
X253617906Y-74910000D01*
X253577500Y-74910000D01*
X253577500Y-72410000D01*
X253618006Y-72410000D01*
X253621745Y-72405445D01*
X253629321Y-72399227D01*
X253637966Y-72394606D01*
X253649244Y-72391421D01*
X258119644Y-71680221D01*
X258129429Y-71679637D01*
X258139139Y-71680973D01*
G37*
G36*
X264535156Y-69140221D02*
G01*
X269005556Y-69851421D01*
X269015038Y-69853902D01*
X269023854Y-69858186D01*
X269031665Y-69864107D01*
X269036894Y-69870000D01*
X269053500Y-69870000D01*
X269053500Y-72370000D01*
X269036794Y-72370000D01*
X269033055Y-72374555D01*
X269025479Y-72380773D01*
X269016834Y-72385394D01*
X269005556Y-72388579D01*
X264535156Y-73099779D01*
X264525371Y-73100363D01*
X264515661Y-73099027D01*
X264506398Y-73095822D01*
X264497939Y-73090871D01*
X264490607Y-73084365D01*
X264484686Y-73076554D01*
X264480402Y-73067738D01*
X264477921Y-73058256D01*
X264477300Y-73050400D01*
X264477300Y-69189600D01*
X264478261Y-69179845D01*
X264481106Y-69170466D01*
X264485727Y-69161821D01*
X264491945Y-69154245D01*
X264499521Y-69148027D01*
X264508166Y-69143406D01*
X264517545Y-69140561D01*
X264527300Y-69139600D01*
X264535156Y-69140221D01*
G37*
G36*
G01*
X15356250Y-14656250D02*
X14806250Y-14656250D01*
G75*
G02*
X14606250Y-14456250I0J200000D01*
G01*
X14606250Y-14056250D01*
G75*
G02*
X14806250Y-13856250I200000J0D01*
G01*
X15356250Y-13856250D01*
G75*
G02*
X15556250Y-14056250I0J-200000D01*
G01*
X15556250Y-14456250D01*
G75*
G02*
X15356250Y-14656250I-200000J0D01*
G01*
G37*
G36*
G01*
X15356250Y-16306250D02*
X14806250Y-16306250D01*
G75*
G02*
X14606250Y-16106250I0J200000D01*
G01*
X14606250Y-15706250D01*
G75*
G02*
X14806250Y-15506250I200000J0D01*
G01*
X15356250Y-15506250D01*
G75*
G02*
X15556250Y-15706250I0J-200000D01*
G01*
X15556250Y-16106250D01*
G75*
G02*
X15356250Y-16306250I-200000J0D01*
G01*
G37*
G36*
G01*
X13218750Y-15506250D02*
X13768750Y-15506250D01*
G75*
G02*
X13968750Y-15706250I0J-200000D01*
G01*
X13968750Y-16106250D01*
G75*
G02*
X13768750Y-16306250I-200000J0D01*
G01*
X13218750Y-16306250D01*
G75*
G02*
X13018750Y-16106250I0J200000D01*
G01*
X13018750Y-15706250D01*
G75*
G02*
X13218750Y-15506250I200000J0D01*
G01*
G37*
G36*
G01*
X13218750Y-13856250D02*
X13768750Y-13856250D01*
G75*
G02*
X13968750Y-14056250I0J-200000D01*
G01*
X13968750Y-14456250D01*
G75*
G02*
X13768750Y-14656250I-200000J0D01*
G01*
X13218750Y-14656250D01*
G75*
G02*
X13018750Y-14456250I0J200000D01*
G01*
X13018750Y-14056250D01*
G75*
G02*
X13218750Y-13856250I200000J0D01*
G01*
G37*
G36*
G01*
X22585066Y-36435975D02*
X22973975Y-36047066D01*
G75*
G02*
X23256817Y-36047066I141421J-141421D01*
G01*
X23539660Y-36329909D01*
G75*
G02*
X23539660Y-36612751I-141421J-141421D01*
G01*
X23150751Y-37001660D01*
G75*
G02*
X22867909Y-37001660I-141421J141421D01*
G01*
X22585066Y-36718817D01*
G75*
G02*
X22585066Y-36435975I141421J141421D01*
G01*
G37*
G36*
G01*
X21418340Y-35269249D02*
X21807249Y-34880340D01*
G75*
G02*
X22090091Y-34880340I141421J-141421D01*
G01*
X22372934Y-35163183D01*
G75*
G02*
X22372934Y-35446025I-141421J-141421D01*
G01*
X21984025Y-35834934D01*
G75*
G02*
X21701183Y-35834934I-141421J141421D01*
G01*
X21418340Y-35552091D01*
G75*
G02*
X21418340Y-35269249I141421J141421D01*
G01*
G37*
G36*
X17630810Y-26231015D02*
G01*
X17241901Y-26619924D01*
X16110530Y-25488553D01*
X16499439Y-25099644D01*
X17630810Y-26231015D01*
G37*
G36*
X17065125Y-26796701D02*
G01*
X16676216Y-27185610D01*
X15544845Y-26054239D01*
X15933754Y-25665330D01*
X17065125Y-26796701D01*
G37*
G36*
X16499439Y-27362386D02*
G01*
X16110530Y-27751295D01*
X14979159Y-26619924D01*
X15368068Y-26231015D01*
X16499439Y-27362386D01*
G37*
G36*
X15933754Y-27928071D02*
G01*
X15544845Y-28316980D01*
X14413474Y-27185609D01*
X14802383Y-26796700D01*
X15933754Y-27928071D01*
G37*
G36*
X15368068Y-28493757D02*
G01*
X14979159Y-28882666D01*
X13847788Y-27751295D01*
X14236697Y-27362386D01*
X15368068Y-28493757D01*
G37*
G36*
X14802383Y-29059442D02*
G01*
X14413474Y-29448351D01*
X13282103Y-28316980D01*
X13671012Y-27928071D01*
X14802383Y-29059442D01*
G37*
G36*
X14236698Y-29625128D02*
G01*
X13847789Y-30014037D01*
X12716418Y-28882666D01*
X13105327Y-28493757D01*
X14236698Y-29625128D01*
G37*
G36*
X13671012Y-30190813D02*
G01*
X13282103Y-30579722D01*
X12150732Y-29448351D01*
X12539641Y-29059442D01*
X13671012Y-30190813D01*
G37*
G36*
X13282103Y-31110052D02*
G01*
X13671012Y-31498961D01*
X12539641Y-32630332D01*
X12150732Y-32241423D01*
X13282103Y-31110052D01*
G37*
G36*
X13847789Y-31675737D02*
G01*
X14236698Y-32064646D01*
X13105327Y-33196017D01*
X12716418Y-32807108D01*
X13847789Y-31675737D01*
G37*
G36*
X14413474Y-32241423D02*
G01*
X14802383Y-32630332D01*
X13671012Y-33761703D01*
X13282103Y-33372794D01*
X14413474Y-32241423D01*
G37*
G36*
X14979159Y-32807108D02*
G01*
X15368068Y-33196017D01*
X14236697Y-34327388D01*
X13847788Y-33938479D01*
X14979159Y-32807108D01*
G37*
G36*
X15544845Y-33372794D02*
G01*
X15933754Y-33761703D01*
X14802383Y-34893074D01*
X14413474Y-34504165D01*
X15544845Y-33372794D01*
G37*
G36*
X16110530Y-33938479D02*
G01*
X16499439Y-34327388D01*
X15368068Y-35458759D01*
X14979159Y-35069850D01*
X16110530Y-33938479D01*
G37*
G36*
X16676216Y-34504164D02*
G01*
X17065125Y-34893073D01*
X15933754Y-36024444D01*
X15544845Y-35635535D01*
X16676216Y-34504164D01*
G37*
G36*
X17241901Y-35069850D02*
G01*
X17630810Y-35458759D01*
X16499439Y-36590130D01*
X16110530Y-36201221D01*
X17241901Y-35069850D01*
G37*
G36*
X19681420Y-36201221D02*
G01*
X19292511Y-36590130D01*
X18161140Y-35458759D01*
X18550049Y-35069850D01*
X19681420Y-36201221D01*
G37*
G36*
X20247105Y-35635535D02*
G01*
X19858196Y-36024444D01*
X18726825Y-34893073D01*
X19115734Y-34504164D01*
X20247105Y-35635535D01*
G37*
G36*
X20812791Y-35069850D02*
G01*
X20423882Y-35458759D01*
X19292511Y-34327388D01*
X19681420Y-33938479D01*
X20812791Y-35069850D01*
G37*
G36*
X21378476Y-34504165D02*
G01*
X20989567Y-34893074D01*
X19858196Y-33761703D01*
X20247105Y-33372794D01*
X21378476Y-34504165D01*
G37*
G36*
X21944162Y-33938479D02*
G01*
X21555253Y-34327388D01*
X20423882Y-33196017D01*
X20812791Y-32807108D01*
X21944162Y-33938479D01*
G37*
G36*
X22509847Y-33372794D02*
G01*
X22120938Y-33761703D01*
X20989567Y-32630332D01*
X21378476Y-32241423D01*
X22509847Y-33372794D01*
G37*
G36*
X23075532Y-32807108D02*
G01*
X22686623Y-33196017D01*
X21555252Y-32064646D01*
X21944161Y-31675737D01*
X23075532Y-32807108D01*
G37*
G36*
X23641218Y-32241423D02*
G01*
X23252309Y-32630332D01*
X22120938Y-31498961D01*
X22509847Y-31110052D01*
X23641218Y-32241423D01*
G37*
G36*
X23252309Y-29059442D02*
G01*
X23641218Y-29448351D01*
X22509847Y-30579722D01*
X22120938Y-30190813D01*
X23252309Y-29059442D01*
G37*
G36*
X22686623Y-28493757D02*
G01*
X23075532Y-28882666D01*
X21944161Y-30014037D01*
X21555252Y-29625128D01*
X22686623Y-28493757D01*
G37*
G36*
X22120938Y-27928071D02*
G01*
X22509847Y-28316980D01*
X21378476Y-29448351D01*
X20989567Y-29059442D01*
X22120938Y-27928071D01*
G37*
G36*
X21555253Y-27362386D02*
G01*
X21944162Y-27751295D01*
X20812791Y-28882666D01*
X20423882Y-28493757D01*
X21555253Y-27362386D01*
G37*
G36*
X20989567Y-26796700D02*
G01*
X21378476Y-27185609D01*
X20247105Y-28316980D01*
X19858196Y-27928071D01*
X20989567Y-26796700D01*
G37*
G36*
X20423882Y-26231015D02*
G01*
X20812791Y-26619924D01*
X19681420Y-27751295D01*
X19292511Y-27362386D01*
X20423882Y-26231015D01*
G37*
G36*
X19858196Y-25665330D02*
G01*
X20247105Y-26054239D01*
X19115734Y-27185610D01*
X18726825Y-26796701D01*
X19858196Y-25665330D01*
G37*
G36*
X19292511Y-25099644D02*
G01*
X19681420Y-25488553D01*
X18550049Y-26619924D01*
X18161140Y-26231015D01*
X19292511Y-25099644D01*
G37*
D12*
X26416000Y-7400000D03*
X27366000Y-7400000D03*
X25466000Y-7400000D03*
X25466000Y-9600000D03*
X26416000Y-9600000D03*
X27366000Y-9600000D03*
D11*
G36*
X19935947Y-22638704D02*
G01*
X20784475Y-21790176D01*
X21774425Y-22780126D01*
X20925897Y-23628654D01*
X19935947Y-22638704D01*
G37*
G36*
X21491582Y-24194339D02*
G01*
X22340110Y-23345811D01*
X23330060Y-24335761D01*
X22481532Y-25184289D01*
X21491582Y-24194339D01*
G37*
G36*
X22693663Y-22992258D02*
G01*
X23542191Y-22143730D01*
X24532141Y-23133680D01*
X23683613Y-23982208D01*
X22693663Y-22992258D01*
G37*
G36*
X21138028Y-21436623D02*
G01*
X21986556Y-20588095D01*
X22976506Y-21578045D01*
X22127978Y-22426573D01*
X21138028Y-21436623D01*
G37*
G36*
X4978906Y-31040221D02*
G01*
X9449306Y-31751421D01*
X9458788Y-31753902D01*
X9467604Y-31758186D01*
X9475415Y-31764107D01*
X9480644Y-31770000D01*
X9497250Y-31770000D01*
X9497250Y-34270000D01*
X9480544Y-34270000D01*
X9476805Y-34274555D01*
X9469229Y-34280773D01*
X9460584Y-34285394D01*
X9449306Y-34288579D01*
X4978906Y-34999779D01*
X4969121Y-35000363D01*
X4959411Y-34999027D01*
X4950148Y-34995822D01*
X4941689Y-34990871D01*
X4934357Y-34984365D01*
X4928436Y-34976554D01*
X4924152Y-34967738D01*
X4921671Y-34958256D01*
X4921050Y-34950400D01*
X4921050Y-31089600D01*
X4922011Y-31079845D01*
X4924856Y-31070466D01*
X4929477Y-31061821D01*
X4935695Y-31054245D01*
X4943271Y-31048027D01*
X4951916Y-31043406D01*
X4961295Y-31040561D01*
X4971050Y-31039600D01*
X4978906Y-31040221D01*
G37*
G36*
X-1417111Y-33580973D02*
G01*
X-1407848Y-33584178D01*
X-1399389Y-33589129D01*
X-1392057Y-33595635D01*
X-1386136Y-33603446D01*
X-1381852Y-33612262D01*
X-1379371Y-33621744D01*
X-1378750Y-33629600D01*
X-1378750Y-37490400D01*
X-1379711Y-37500155D01*
X-1382556Y-37509534D01*
X-1387177Y-37518179D01*
X-1393395Y-37525755D01*
X-1400971Y-37531973D01*
X-1409616Y-37536594D01*
X-1418995Y-37539439D01*
X-1428750Y-37540400D01*
X-1436606Y-37539779D01*
X-5907006Y-36828579D01*
X-5916488Y-36826098D01*
X-5925304Y-36821814D01*
X-5933115Y-36815893D01*
X-5938344Y-36810000D01*
X-5978750Y-36810000D01*
X-5978750Y-34310000D01*
X-5938244Y-34310000D01*
X-5934505Y-34305445D01*
X-5926929Y-34299227D01*
X-5918284Y-34294606D01*
X-5907006Y-34291421D01*
X-1436606Y-33580221D01*
X-1426821Y-33579637D01*
X-1417111Y-33580973D01*
G37*
D10*
X239712500Y-2443750D03*
X239712500Y856250D03*
D11*
G36*
X245052344Y-7059779D02*
G01*
X240581944Y-6348579D01*
X240572462Y-6346098D01*
X240563646Y-6341814D01*
X240555835Y-6335893D01*
X240550606Y-6330000D01*
X240534000Y-6330000D01*
X240534000Y-3830000D01*
X240550706Y-3830000D01*
X240554445Y-3825445D01*
X240562021Y-3819227D01*
X240570666Y-3814606D01*
X240581944Y-3811421D01*
X245052344Y-3100221D01*
X245062129Y-3099637D01*
X245071839Y-3100973D01*
X245081102Y-3104178D01*
X245089561Y-3109129D01*
X245096893Y-3115635D01*
X245102814Y-3123446D01*
X245107098Y-3132262D01*
X245109579Y-3141744D01*
X245110200Y-3149600D01*
X245110200Y-7010400D01*
X245109239Y-7020155D01*
X245106394Y-7029534D01*
X245101773Y-7038179D01*
X245095555Y-7045755D01*
X245087979Y-7051973D01*
X245079334Y-7056594D01*
X245069955Y-7059439D01*
X245060200Y-7060400D01*
X245052344Y-7059779D01*
G37*
G36*
X251448361Y-4519027D02*
G01*
X251439098Y-4515822D01*
X251430639Y-4510871D01*
X251423307Y-4504365D01*
X251417386Y-4496554D01*
X251413102Y-4487738D01*
X251410621Y-4478256D01*
X251410000Y-4470400D01*
X251410000Y-609600D01*
X251410961Y-599845D01*
X251413806Y-590466D01*
X251418427Y-581821D01*
X251424645Y-574245D01*
X251432221Y-568027D01*
X251440866Y-563406D01*
X251450245Y-560561D01*
X251460000Y-559600D01*
X251467856Y-560221D01*
X255938256Y-1271421D01*
X255947738Y-1273902D01*
X255956554Y-1278186D01*
X255964365Y-1284107D01*
X255969594Y-1290000D01*
X256010000Y-1290000D01*
X256010000Y-3790000D01*
X255969494Y-3790000D01*
X255965755Y-3794555D01*
X255958179Y-3800773D01*
X255949534Y-3805394D01*
X255938256Y-3808579D01*
X251467856Y-4519779D01*
X251458071Y-4520363D01*
X251448361Y-4519027D01*
G37*
G36*
X264102344Y-7059779D02*
G01*
X259631944Y-6348579D01*
X259622462Y-6346098D01*
X259613646Y-6341814D01*
X259605835Y-6335893D01*
X259600606Y-6330000D01*
X259584000Y-6330000D01*
X259584000Y-3830000D01*
X259600706Y-3830000D01*
X259604445Y-3825445D01*
X259612021Y-3819227D01*
X259620666Y-3814606D01*
X259631944Y-3811421D01*
X264102344Y-3100221D01*
X264112129Y-3099637D01*
X264121839Y-3100973D01*
X264131102Y-3104178D01*
X264139561Y-3109129D01*
X264146893Y-3115635D01*
X264152814Y-3123446D01*
X264157098Y-3132262D01*
X264159579Y-3141744D01*
X264160200Y-3149600D01*
X264160200Y-7010400D01*
X264159239Y-7020155D01*
X264156394Y-7029534D01*
X264151773Y-7038179D01*
X264145555Y-7045755D01*
X264137979Y-7051973D01*
X264129334Y-7056594D01*
X264119955Y-7059439D01*
X264110200Y-7060400D01*
X264102344Y-7059779D01*
G37*
G36*
X270498361Y-4519027D02*
G01*
X270489098Y-4515822D01*
X270480639Y-4510871D01*
X270473307Y-4504365D01*
X270467386Y-4496554D01*
X270463102Y-4487738D01*
X270460621Y-4478256D01*
X270460000Y-4470400D01*
X270460000Y-609600D01*
X270460961Y-599845D01*
X270463806Y-590466D01*
X270468427Y-581821D01*
X270474645Y-574245D01*
X270482221Y-568027D01*
X270490866Y-563406D01*
X270500245Y-560561D01*
X270510000Y-559600D01*
X270517856Y-560221D01*
X274988256Y-1271421D01*
X274997738Y-1273902D01*
X275006554Y-1278186D01*
X275014365Y-1284107D01*
X275019594Y-1290000D01*
X275060000Y-1290000D01*
X275060000Y-3790000D01*
X275019494Y-3790000D01*
X275015755Y-3794555D01*
X275008179Y-3800773D01*
X274999534Y-3805394D01*
X274988256Y-3808579D01*
X270517856Y-4519779D01*
X270508071Y-4520363D01*
X270498361Y-4519027D01*
G37*
D13*
X49393750Y-24585000D03*
X43093750Y-24585000D03*
X49393750Y-28385000D03*
X43093750Y-28385000D03*
G36*
G01*
X11793820Y-26245322D02*
X11440266Y-26598876D01*
G75*
G02*
X11122068Y-26598876I-159099J159099D01*
G01*
X10803870Y-26280678D01*
G75*
G02*
X10803870Y-25962480I159099J159099D01*
G01*
X11157424Y-25608926D01*
G75*
G02*
X11475622Y-25608926I159099J-159099D01*
G01*
X11793820Y-25927124D01*
G75*
G02*
X11793820Y-26245322I-159099J-159099D01*
G01*
G37*
G36*
G01*
X12889836Y-27341338D02*
X12536282Y-27694892D01*
G75*
G02*
X12218084Y-27694892I-159099J159099D01*
G01*
X11899886Y-27376694D01*
G75*
G02*
X11899886Y-27058496I159099J159099D01*
G01*
X12253440Y-26704942D01*
G75*
G02*
X12571638Y-26704942I159099J-159099D01*
G01*
X12889836Y-27023140D01*
G75*
G02*
X12889836Y-27341338I-159099J-159099D01*
G01*
G37*
D11*
G36*
X14503906Y-50090221D02*
G01*
X18974306Y-50801421D01*
X18983788Y-50803902D01*
X18992604Y-50808186D01*
X19000415Y-50814107D01*
X19005644Y-50820000D01*
X19022250Y-50820000D01*
X19022250Y-53320000D01*
X19005544Y-53320000D01*
X19001805Y-53324555D01*
X18994229Y-53330773D01*
X18985584Y-53335394D01*
X18974306Y-53338579D01*
X14503906Y-54049779D01*
X14494121Y-54050363D01*
X14484411Y-54049027D01*
X14475148Y-54045822D01*
X14466689Y-54040871D01*
X14459357Y-54034365D01*
X14453436Y-54026554D01*
X14449152Y-54017738D01*
X14446671Y-54008256D01*
X14446050Y-54000400D01*
X14446050Y-50139600D01*
X14447011Y-50129845D01*
X14449856Y-50120466D01*
X14454477Y-50111821D01*
X14460695Y-50104245D01*
X14468271Y-50098027D01*
X14476916Y-50093406D01*
X14486295Y-50090561D01*
X14496050Y-50089600D01*
X14503906Y-50090221D01*
G37*
G36*
X8107889Y-52630973D02*
G01*
X8117152Y-52634178D01*
X8125611Y-52639129D01*
X8132943Y-52645635D01*
X8138864Y-52653446D01*
X8143148Y-52662262D01*
X8145629Y-52671744D01*
X8146250Y-52679600D01*
X8146250Y-56540400D01*
X8145289Y-56550155D01*
X8142444Y-56559534D01*
X8137823Y-56568179D01*
X8131605Y-56575755D01*
X8124029Y-56581973D01*
X8115384Y-56586594D01*
X8106005Y-56589439D01*
X8096250Y-56590400D01*
X8088394Y-56589779D01*
X3617994Y-55878579D01*
X3608512Y-55876098D01*
X3599696Y-55871814D01*
X3591885Y-55865893D01*
X3586656Y-55860000D01*
X3546250Y-55860000D01*
X3546250Y-53360000D01*
X3586756Y-53360000D01*
X3590495Y-53355445D01*
X3598071Y-53349227D01*
X3606716Y-53344606D01*
X3617994Y-53341421D01*
X8088394Y-52630221D01*
X8098179Y-52629637D01*
X8107889Y-52630973D01*
G37*
D10*
X207962500Y-21493750D03*
X207962500Y-18193750D03*
D11*
G36*
X59747656Y7059779D02*
G01*
X64218056Y6348579D01*
X64227538Y6346098D01*
X64236354Y6341814D01*
X64244165Y6335893D01*
X64249394Y6330000D01*
X64266000Y6330000D01*
X64266000Y3830000D01*
X64249294Y3830000D01*
X64245555Y3825445D01*
X64237979Y3819227D01*
X64229334Y3814606D01*
X64218056Y3811421D01*
X59747656Y3100221D01*
X59737871Y3099637D01*
X59728161Y3100973D01*
X59718898Y3104178D01*
X59710439Y3109129D01*
X59703107Y3115635D01*
X59697186Y3123446D01*
X59692902Y3132262D01*
X59690421Y3141744D01*
X59689800Y3149600D01*
X59689800Y7010400D01*
X59690761Y7020155D01*
X59693606Y7029534D01*
X59698227Y7038179D01*
X59704445Y7045755D01*
X59712021Y7051973D01*
X59720666Y7056594D01*
X59730045Y7059439D01*
X59739800Y7060400D01*
X59747656Y7059779D01*
G37*
G36*
X53351639Y4519027D02*
G01*
X53360902Y4515822D01*
X53369361Y4510871D01*
X53376693Y4504365D01*
X53382614Y4496554D01*
X53386898Y4487738D01*
X53389379Y4478256D01*
X53390000Y4470400D01*
X53390000Y609600D01*
X53389039Y599845D01*
X53386194Y590466D01*
X53381573Y581821D01*
X53375355Y574245D01*
X53367779Y568027D01*
X53359134Y563406D01*
X53349755Y560561D01*
X53340000Y559600D01*
X53332144Y560221D01*
X48861744Y1271421D01*
X48852262Y1273902D01*
X48843446Y1278186D01*
X48835635Y1284107D01*
X48830406Y1290000D01*
X48790000Y1290000D01*
X48790000Y3790000D01*
X48830506Y3790000D01*
X48834245Y3794555D01*
X48841821Y3800773D01*
X48850466Y3805394D01*
X48861744Y3808579D01*
X53332144Y4519779D01*
X53341929Y4520363D01*
X53351639Y4519027D01*
G37*
M02*
